  0
SECTION
  2
HEADER
  9
$ACADVER
  1
AC1009
  9
$FILLMODE
 70
0
  9
$EXTMIN
 10
-0.0508
 20
-1.7503
 30
0.0000
  9
$EXTMAX
 10
31.7627
 20
58.9822
 30
0.0000
  0
ENDSEC
  0
SECTION
  2
TABLES
  0
TABLE
  2
LTYPE
 70
1
  0
LTYPE
  2
CONTINUOUS
 70
64
  3
Solid line
 72
65
 73
0
 40
0
  0
ENDTAB
  0
TABLE
  2
LAYER
 70
255
  0
LAYER
  2
1
 70
64
 62
12
  6
CONTINUOUS
  0
LAYER
  2
17
 70
64
 62
110
  6
CONTINUOUS
  0
LAYER
  2
18
 70
64
 62
110
  6
CONTINUOUS
  0
ENDTAB
  0
ENDSEC
  0
SECTION
  2
BLOCKS
  0
BLOCK
  8
0
  2
RECT
 70
64
 10
0.0000
 20
0.0000
 30
0.0000
  3
RECT
  0
SOLID
  8
0
 10
-0.5000
 20
-0.5000
 30
0.0000
 11
0.5000
 21
-0.5000
 31
0.0000
 12
-0.5000
 22
0.5000
 32
0.0000
 13
0.5000
 23
0.5000
 33
0.0000
  0
ENDBLK
  8
0
  0
BLOCK
  8
0
  2
PIE
 70
64
 10
0.0000
 20
0.0000
 30
0.0000
  3
PIE
  0
CIRCLE
  8
0
 10
0.0000
 20
0.0000
 30
0.0000
 40
0.5000
  0
ENDBLK
  8
0
  0
BLOCK
  8
0
  2
OCTAGONP
 70
64
 10
0.0000
 20
0.0000
 30
0.0000
  3
OCTAGONP
  0
POLYLINE
  8
0
 66
1
 10
0.0000
 20
0.0000
 30
0.0000
 40
0.0000
 41
0.0000
 70
1
  0
VERTEX
  8
0
 10
-0.5000
 20
-0.2071
 30
0.0000
  0
VERTEX
  8
0
 10
-0.5000
 20
0.2071
 30
0.0000
  0
VERTEX
  8
0
 10
-0.2071
 20
0.5000
 30
0.0000
  0
VERTEX
  8
0
 10
0.2071
 20
0.5000
 30
0.0000
  0
VERTEX
  8
0
 10
0.5000
 20
0.2071
 30
0.0000
  0
VERTEX
  8
0
 10
0.5000
 20
-0.2071
 30
0.0000
  0
VERTEX
  8
0
 10
0.2071
 20
-0.5000
 30
0.0000
  0
VERTEX
  8
0
 10
-0.2071
 20
-0.5000
 30
0.0000
  0
SEQEND
  8
0
  0
ENDBLK
  8
0
  0
BLOCK
  8
0
  2
SQUAREP
 70
64
 10
0.0000
 20
0.0000
 30
0.0000
  3
SQUAREP
  0
SOLID
  8
0
 10
-0.5000
 20
-0.5000
 30
0.0000
 11
0.5000
 21
-0.5000
 31
0.0000
 12
-0.5000
 22
0.5000
 32
0.0000
 13
0.5000
 23
0.5000
 33
0.0000
  0
ENDBLK
  8
0
  0
BLOCK
  8
0
  2
ROUNDP
 70
64
 10
0.0000
 20
0.0000
 30
0.0000
  3
ROUNDP
  0
CIRCLE
  8
0
 10
0.0000
 20
0.0000
 30
0.0000
 40
0.5000
  0
ENDBLK
  8
0
  0
BLOCK
  8
0
  2
ANNULUSP
 70
64
 10
0.0000
 20
0.0000
 30
0.0000
  3
ANNULUSP
  0
CIRCLE
  8
0
 10
0.0000
 20
0.0000
 30
0.0000
 40
0.5000
  0
ENDBLK
  8
0
  0
BLOCK
  8
0
  2
THERMALP
 70
64
 10
0.0000
 20
0.0000
 30
0.0000
  3
THERMALP
  0
POLYLINE
  8
0
 66
1
 10
0.0000
 20
0.0000
 30
0.0000
 40
0.0000
 41
0.0000
 70
1
  0
VERTEX
  8
0
 10
-0.2379
 20
0.4000
 30
0.0000
  0
VERTEX
  8
0
 10
0.2379
 20
0.4000
 30
0.0000
 42
1.0000
  0
VERTEX
  8
0
 10
0.2379
 20
0.5000
 30
0.0000
  0
VERTEX
  8
0
 10
-0.2379
 20
0.5000
 30
0.0000
 42
1.0000
  0
SEQEND
  8
0
  0
POLYLINE
  8
0
 66
1
 10
0.0000
 20
0.0000
 30
0.0000
 40
0.0000
 41
0.0000
 70
1
  0
VERTEX
  8
0
 10
0.4000
 20
0.2379
 30
0.0000
  0
VERTEX
  8
0
 10
0.4000
 20
-0.2379
 30
0.0000
 42
1.0000
  0
VERTEX
  8
0
 10
0.5000
 20
-0.2379
 30
0.0000
  0
VERTEX
  8
0
 10
0.5000
 20
0.2379
 30
0.0000
 42
1.0000
  0
SEQEND
  8
0
  0
POLYLINE
  8
0
 66
1
 10
0.0000
 20
0.0000
 30
0.0000
 40
0.0000
 41
0.0000
 70
1
  0
VERTEX
  8
0
 10
0.2379
 20
-0.4000
 30
0.0000
  0
VERTEX
  8
0
 10
-0.2379
 20
-0.4000
 30
0.0000
 42
1.0000
  0
VERTEX
  8
0
 10
-0.2379
 20
-0.5000
 30
0.0000
  0
VERTEX
  8
0
 10
0.2379
 20
-0.5000
 30
0.0000
 42
1.0000
  0
SEQEND
  8
0
  0
POLYLINE
  8
0
 66
1
 10
0.0000
 20
0.0000
 30
0.0000
 40
0.0000
 41
0.0000
 70
1
  0
VERTEX
  8
0
 10
-0.4000
 20
-0.2379
 30
0.0000
  0
VERTEX
  8
0
 10
-0.4000
 20
0.2379
 30
0.0000
 42
1.0000
  0
VERTEX
  8
0
 10
-0.5000
 20
0.2379
 30
0.0000
  0
VERTEX
  8
0
 10
-0.5000
 20
-0.2379
 30
0.0000
 42
1.0000
  0
SEQEND
  8
0
  0
ENDBLK
  8
0
  0
BLOCK
  8
0
  2
OCTAGONV
 70
64
 10
0.0000
 20
0.0000
 30
0.0000
  3
OCTAGONV
  0
POLYLINE
  8
0
 66
1
 10
0.0000
 20
0.0000
 30
0.0000
 40
0.0000
 41
0.0000
 70
1
  0
VERTEX
  8
0
 10
-0.5000
 20
-0.2071
 30
0.0000
  0
VERTEX
  8
0
 10
-0.5000
 20
0.2071
 30
0.0000
  0
VERTEX
  8
0
 10
-0.2071
 20
0.5000
 30
0.0000
  0
VERTEX
  8
0
 10
0.2071
 20
0.5000
 30
0.0000
  0
VERTEX
  8
0
 10
0.5000
 20
0.2071
 30
0.0000
  0
VERTEX
  8
0
 10
0.5000
 20
-0.2071
 30
0.0000
  0
VERTEX
  8
0
 10
0.2071
 20
-0.5000
 30
0.0000
  0
VERTEX
  8
0
 10
-0.2071
 20
-0.5000
 30
0.0000
  0
SEQEND
  8
0
  0
ENDBLK
  8
0
  0
BLOCK
  8
0
  2
SQUAREV
 70
64
 10
0.0000
 20
0.0000
 30
0.0000
  3
SQUAREV
  0
SOLID
  8
0
 10
-0.5000
 20
-0.5000
 30
0.0000
 11
0.5000
 21
-0.5000
 31
0.0000
 12
-0.5000
 22
0.5000
 32
0.0000
 13
0.5000
 23
0.5000
 33
0.0000
  0
ENDBLK
  8
0
  0
BLOCK
  8
0
  2
ROUNDV
 70
64
 10
0.0000
 20
0.0000
 30
0.0000
  3
ROUNDV
  0
CIRCLE
  8
0
 10
0.0000
 20
0.0000
 30
0.0000
 40
0.5000
  0
ENDBLK
  8
0
  0
BLOCK
  8
0
  2
ANNULUSV
 70
64
 10
0.0000
 20
0.0000
 30
0.0000
  3
ANNULUSV
  0
CIRCLE
  8
0
 10
0.0000
 20
0.0000
 30
0.0000
 40
0.5000
  0
ENDBLK
  8
0
  0
BLOCK
  8
0
  2
THERMALV
 70
64
 10
0.0000
 20
0.0000
 30
0.0000
  3
THERMALV
  0
POLYLINE
  8
0
 66
1
 10
0.0000
 20
0.0000
 30
0.0000
 40
0.0000
 41
0.0000
 70
1
  0
VERTEX
  8
0
 10
-0.2379
 20
0.4000
 30
0.0000
  0
VERTEX
  8
0
 10
0.2379
 20
0.4000
 30
0.0000
 42
1.0000
  0
VERTEX
  8
0
 10
0.2379
 20
0.5000
 30
0.0000
  0
VERTEX
  8
0
 10
-0.2379
 20
0.5000
 30
0.0000
 42
1.0000
  0
SEQEND
  8
0
  0
POLYLINE
  8
0
 66
1
 10
0.0000
 20
0.0000
 30
0.0000
 40
0.0000
 41
0.0000
 70
1
  0
VERTEX
  8
0
 10
0.4000
 20
0.2379
 30
0.0000
  0
VERTEX
  8
0
 10
0.4000
 20
-0.2379
 30
0.0000
 42
1.0000
  0
VERTEX
  8
0
 10
0.5000
 20
-0.2379
 30
0.0000
  0
VERTEX
  8
0
 10
0.5000
 20
0.2379
 30
0.0000
 42
1.0000
  0
SEQEND
  8
0
  0
POLYLINE
  8
0
 66
1
 10
0.0000
 20
0.0000
 30
0.0000
 40
0.0000
 41
0.0000
 70
1
  0
VERTEX
  8
0
 10
0.2379
 20
-0.4000
 30
0.0000
  0
VERTEX
  8
0
 10
-0.2379
 20
-0.4000
 30
0.0000
 42
1.0000
  0
VERTEX
  8
0
 10
-0.2379
 20
-0.5000
 30
0.0000
  0
VERTEX
  8
0
 10
0.2379
 20
-0.5000
 30
0.0000
 42
1.0000
  0
SEQEND
  8
0
  0
POLYLINE
  8
0
 66
1
 10
0.0000
 20
0.0000
 30
0.0000
 40
0.0000
 41
0.0000
 70
1
  0
VERTEX
  8
0
 10
-0.4000
 20
-0.2379
 30
0.0000
  0
VERTEX
  8
0
 10
-0.4000
 20
0.2379
 30
0.0000
 42
1.0000
  0
VERTEX
  8
0
 10
-0.5000
 20
0.2379
 30
0.0000
  0
VERTEX
  8
0
 10
-0.5000
 20
-0.2379
 30
0.0000
 42
1.0000
  0
SEQEND
  8
0
  0
ENDBLK
  8
0
  0
BLOCK
  8
0
  2
LONGP100
 70
64
 10
0.0000
 20
0.0000
 30
0.0000
  3
LONGP100
  0
POLYLINE
  8
0
 66
1
 10
0.0000
 20
0.0000
 30
0.0000
 40
0.0000
 41
0.0000
 70
1
  0
VERTEX
  8
0
 10
-0.5000
 20
-0.5000
 30
0.0000
  0
VERTEX
  8
0
 10
0.5000
 20
-0.5000
 30
0.0000
 42
1.0000
  0
VERTEX
  8
0
 10
0.5000
 20
0.5000
 30
0.0000
  0
VERTEX
  8
0
 10
-0.5000
 20
0.5000
 30
0.0000
 42
1.0000
  0
SEQEND
  8
0
  0
ENDBLK
  8
0
  0
ENDSEC
  0
SECTION
  2
ENTITIES
  0
INSERT
  8
17
  2
SQUAREP
 10
11.4300
 20
46.3550
 30
0.0000
 41
1.3080
 42
1.3080
 43
1.0000
 50
270.0000
  0
INSERT
  8
17
  2
ROUNDP
 10
11.4300
 20
43.8150
 30
0.0000
 41
1.3080
 42
1.3080
 43
1.0000
 50
270.0000
  0
INSERT
  8
17
  2
ROUNDP
 10
11.4300
 20
41.2750
 30
0.0000
 41
1.3080
 42
1.3080
 43
1.0000
 50
270.0000
  0
INSERT
  8
17
  2
ROUNDP
 10
11.4300
 20
38.7350
 30
0.0000
 41
1.3080
 42
1.3080
 43
1.0000
 50
270.0000
  0
INSERT
  8
17
  2
ROUNDP
 10
11.4300
 20
36.1950
 30
0.0000
 41
1.3080
 42
1.3080
 43
1.0000
 50
270.0000
  0
INSERT
  8
17
  2
ROUNDP
 10
11.4300
 20
33.6550
 30
0.0000
 41
1.3080
 42
1.3080
 43
1.0000
 50
270.0000
  0
INSERT
  8
17
  2
ROUNDP
 10
11.4300
 20
31.1150
 30
0.0000
 41
1.3080
 42
1.3080
 43
1.0000
 50
270.0000
  0
INSERT
  8
17
  2
ROUNDP
 10
11.4300
 20
28.5750
 30
0.0000
 41
1.3080
 42
1.3080
 43
1.0000
 50
270.0000
  0
INSERT
  8
17
  2
ROUNDP
 10
11.4300
 20
26.0350
 30
0.0000
 41
1.3080
 42
1.3080
 43
1.0000
 50
270.0000
  0
INSERT
  8
17
  2
ROUNDP
 10
11.4300
 20
23.4950
 30
0.0000
 41
1.3080
 42
1.3080
 43
1.0000
 50
270.0000
  0
INSERT
  8
17
  2
ROUNDP
 10
11.4300
 20
20.9550
 30
0.0000
 41
1.3080
 42
1.3080
 43
1.0000
 50
270.0000
  0
INSERT
  8
17
  2
ROUNDP
 10
11.4300
 20
18.4150
 30
0.0000
 41
1.3080
 42
1.3080
 43
1.0000
 50
270.0000
  0
INSERT
  8
17
  2
ROUNDP
 10
11.4300
 20
15.8750
 30
0.0000
 41
1.3080
 42
1.3080
 43
1.0000
 50
270.0000
  0
INSERT
  8
17
  2
ROUNDP
 10
11.4300
 20
13.3350
 30
0.0000
 41
1.3080
 42
1.3080
 43
1.0000
 50
270.0000
  0
INSERT
  8
17
  2
ROUNDP
 10
11.4300
 20
10.7950
 30
0.0000
 41
1.3080
 42
1.3080
 43
1.0000
 50
270.0000
  0
INSERT
  8
17
  2
ROUNDP
 10
26.6700
 20
10.7950
 30
0.0000
 41
1.3080
 42
1.3080
 43
1.0000
 50
270.0000
  0
INSERT
  8
17
  2
ROUNDP
 10
26.6700
 20
13.3350
 30
0.0000
 41
1.3080
 42
1.3080
 43
1.0000
 50
270.0000
  0
INSERT
  8
17
  2
ROUNDP
 10
26.6700
 20
15.8750
 30
0.0000
 41
1.3080
 42
1.3080
 43
1.0000
 50
270.0000
  0
INSERT
  8
17
  2
ROUNDP
 10
26.6700
 20
18.4150
 30
0.0000
 41
1.3080
 42
1.3080
 43
1.0000
 50
270.0000
  0
INSERT
  8
17
  2
ROUNDP
 10
26.6700
 20
20.9550
 30
0.0000
 41
1.3080
 42
1.3080
 43
1.0000
 50
270.0000
  0
INSERT
  8
17
  2
ROUNDP
 10
26.6700
 20
23.4950
 30
0.0000
 41
1.3080
 42
1.3080
 43
1.0000
 50
270.0000
  0
INSERT
  8
17
  2
ROUNDP
 10
26.6700
 20
26.0350
 30
0.0000
 41
1.3080
 42
1.3080
 43
1.0000
 50
270.0000
  0
INSERT
  8
17
  2
ROUNDP
 10
26.6700
 20
28.5750
 30
0.0000
 41
1.3080
 42
1.3080
 43
1.0000
 50
270.0000
  0
INSERT
  8
17
  2
ROUNDP
 10
26.6700
 20
31.1150
 30
0.0000
 41
1.3080
 42
1.3080
 43
1.0000
 50
270.0000
  0
INSERT
  8
17
  2
ROUNDP
 10
26.6700
 20
33.6550
 30
0.0000
 41
1.3080
 42
1.3080
 43
1.0000
 50
270.0000
  0
INSERT
  8
17
  2
ROUNDP
 10
26.6700
 20
36.1950
 30
0.0000
 41
1.3080
 42
1.3080
 43
1.0000
 50
270.0000
  0
INSERT
  8
17
  2
ROUNDP
 10
26.6700
 20
38.7350
 30
0.0000
 41
1.3080
 42
1.3080
 43
1.0000
 50
270.0000
  0
INSERT
  8
17
  2
ROUNDP
 10
26.6700
 20
41.2750
 30
0.0000
 41
1.3080
 42
1.3080
 43
1.0000
 50
270.0000
  0
INSERT
  8
17
  2
ROUNDP
 10
26.6700
 20
43.8150
 30
0.0000
 41
1.3080
 42
1.3080
 43
1.0000
 50
270.0000
  0
INSERT
  8
17
  2
ROUNDP
 10
26.6700
 20
46.3550
 30
0.0000
 41
1.3080
 42
1.3080
 43
1.0000
 50
270.0000
  0
INSERT
  8
17
  2
ROUNDP
 10
15.2800
 20
3.8100
 30
0.0000
 41
2.7000
 42
2.7000
 43
1.0000
 50
180.0000
  0
INSERT
  8
17
  2
ROUNDP
 10
20.2800
 20
3.8100
 30
0.0000
 41
2.7000
 42
2.7000
 43
1.0000
 50
180.0000
  0
INSERT
  8
17
  2
LONGP100
 10
15.2400
 20
9.5250
 30
0.0000
 41
1.3208
 42
1.3208
 43
1.0000
 50
0.0000
  0
INSERT
  8
17
  2
LONGP100
 10
15.2400
 20
12.0650
 30
0.0000
 41
1.3208
 42
1.3208
 43
1.0000
 50
0.0000
  0
INSERT
  8
17
  2
LONGP100
 10
15.2400
 20
14.6050
 30
0.0000
 41
1.3208
 42
1.3208
 43
1.0000
 50
0.0000
  0
INSERT
  8
17
  2
LONGP100
 10
15.2400
 20
17.1450
 30
0.0000
 41
1.3208
 42
1.3208
 43
1.0000
 50
0.0000
  0
INSERT
  8
17
  2
LONGP100
 10
15.2400
 20
19.6850
 30
0.0000
 41
1.3208
 42
1.3208
 43
1.0000
 50
0.0000
  0
INSERT
  8
17
  2
LONGP100
 10
15.2400
 20
22.2250
 30
0.0000
 41
1.3208
 42
1.3208
 43
1.0000
 50
0.0000
  0
INSERT
  8
17
  2
LONGP100
 10
15.2400
 20
24.7650
 30
0.0000
 41
1.3208
 42
1.3208
 43
1.0000
 50
0.0000
  0
INSERT
  8
17
  2
LONGP100
 10
15.2400
 20
27.3050
 30
0.0000
 41
1.3208
 42
1.3208
 43
1.0000
 50
0.0000
  0
INSERT
  8
17
  2
LONGP100
 10
22.8600
 20
27.3050
 30
0.0000
 41
1.3208
 42
1.3208
 43
1.0000
 50
0.0000
  0
INSERT
  8
17
  2
LONGP100
 10
22.8600
 20
24.7650
 30
0.0000
 41
1.3208
 42
1.3208
 43
1.0000
 50
0.0000
  0
INSERT
  8
17
  2
LONGP100
 10
22.8600
 20
22.2250
 30
0.0000
 41
1.3208
 42
1.3208
 43
1.0000
 50
0.0000
  0
INSERT
  8
17
  2
LONGP100
 10
22.8600
 20
19.6850
 30
0.0000
 41
1.3208
 42
1.3208
 43
1.0000
 50
0.0000
  0
INSERT
  8
17
  2
LONGP100
 10
22.8600
 20
17.1450
 30
0.0000
 41
1.3208
 42
1.3208
 43
1.0000
 50
0.0000
  0
INSERT
  8
17
  2
LONGP100
 10
22.8600
 20
14.6050
 30
0.0000
 41
1.3208
 42
1.3208
 43
1.0000
 50
0.0000
  0
INSERT
  8
17
  2
LONGP100
 10
22.8600
 20
12.0650
 30
0.0000
 41
1.3208
 42
1.3208
 43
1.0000
 50
0.0000
  0
INSERT
  8
17
  2
LONGP100
 10
22.8600
 20
9.5250
 30
0.0000
 41
1.3208
 42
1.3208
 43
1.0000
 50
0.0000
  0
INSERT
  8
17
  2
LONGP100
 10
15.2400
 20
32.3850
 30
0.0000
 41
1.3208
 42
1.3208
 43
1.0000
 50
0.0000
  0
INSERT
  8
17
  2
LONGP100
 10
15.2400
 20
34.9250
 30
0.0000
 41
1.3208
 42
1.3208
 43
1.0000
 50
0.0000
  0
INSERT
  8
17
  2
LONGP100
 10
15.2400
 20
37.4650
 30
0.0000
 41
1.3208
 42
1.3208
 43
1.0000
 50
0.0000
  0
INSERT
  8
17
  2
LONGP100
 10
15.2400
 20
40.0050
 30
0.0000
 41
1.3208
 42
1.3208
 43
1.0000
 50
0.0000
  0
INSERT
  8
17
  2
LONGP100
 10
15.2400
 20
42.5450
 30
0.0000
 41
1.3208
 42
1.3208
 43
1.0000
 50
0.0000
  0
INSERT
  8
17
  2
LONGP100
 10
15.2400
 20
45.0850
 30
0.0000
 41
1.3208
 42
1.3208
 43
1.0000
 50
0.0000
  0
INSERT
  8
17
  2
LONGP100
 10
15.2400
 20
47.6250
 30
0.0000
 41
1.3208
 42
1.3208
 43
1.0000
 50
0.0000
  0
INSERT
  8
17
  2
LONGP100
 10
15.2400
 20
50.1650
 30
0.0000
 41
1.3208
 42
1.3208
 43
1.0000
 50
0.0000
  0
INSERT
  8
17
  2
LONGP100
 10
22.8600
 20
50.1650
 30
0.0000
 41
1.3208
 42
1.3208
 43
1.0000
 50
0.0000
  0
INSERT
  8
17
  2
LONGP100
 10
22.8600
 20
47.6250
 30
0.0000
 41
1.3208
 42
1.3208
 43
1.0000
 50
0.0000
  0
INSERT
  8
17
  2
LONGP100
 10
22.8600
 20
45.0850
 30
0.0000
 41
1.3208
 42
1.3208
 43
1.0000
 50
0.0000
  0
INSERT
  8
17
  2
LONGP100
 10
22.8600
 20
42.5450
 30
0.0000
 41
1.3208
 42
1.3208
 43
1.0000
 50
0.0000
  0
INSERT
  8
17
  2
LONGP100
 10
22.8600
 20
40.0050
 30
0.0000
 41
1.3208
 42
1.3208
 43
1.0000
 50
0.0000
  0
INSERT
  8
17
  2
LONGP100
 10
22.8600
 20
37.4650
 30
0.0000
 41
1.3208
 42
1.3208
 43
1.0000
 50
0.0000
  0
INSERT
  8
17
  2
LONGP100
 10
22.8600
 20
34.9250
 30
0.0000
 41
1.3208
 42
1.3208
 43
1.0000
 50
0.0000
  0
INSERT
  8
17
  2
LONGP100
 10
22.8600
 20
32.3850
 30
0.0000
 41
1.3208
 42
1.3208
 43
1.0000
 50
0.0000
  0
INSERT
  8
17
  2
LONGP100
 10
8.8900
 20
28.5750
 30
0.0000
 41
1.5240
 42
1.5240
 43
1.0000
 50
270.0000
  0
INSERT
  8
17
  2
LONGP100
 10
6.3500
 20
28.5750
 30
0.0000
 41
1.5240
 42
1.5240
 43
1.0000
 50
270.0000
  0
INSERT
  8
17
  2
LONGP100
 10
3.8100
 20
28.5750
 30
0.0000
 41
1.5240
 42
1.5240
 43
1.0000
 50
270.0000
  0
INSERT
  8
17
  2
LONGP100
 10
8.8900
 20
32.3850
 30
0.0000
 41
1.5240
 42
1.5240
 43
1.0000
 50
270.0000
  0
INSERT
  8
17
  2
LONGP100
 10
6.3500
 20
32.3850
 30
0.0000
 41
1.5240
 42
1.5240
 43
1.0000
 50
270.0000
  0
INSERT
  8
17
  2
LONGP100
 10
3.8100
 20
32.3850
 30
0.0000
 41
1.5240
 42
1.5240
 43
1.0000
 50
270.0000
  0
INSERT
  8
17
  2
LONGP100
 10
8.8900
 20
36.1950
 30
0.0000
 41
1.5240
 42
1.5240
 43
1.0000
 50
270.0000
  0
INSERT
  8
17
  2
LONGP100
 10
6.3500
 20
36.1950
 30
0.0000
 41
1.5240
 42
1.5240
 43
1.0000
 50
270.0000
  0
INSERT
  8
17
  2
LONGP100
 10
3.8100
 20
36.1950
 30
0.0000
 41
1.5240
 42
1.5240
 43
1.0000
 50
270.0000
  0
INSERT
  8
17
  2
LONGP100
 10
8.8900
 20
40.0050
 30
0.0000
 41
1.5240
 42
1.5240
 43
1.0000
 50
270.0000
  0
INSERT
  8
17
  2
LONGP100
 10
6.3500
 20
40.0050
 30
0.0000
 41
1.5240
 42
1.5240
 43
1.0000
 50
270.0000
  0
INSERT
  8
17
  2
LONGP100
 10
3.8100
 20
40.0050
 30
0.0000
 41
1.5240
 42
1.5240
 43
1.0000
 50
270.0000
  0
INSERT
  8
17
  2
ROUNDP
 10
11.3759
 20
5.4039
 30
0.0000
 41
1.4080
 42
1.4080
 43
1.0000
 50
90.0000
  0
INSERT
  8
17
  2
ROUNDP
 10
9.3759
 20
5.4039
 30
0.0000
 41
1.4080
 42
1.4080
 43
1.0000
 50
90.0000
  0
INSERT
  8
17
  2
ROUNDP
 10
26.4000
 20
5.7150
 30
0.0000
 41
1.4080
 42
1.4080
 43
1.0000
 50
90.0000
  0
INSERT
  8
17
  2
ROUNDP
 10
24.4000
 20
5.7150
 30
0.0000
 41
1.4080
 42
1.4080
 43
1.0000
 50
90.0000
  0
INSERT
  8
17
  2
ROUNDP
 10
10.6523
 20
52.8447
 30
0.0000
 41
1.4080
 42
1.4080
 43
1.0000
 50
270.0000
  0
INSERT
  8
17
  2
ROUNDP
 10
12.6523
 20
52.8447
 30
0.0000
 41
1.4080
 42
1.4080
 43
1.0000
 50
270.0000
  0
INSERT
  8
17
  2
ROUNDP
 10
27.6827
 20
51.4223
 30
0.0000
 41
1.4080
 42
1.4080
 43
1.0000
 50
90.0000
  0
INSERT
  8
17
  2
ROUNDP
 10
25.6827
 20
51.4223
 30
0.0000
 41
1.4080
 42
1.4080
 43
1.0000
 50
90.0000
  0
POLYLINE
  8
1
 66
1
 10
0.0000
 20
0.0000
 30
0.0000
 40
0.0000
 41
0.0000
 70
1
  0
VERTEX
  8
1
 10
0.2794
 20
0.0953
 30
0.0000
  0
VERTEX
  8
1
 10
31.3627
 20
0.0953
 30
0.0000
 42
1.0000
  0
VERTEX
  8
1
 10
31.3627
 20
0.6033
 30
0.0000
  0
VERTEX
  8
1
 10
0.2794
 20
0.6033
 30
0.0000
 42
1.0000
  0
SEQEND
  8
0
  0
POLYLINE
  8
1
 66
1
 10
0.0000
 20
0.0000
 30
0.0000
 40
0.0000
 41
0.0000
 70
1
  0
VERTEX
  8
1
 10
31.1830
 20
0.1696
 30
0.0000
  0
VERTEX
  8
1
 10
31.2529
 20
0.0998
 30
0.0000
 42
1.0000
  0
VERTEX
  8
1
 10
31.6121
 20
0.4590
 30
0.0000
  0
VERTEX
  8
1
 10
31.5423
 20
0.5289
 30
0.0000
 42
1.0000
  0
SEQEND
  8
0
  0
POLYLINE
  8
1
 66
1
 10
0.0000
 20
0.0000
 30
0.0000
 40
0.0000
 41
0.0000
 70
1
  0
VERTEX
  8
1
 10
31.6865
 20
0.2794
 30
0.0000
  0
VERTEX
  8
1
 10
31.6865
 20
55.8800
 30
0.0000
 42
1.0000
  0
VERTEX
  8
1
 10
31.1785
 20
55.8800
 30
0.0000
  0
VERTEX
  8
1
 10
31.1785
 20
0.2794
 30
0.0000
 42
1.0000
  0
SEQEND
  8
0
  0
POLYLINE
  8
1
 66
1
 10
0.0000
 20
0.0000
 30
0.0000
 40
0.0000
 41
0.0000
 70
1
  0
VERTEX
  8
1
 10
31.4325
 20
56.1340
 30
0.0000
  0
VERTEX
  8
1
 10
0.2794
 20
56.1340
 30
0.0000
 42
1.0000
  0
VERTEX
  8
1
 10
0.2794
 20
55.6260
 30
0.0000
  0
VERTEX
  8
1
 10
31.4325
 20
55.6260
 30
0.0000
 42
1.0000
  0
SEQEND
  8
0
  0
POLYLINE
  8
1
 66
1
 10
0.0000
 20
0.0000
 30
0.0000
 40
0.0000
 41
0.0000
 70
1
  0
VERTEX
  8
1
 10
0.0254
 20
55.8800
 30
0.0000
  0
VERTEX
  8
1
 10
0.0254
 20
0.3493
 30
0.0000
 42
1.0000
  0
VERTEX
  8
1
 10
0.5334
 20
0.3493
 30
0.0000
  0
VERTEX
  8
1
 10
0.5334
 20
55.8800
 30
0.0000
 42
1.0000
  0
SEQEND
  8
0
  0
POLYLINE
  8
1
 66
1
 10
0.0000
 20
0.0000
 30
0.0000
 40
0.0000
 41
0.0000
 70
1
  0
VERTEX
  8
1
 10
3.7465
 20
32.0040
 30
0.0000
  0
VERTEX
  8
1
 10
3.7465
 20
28.8925
 30
0.0000
 42
1.0000
  0
VERTEX
  8
1
 10
4.2545
 20
28.8925
 30
0.0000
  0
VERTEX
  8
1
 10
4.2545
 20
32.0040
 30
0.0000
 42
1.0000
  0
SEQEND
  8
0
  0
POLYLINE
  8
1
 66
1
 10
0.0000
 20
0.0000
 30
0.0000
 40
0.0000
 41
0.0000
 70
1
  0
VERTEX
  8
1
 10
3.7827
 20
29.0232
 30
0.0000
  0
VERTEX
  8
1
 10
3.5922
 20
28.7057
 30
0.0000
 42
1.0000
  0
VERTEX
  8
1
 10
4.0278
 20
28.4443
 30
0.0000
  0
VERTEX
  8
1
 10
4.2183
 20
28.7618
 30
0.0000
 42
1.0000
  0
SEQEND
  8
0
  0
POLYLINE
  8
1
 66
1
 10
0.0000
 20
0.0000
 30
0.0000
 40
0.0000
 41
0.0000
 70
1
  0
VERTEX
  8
1
 10
4.2277
 20
32.1176
 30
0.0000
  0
VERTEX
  8
1
 10
4.0372
 20
32.4986
 30
0.0000
 42
1.0000
  0
VERTEX
  8
1
 10
3.5828
 20
32.2714
 30
0.0000
  0
VERTEX
  8
1
 10
3.7733
 20
31.8904
 30
0.0000
 42
1.0000
  0
SEQEND
  8
0
  0
POLYLINE
  8
1
 66
1
 10
0.0000
 20
0.0000
 30
0.0000
 40
0.0000
 41
0.0000
 70
1
  0
VERTEX
  8
1
 10
3.7465
 20
40.0050
 30
0.0000
  0
VERTEX
  8
1
 10
3.7465
 20
36.4490
 30
0.0000
 42
1.0000
  0
VERTEX
  8
1
 10
4.2545
 20
36.4490
 30
0.0000
  0
VERTEX
  8
1
 10
4.2545
 20
40.0050
 30
0.0000
 42
1.0000
  0
SEQEND
  8
0
  0
POLYLINE
  8
1
 66
1
 10
0.0000
 20
0.0000
 30
0.0000
 40
0.0000
 41
0.0000
 70
1
  0
VERTEX
  8
1
 10
3.7973
 20
36.6014
 30
0.0000
  0
VERTEX
  8
1
 10
3.6068
 20
36.3474
 30
0.0000
 42
1.0000
  0
VERTEX
  8
1
 10
4.0132
 20
36.0426
 30
0.0000
  0
VERTEX
  8
1
 10
4.2037
 20
36.2966
 30
0.0000
 42
1.0000
  0
SEQEND
  8
0
  0
POLYLINE
  8
1
 66
1
 10
0.0000
 20
0.0000
 30
0.0000
 40
0.0000
 41
0.0000
 70
1
  0
VERTEX
  8
1
 10
4.0005
 20
40.2590
 30
0.0000
  0
VERTEX
  8
1
 10
3.8100
 20
40.2590
 30
0.0000
 42
1.0000
  0
VERTEX
  8
1
 10
3.8100
 20
39.7510
 30
0.0000
  0
VERTEX
  8
1
 10
4.0005
 20
39.7510
 30
0.0000
 42
1.0000
  0
SEQEND
  8
0
  0
POLYLINE
  8
1
 66
1
 10
0.0000
 20
0.0000
 30
0.0000
 40
0.0000
 41
0.0000
 70
1
  0
VERTEX
  8
1
 10
3.7465
 20
36.0045
 30
0.0000
  0
VERTEX
  8
1
 10
3.7465
 20
32.4485
 30
0.0000
 42
1.0000
  0
VERTEX
  8
1
 10
4.2545
 20
32.4485
 30
0.0000
  0
VERTEX
  8
1
 10
4.2545
 20
36.0045
 30
0.0000
 42
1.0000
  0
SEQEND
  8
0
  0
POLYLINE
  8
1
 66
1
 10
0.0000
 20
0.0000
 30
0.0000
 40
0.0000
 41
0.0000
 70
1
  0
VERTEX
  8
1
 10
3.9202
 20
32.6895
 30
0.0000
  0
VERTEX
  8
1
 10
3.7297
 20
32.6260
 30
0.0000
 42
1.0000
  0
VERTEX
  8
1
 10
3.8903
 20
32.1440
 30
0.0000
  0
VERTEX
  8
1
 10
4.0808
 20
32.2075
 30
0.0000
 42
1.0000
  0
SEQEND
  8
0
  0
POLYLINE
  8
1
 66
1
 10
0.0000
 20
0.0000
 30
0.0000
 40
0.0000
 41
0.0000
 70
1
  0
VERTEX
  8
1
 10
4.1801
 20
36.1841
 30
0.0000
  0
VERTEX
  8
1
 10
3.9896
 20
36.3746
 30
0.0000
 42
1.0000
  0
VERTEX
  8
1
 10
3.6304
 20
36.0154
 30
0.0000
  0
VERTEX
  8
1
 10
3.8209
 20
35.8249
 30
0.0000
 42
1.0000
  0
SEQEND
  8
0
  0
POLYLINE
  8
1
 66
1
 10
0.0000
 20
0.0000
 30
0.0000
 40
0.0000
 41
0.0000
 70
1
  0
VERTEX
  8
1
 10
15.0495
 20
42.2275
 30
0.0000
  0
VERTEX
  8
1
 10
15.0495
 20
40.0050
 30
0.0000
 42
1.0000
  0
VERTEX
  8
1
 10
16.0655
 20
40.0050
 30
0.0000
  0
VERTEX
  8
1
 10
16.0655
 20
42.2275
 30
0.0000
 42
1.0000
  0
SEQEND
  8
0
  0
POLYLINE
  8
1
 66
1
 10
0.0000
 20
0.0000
 30
0.0000
 40
0.0000
 41
0.0000
 70
1
  0
VERTEX
  8
1
 10
15.5575
 20
40.2590
 30
0.0000
  0
VERTEX
  8
1
 10
15.2400
 20
40.2590
 30
0.0000
 42
1.0000
  0
VERTEX
  8
1
 10
15.2400
 20
39.7510
 30
0.0000
  0
VERTEX
  8
1
 10
15.5575
 20
39.7510
 30
0.0000
 42
1.0000
  0
SEQEND
  8
0
  0
POLYLINE
  8
1
 66
1
 10
0.0000
 20
0.0000
 30
0.0000
 40
0.0000
 41
0.0000
 70
1
  0
VERTEX
  8
1
 10
15.7371
 20
42.4071
 30
0.0000
  0
VERTEX
  8
1
 10
15.4196
 20
42.7246
 30
0.0000
 42
1.0000
  0
VERTEX
  8
1
 10
15.0604
 20
42.3654
 30
0.0000
  0
VERTEX
  8
1
 10
15.3779
 20
42.0479
 30
0.0000
 42
1.0000
  0
SEQEND
  8
0
  0
POLYLINE
  8
1
 66
1
 10
0.0000
 20
0.0000
 30
0.0000
 40
0.0000
 41
0.0000
 70
1
  0
VERTEX
  8
1
 10
22.6060
 20
42.2275
 30
0.0000
  0
VERTEX
  8
1
 10
22.6060
 20
40.0050
 30
0.0000
 42
1.0000
  0
VERTEX
  8
1
 10
23.6220
 20
40.0050
 30
0.0000
  0
VERTEX
  8
1
 10
23.6220
 20
42.2275
 30
0.0000
 42
1.0000
  0
SEQEND
  8
0
  0
POLYLINE
  8
1
 66
1
 10
0.0000
 20
0.0000
 30
0.0000
 40
0.0000
 41
0.0000
 70
1
  0
VERTEX
  8
1
 10
23.1140
 20
40.2590
 30
0.0000
  0
VERTEX
  8
1
 10
22.8600
 20
40.2590
 30
0.0000
 42
1.0000
  0
VERTEX
  8
1
 10
22.8600
 20
39.7510
 30
0.0000
  0
VERTEX
  8
1
 10
23.1140
 20
39.7510
 30
0.0000
 42
1.0000
  0
SEQEND
  8
0
  0
POLYLINE
  8
1
 66
1
 10
0.0000
 20
0.0000
 30
0.0000
 40
0.0000
 41
0.0000
 70
1
  0
VERTEX
  8
1
 10
23.3123
 20
42.3862
 30
0.0000
  0
VERTEX
  8
1
 10
23.0583
 20
42.7037
 30
0.0000
 42
1.0000
  0
VERTEX
  8
1
 10
22.6617
 20
42.3863
 30
0.0000
  0
VERTEX
  8
1
 10
22.9157
 20
42.0688
 30
0.0000
 42
1.0000
  0
SEQEND
  8
0
  0
POLYLINE
  8
1
 66
1
 10
0.0000
 20
0.0000
 30
0.0000
 40
0.0000
 41
0.0000
 70
1
  0
VERTEX
  8
1
 10
23.0314
 20
18.4150
 30
0.0000
  0
VERTEX
  8
1
 10
23.1521
 20
18.4150
 30
0.0000
 42
1.0000
  0
VERTEX
  8
1
 10
23.1521
 20
18.9230
 30
0.0000
  0
VERTEX
  8
1
 10
23.0314
 20
18.9230
 30
0.0000
 42
1.0000
  0
SEQEND
  8
0
  0
POLYLINE
  8
1
 66
1
 10
0.0000
 20
0.0000
 30
0.0000
 40
0.0000
 41
0.0000
 70
1
  0
VERTEX
  8
1
 10
23.1521
 20
18.1610
 30
0.0000
  0
VERTEX
  8
1
 10
26.6700
 20
18.1610
 30
0.0000
 42
1.0000
  0
VERTEX
  8
1
 10
26.6700
 20
19.1770
 30
0.0000
  0
VERTEX
  8
1
 10
23.1521
 20
19.1770
 30
0.0000
 42
1.0000
  0
SEQEND
  8
0
  0
POLYLINE
  8
1
 66
1
 10
0.0000
 20
0.0000
 30
0.0000
 40
0.0000
 41
0.0000
 70
1
  0
VERTEX
  8
1
 10
23.2111
 20
18.8486
 30
0.0000
  0
VERTEX
  8
1
 10
23.0396
 20
19.0201
 30
0.0000
 42
1.0000
  0
VERTEX
  8
1
 10
22.6804
 20
18.6608
 30
0.0000
  0
VERTEX
  8
1
 10
22.8518
 20
18.4894
 30
0.0000
 42
1.0000
  0
SEQEND
  8
0
  0
POLYLINE
  8
1
 66
1
 10
0.0000
 20
0.0000
 30
0.0000
 40
0.0000
 41
0.0000
 70
1
  0
VERTEX
  8
1
 10
22.3520
 20
19.6850
 30
0.0000
  0
VERTEX
  8
1
 10
22.3520
 20
18.8405
 30
0.0000
 42
1.0000
  0
VERTEX
  8
1
 10
23.3680
 20
18.8405
 30
0.0000
  0
VERTEX
  8
1
 10
23.3680
 20
19.6850
 30
0.0000
 42
1.0000
  0
SEQEND
  8
0
  0
POLYLINE
  8
1
 66
1
 10
0.0000
 20
0.0000
 30
0.0000
 40
0.0000
 41
0.0000
 70
1
  0
VERTEX
  8
1
 10
26.4160
 20
18.6690
 30
0.0000
  0
VERTEX
  8
1
 10
26.4160
 20
18.4150
 30
0.0000
 42
1.0000
  0
VERTEX
  8
1
 10
26.9240
 20
18.4150
 30
0.0000
  0
VERTEX
  8
1
 10
26.9240
 20
18.6690
 30
0.0000
 42
1.0000
  0
SEQEND
  8
0
  0
POLYLINE
  8
1
 66
1
 10
0.0000
 20
0.0000
 30
0.0000
 40
0.0000
 41
0.0000
 70
1
  0
VERTEX
  8
1
 10
22.7929
 20
19.0282
 30
0.0000
  0
VERTEX
  8
1
 10
22.5008
 20
18.7361
 30
0.0000
 42
1.0000
  0
VERTEX
  8
1
 10
23.2192
 20
18.0177
 30
0.0000
  0
VERTEX
  8
1
 10
23.5113
 20
18.3098
 30
0.0000
 42
1.0000
  0
SEQEND
  8
0
  0
POLYLINE
  8
1
 66
1
 10
0.0000
 20
0.0000
 30
0.0000
 40
0.0000
 41
0.0000
 70
1
  0
VERTEX
  8
1
 10
23.3680
 20
17.1450
 30
0.0000
  0
VERTEX
  8
1
 10
23.3680
 20
18.3769
 30
0.0000
 42
1.0000
  0
VERTEX
  8
1
 10
22.3520
 20
18.3769
 30
0.0000
  0
VERTEX
  8
1
 10
22.3520
 20
17.1450
 30
0.0000
 42
1.0000
  0
SEQEND
  8
0
  0
POLYLINE
  8
1
 66
1
 10
0.0000
 20
0.0000
 30
0.0000
 40
0.0000
 41
0.0000
 70
1
  0
VERTEX
  8
1
 10
12.7109
 20
14.8481
 30
0.0000
  0
VERTEX
  8
1
 10
11.3774
 20
13.5146
 30
0.0000
 42
1.0000
  0
VERTEX
  8
1
 10
11.7366
 20
13.1554
 30
0.0000
  0
VERTEX
  8
1
 10
13.0701
 20
14.4889
 30
0.0000
 42
1.0000
  0
SEQEND
  8
0
  0
POLYLINE
  8
1
 66
1
 10
0.0000
 20
0.0000
 30
0.0000
 40
0.0000
 41
0.0000
 70
1
  0
VERTEX
  8
1
 10
12.6365
 20
15.1130
 30
0.0000
  0
VERTEX
  8
1
 10
12.6365
 20
14.6685
 30
0.0000
 42
1.0000
  0
VERTEX
  8
1
 10
13.1445
 20
14.6685
 30
0.0000
  0
VERTEX
  8
1
 10
13.1445
 20
15.1130
 30
0.0000
 42
1.0000
  0
SEQEND
  8
0
  0
POLYLINE
  8
1
 66
1
 10
0.0000
 20
0.0000
 30
0.0000
 40
0.0000
 41
0.0000
 70
1
  0
VERTEX
  8
1
 10
14.9334
 20
17.5151
 30
0.0000
  0
VERTEX
  8
1
 10
12.7109
 20
15.2926
 30
0.0000
 42
1.0000
  0
VERTEX
  8
1
 10
13.0701
 20
14.9334
 30
0.0000
  0
VERTEX
  8
1
 10
15.2926
 20
17.1559
 30
0.0000
 42
1.0000
  0
SEQEND
  8
0
  0
POLYLINE
  8
1
 66
1
 10
0.0000
 20
0.0000
 30
0.0000
 40
0.0000
 41
0.0000
 70
1
  0
VERTEX
  8
1
 10
11.5570
 20
13.5890
 30
0.0000
  0
VERTEX
  8
1
 10
11.4300
 20
13.5890
 30
0.0000
 42
1.0000
  0
VERTEX
  8
1
 10
11.4300
 20
13.0810
 30
0.0000
  0
VERTEX
  8
1
 10
11.5570
 20
13.0810
 30
0.0000
 42
1.0000
  0
SEQEND
  8
0
  0
POLYLINE
  8
1
 66
1
 10
0.0000
 20
0.0000
 30
0.0000
 40
0.0000
 41
0.0000
 70
1
  0
VERTEX
  8
1
 10
14.9017
 20
17.1946
 30
0.0000
  0
VERTEX
  8
1
 10
15.0287
 20
17.0041
 30
0.0000
 42
1.0000
  0
VERTEX
  8
1
 10
15.4513
 20
17.2859
 30
0.0000
  0
VERTEX
  8
1
 10
15.3243
 20
17.4764
 30
0.0000
 42
1.0000
  0
SEQEND
  8
0
  0
POLYLINE
  8
1
 66
1
 10
0.0000
 20
0.0000
 30
0.0000
 40
0.0000
 41
0.0000
 70
1
  0
VERTEX
  8
1
 10
16.0655
 20
17.3355
 30
0.0000
  0
VERTEX
  8
1
 10
16.0655
 20
19.5580
 30
0.0000
 42
1.0000
  0
VERTEX
  8
1
 10
15.0495
 20
19.5580
 30
0.0000
  0
VERTEX
  8
1
 10
15.0495
 20
17.3355
 30
0.0000
 42
1.0000
  0
SEQEND
  8
0
  0
POLYLINE
  8
1
 66
1
 10
0.0000
 20
0.0000
 30
0.0000
 40
0.0000
 41
0.0000
 70
1
  0
VERTEX
  8
1
 10
15.7462
 20
20.0297
 30
0.0000
  0
VERTEX
  8
1
 10
15.4287
 20
20.1567
 30
0.0000
 42
1.0000
  0
VERTEX
  8
1
 10
15.0513
 20
19.2133
 30
0.0000
  0
VERTEX
  8
1
 10
15.3688
 20
19.0863
 30
0.0000
 42
1.0000
  0
SEQEND
  8
0
  0
POLYLINE
  8
1
 66
1
 10
0.0000
 20
0.0000
 30
0.0000
 40
0.0000
 41
0.0000
 70
1
  0
VERTEX
  8
1
 10
15.5575
 20
16.8275
 30
0.0000
  0
VERTEX
  8
1
 10
19.5834
 20
16.8275
 30
0.0000
 42
1.0000
  0
VERTEX
  8
1
 10
19.5834
 20
17.8435
 30
0.0000
  0
VERTEX
  8
1
 10
15.5575
 20
17.8435
 30
0.0000
 42
1.0000
  0
SEQEND
  8
0
  0
POLYLINE
  8
1
 66
1
 10
0.0000
 20
0.0000
 30
0.0000
 40
0.0000
 41
0.0000
 70
1
  0
VERTEX
  8
1
 10
19.5834
 20
16.8275
 30
0.0000
  0
VERTEX
  8
1
 10
22.6695
 20
16.8275
 30
0.0000
 42
1.0000
  0
VERTEX
  8
1
 10
22.6695
 20
17.8435
 30
0.0000
  0
VERTEX
  8
1
 10
19.5834
 20
17.8435
 30
0.0000
 42
1.0000
  0
SEQEND
  8
0
  0
POLYLINE
  8
1
 66
1
 10
0.0000
 20
0.0000
 30
0.0000
 40
0.0000
 41
0.0000
 70
1
  0
VERTEX
  8
1
 10
22.4899
 20
17.1559
 30
0.0000
  0
VERTEX
  8
1
 10
22.6804
 20
16.9654
 30
0.0000
 42
1.0000
  0
VERTEX
  8
1
 10
23.0396
 20
17.3246
 30
0.0000
  0
VERTEX
  8
1
 10
22.8491
 20
17.5151
 30
0.0000
 42
1.0000
  0
SEQEND
  8
0
  0
POLYLINE
  8
1
 66
1
 10
0.0000
 20
0.0000
 30
0.0000
 40
0.0000
 41
0.0000
 70
1
  0
VERTEX
  8
1
 10
15.4268
 20
17.5533
 30
0.0000
  0
VERTEX
  8
1
 10
15.1093
 20
17.3628
 30
0.0000
 42
1.0000
  0
VERTEX
  8
1
 10
15.3707
 20
16.9272
 30
0.0000
  0
VERTEX
  8
1
 10
15.6882
 20
17.1177
 30
0.0000
 42
1.0000
  0
SEQEND
  8
0
  0
POLYLINE
  8
1
 66
1
 10
0.0000
 20
0.0000
 30
0.0000
 40
0.0000
 41
0.0000
 70
1
  0
VERTEX
  8
1
 10
19.0754
 20
17.3355
 30
0.0000
  0
VERTEX
  8
1
 10
19.0754
 20
4.2882
 30
0.0000
 42
1.0000
  0
VERTEX
  8
1
 10
20.0914
 20
4.2882
 30
0.0000
  0
VERTEX
  8
1
 10
20.0914
 20
17.3355
 30
0.0000
 42
1.0000
  0
SEQEND
  8
0
  0
POLYLINE
  8
1
 66
1
 10
0.0000
 20
0.0000
 30
0.0000
 40
0.0000
 41
0.0000
 70
1
  0
VERTEX
  8
1
 10
19.4396
 20
4.0788
 30
0.0000
  0
VERTEX
  8
1
 10
20.1362
 20
3.6006
 30
0.0000
 42
1.0000
  0
VERTEX
  8
1
 10
20.4238
 20
4.0194
 30
0.0000
  0
VERTEX
  8
1
 10
19.7272
 20
4.4976
 30
0.0000
 42
1.0000
  0
SEQEND
  8
0
  0
POLYLINE
  8
1
 66
1
 10
0.0000
 20
0.0000
 30
0.0000
 40
0.0000
 41
0.0000
 70
1
  0
VERTEX
  8
1
 10
13.3894
 20
38.0519
 30
0.0000
  0
VERTEX
  8
1
 10
14.9833
 20
39.6458
 30
0.0000
 42
1.0000
  0
VERTEX
  8
1
 10
14.2648
 20
40.3642
 30
0.0000
  0
VERTEX
  8
1
 10
12.6710
 20
38.7704
 30
0.0000
 42
1.0000
  0
SEQEND
  8
0
  0
POLYLINE
  8
1
 66
1
 10
0.0000
 20
0.0000
 30
0.0000
 40
0.0000
 41
0.0000
 70
1
  0
VERTEX
  8
1
 10
13.5382
 20
21.4313
 30
0.0000
  0
VERTEX
  8
1
 10
13.5382
 20
38.4111
 30
0.0000
 42
1.0000
  0
VERTEX
  8
1
 10
12.5222
 20
38.4111
 30
0.0000
  0
VERTEX
  8
1
 10
12.5222
 20
21.4313
 30
0.0000
 42
1.0000
  0
SEQEND
  8
0
  0
POLYLINE
  8
1
 66
1
 10
0.0000
 20
0.0000
 30
0.0000
 40
0.0000
 41
0.0000
 70
1
  0
VERTEX
  8
1
 10
15.3674
 20
19.8124
 30
0.0000
  0
VERTEX
  8
1
 10
13.3894
 20
21.7905
 30
0.0000
 42
1.0000
  0
VERTEX
  8
1
 10
12.6710
 20
21.0720
 30
0.0000
  0
VERTEX
  8
1
 10
14.6490
 20
19.0940
 30
0.0000
 42
1.0000
  0
SEQEND
  8
0
  0
POLYLINE
  8
1
 66
1
 10
0.0000
 20
0.0000
 30
0.0000
 40
0.0000
 41
0.0000
 70
1
  0
VERTEX
  8
1
 10
14.6241
 20
39.7510
 30
0.0000
  0
VERTEX
  8
1
 10
15.2400
 20
39.7510
 30
0.0000
 42
1.0000
  0
VERTEX
  8
1
 10
15.2400
 20
40.2590
 30
0.0000
  0
VERTEX
  8
1
 10
14.6241
 20
40.2590
 30
0.0000
 42
1.0000
  0
SEQEND
  8
0
  0
POLYLINE
  8
1
 66
1
 10
0.0000
 20
0.0000
 30
0.0000
 40
0.0000
 41
0.0000
 70
1
  0
VERTEX
  8
1
 10
15.1878
 20
19.2736
 30
0.0000
  0
VERTEX
  8
1
 10
15.4196
 20
19.5054
 30
0.0000
 42
1.0000
  0
VERTEX
  8
1
 10
15.0604
 20
19.8646
 30
0.0000
  0
VERTEX
  8
1
 10
14.8286
 20
19.6328
 30
0.0000
 42
1.0000
  0
SEQEND
  8
0
  0
POLYLINE
  8
1
 66
1
 10
0.0000
 20
0.0000
 30
0.0000
 40
0.0000
 41
0.0000
 70
1
  0
VERTEX
  8
1
 10
4.2545
 20
20.4470
 30
0.0000
  0
VERTEX
  8
1
 10
4.2545
 20
28.4480
 30
0.0000
 42
1.0000
  0
VERTEX
  8
1
 10
3.7465
 20
28.4480
 30
0.0000
  0
VERTEX
  8
1
 10
3.7465
 20
20.4470
 30
0.0000
 42
1.0000
  0
SEQEND
  8
0
  0
POLYLINE
  8
1
 66
1
 10
0.0000
 20
0.0000
 30
0.0000
 40
0.0000
 41
0.0000
 70
1
  0
VERTEX
  8
1
 10
11.2921
 20
13.5146
 30
0.0000
  0
VERTEX
  8
1
 10
4.1801
 20
20.6266
 30
0.0000
 42
1.0000
  0
VERTEX
  8
1
 10
3.8209
 20
20.2674
 30
0.0000
  0
VERTEX
  8
1
 10
10.9329
 20
13.1554
 30
0.0000
 42
1.0000
  0
SEQEND
  8
0
  0
POLYLINE
  8
1
 66
1
 10
0.0000
 20
0.0000
 30
0.0000
 40
0.0000
 41
0.0000
 70
1
  0
VERTEX
  8
1
 10
4.1414
 20
28.6593
 30
0.0000
  0
VERTEX
  8
1
 10
3.9509
 20
28.7863
 30
0.0000
 42
1.0000
  0
VERTEX
  8
1
 10
3.6691
 20
28.3637
 30
0.0000
  0
VERTEX
  8
1
 10
3.8596
 20
28.2367
 30
0.0000
 42
1.0000
  0
SEQEND
  8
0
  0
POLYLINE
  8
1
 66
1
 10
0.0000
 20
0.0000
 30
0.0000
 40
0.0000
 41
0.0000
 70
1
  0
VERTEX
  8
1
 10
11.1125
 20
13.0810
 30
0.0000
  0
VERTEX
  8
1
 10
11.4300
 20
13.0810
 30
0.0000
 42
1.0000
  0
VERTEX
  8
1
 10
11.4300
 20
13.5890
 30
0.0000
  0
VERTEX
  8
1
 10
11.1125
 20
13.5890
 30
0.0000
 42
1.0000
  0
SEQEND
  8
0
  0
POLYLINE
  8
1
 66
1
 10
0.0000
 20
0.0000
 30
0.0000
 40
0.0000
 41
0.0000
 70
1
  0
VERTEX
  8
1
 10
24.0030
 20
25.5270
 30
0.0000
  0
VERTEX
  8
1
 10
26.6700
 20
25.5270
 30
0.0000
 42
1.0000
  0
VERTEX
  8
1
 10
26.6700
 20
26.0350
 30
0.0000
  0
VERTEX
  8
1
 10
24.0030
 20
26.0350
 30
0.0000
 42
1.0000
  0
SEQEND
  8
0
  0
POLYLINE
  8
1
 66
1
 10
0.0000
 20
0.0000
 30
0.0000
 40
0.0000
 41
0.0000
 70
1
  0
VERTEX
  8
1
 10
23.2936
 20
24.7124
 30
0.0000
  0
VERTEX
  8
1
 10
24.1826
 20
25.6014
 30
0.0000
 42
1.0000
  0
VERTEX
  8
1
 10
23.8234
 20
25.9606
 30
0.0000
  0
VERTEX
  8
1
 10
22.9344
 20
25.0716
 30
0.0000
 42
1.0000
  0
SEQEND
  8
0
  0
POLYLINE
  8
1
 66
1
 10
0.0000
 20
0.0000
 30
0.0000
 40
0.0000
 41
0.0000
 70
1
  0
VERTEX
  8
1
 10
26.9240
 20
25.7810
 30
0.0000
  0
VERTEX
  8
1
 10
26.9240
 20
26.0350
 30
0.0000
 42
1.0000
  0
VERTEX
  8
1
 10
26.4160
 20
26.0350
 30
0.0000
  0
VERTEX
  8
1
 10
26.4160
 20
25.7810
 30
0.0000
 42
1.0000
  0
SEQEND
  8
0
  0
POLYLINE
  8
1
 66
1
 10
0.0000
 20
0.0000
 30
0.0000
 40
0.0000
 41
0.0000
 70
1
  0
VERTEX
  8
1
 10
23.0004
 20
25.1192
 30
0.0000
  0
VERTEX
  8
1
 10
22.7464
 20
24.9922
 30
0.0000
 42
1.0000
  0
VERTEX
  8
1
 10
22.9736
 20
24.5378
 30
0.0000
  0
VERTEX
  8
1
 10
23.2276
 20
24.6648
 30
0.0000
 42
1.0000
  0
SEQEND
  8
0
  0
POLYLINE
  8
1
 66
1
 10
0.0000
 20
0.0000
 30
0.0000
 40
0.0000
 41
0.0000
 70
1
  0
VERTEX
  8
1
 10
23.0396
 20
27.1254
 30
0.0000
  0
VERTEX
  8
1
 10
26.8496
 20
30.9354
 30
0.0000
 42
1.0000
  0
VERTEX
  8
1
 10
26.4904
 20
31.2946
 30
0.0000
  0
VERTEX
  8
1
 10
22.6804
 20
27.4846
 30
0.0000
 42
1.0000
  0
SEQEND
  8
0
  0
POLYLINE
  8
1
 66
1
 10
0.0000
 20
0.0000
 30
0.0000
 40
0.0000
 41
0.0000
 70
1
  0
VERTEX
  8
1
 10
29.0721
 20
31.2946
 30
0.0000
  0
VERTEX
  8
1
 10
26.8496
 20
33.5171
 30
0.0000
 42
1.0000
  0
VERTEX
  8
1
 10
26.4904
 20
33.1579
 30
0.0000
  0
VERTEX
  8
1
 10
28.7129
 20
30.9354
 30
0.0000
 42
1.0000
  0
SEQEND
  8
0
  0
POLYLINE
  8
1
 66
1
 10
0.0000
 20
0.0000
 30
0.0000
 40
0.0000
 41
0.0000
 70
1
  0
VERTEX
  8
1
 10
29.1465
 20
2.9210
 30
0.0000
  0
VERTEX
  8
1
 10
29.1465
 20
31.1150
 30
0.0000
 42
1.0000
  0
VERTEX
  8
1
 10
28.6385
 20
31.1150
 30
0.0000
  0
VERTEX
  8
1
 10
28.6385
 20
2.9210
 30
0.0000
 42
1.0000
  0
SEQEND
  8
0
  0
POLYLINE
  8
1
 66
1
 10
0.0000
 20
0.0000
 30
0.0000
 40
0.0000
 41
0.0000
 70
1
  0
VERTEX
  8
1
 10
24.6380
 20
2.6670
 30
0.0000
  0
VERTEX
  8
1
 10
28.8925
 20
2.6670
 30
0.0000
 42
1.0000
  0
VERTEX
  8
1
 10
28.8925
 20
3.1750
 30
0.0000
  0
VERTEX
  8
1
 10
24.6380
 20
3.1750
 30
0.0000
 42
1.0000
  0
SEQEND
  8
0
  0
POLYLINE
  8
1
 66
1
 10
0.0000
 20
0.0000
 30
0.0000
 40
0.0000
 41
0.0000
 70
1
  0
VERTEX
  8
1
 10
20.7119
 20
6.4879
 30
0.0000
  0
VERTEX
  8
1
 10
24.4584
 20
2.7414
 30
0.0000
 42
1.0000
  0
VERTEX
  8
1
 10
24.8176
 20
3.1006
 30
0.0000
  0
VERTEX
  8
1
 10
21.0711
 20
6.8471
 30
0.0000
 42
1.0000
  0
SEQEND
  8
0
  0
POLYLINE
  8
1
 66
1
 10
0.0000
 20
0.0000
 30
0.0000
 40
0.0000
 41
0.0000
 70
1
  0
VERTEX
  8
1
 10
20.6375
 20
10.2235
 30
0.0000
  0
VERTEX
  8
1
 10
20.6375
 20
6.6675
 30
0.0000
 42
1.0000
  0
VERTEX
  8
1
 10
21.1455
 20
6.6675
 30
0.0000
  0
VERTEX
  8
1
 10
21.1455
 20
10.2235
 30
0.0000
 42
1.0000
  0
SEQEND
  8
0
  0
POLYLINE
  8
1
 66
1
 10
0.0000
 20
0.0000
 30
0.0000
 40
0.0000
 41
0.0000
 70
1
  0
VERTEX
  8
1
 10
22.4899
 20
12.1811
 30
0.0000
  0
VERTEX
  8
1
 10
20.7119
 20
10.4031
 30
0.0000
 42
1.0000
  0
VERTEX
  8
1
 10
21.0711
 20
10.0439
 30
0.0000
  0
VERTEX
  8
1
 10
22.8491
 20
11.8219
 30
0.0000
 42
1.0000
  0
SEQEND
  8
0
  0
POLYLINE
  8
1
 66
1
 10
0.0000
 20
0.0000
 30
0.0000
 40
0.0000
 41
0.0000
 70
1
  0
VERTEX
  8
1
 10
26.9240
 20
33.3375
 30
0.0000
  0
VERTEX
  8
1
 10
26.9240
 20
33.6550
 30
0.0000
 42
1.0000
  0
VERTEX
  8
1
 10
26.4160
 20
33.6550
 30
0.0000
  0
VERTEX
  8
1
 10
26.4160
 20
33.3375
 30
0.0000
 42
1.0000
  0
SEQEND
  8
0
  0
POLYLINE
  8
1
 66
1
 10
0.0000
 20
0.0000
 30
0.0000
 40
0.0000
 41
0.0000
 70
1
  0
VERTEX
  8
1
 10
22.7498
 20
11.7605
 30
0.0000
  0
VERTEX
  8
1
 10
22.9403
 20
11.8240
 30
0.0000
 42
1.0000
  0
VERTEX
  8
1
 10
22.7797
 20
12.3060
 30
0.0000
  0
VERTEX
  8
1
 10
22.5892
 20
12.2425
 30
0.0000
 42
1.0000
  0
SEQEND
  8
0
  0
POLYLINE
  8
1
 66
1
 10
0.0000
 20
0.0000
 30
0.0000
 40
0.0000
 41
0.0000
 70
1
  0
VERTEX
  8
1
 10
25.0716
 20
34.0469
 30
0.0000
  0
VERTEX
  8
1
 10
26.8496
 20
35.8249
 30
0.0000
 42
1.0000
  0
VERTEX
  8
1
 10
26.4904
 20
36.1841
 30
0.0000
  0
VERTEX
  8
1
 10
24.7124
 20
34.4061
 30
0.0000
 42
1.0000
  0
SEQEND
  8
0
  0
POLYLINE
  8
1
 66
1
 10
0.0000
 20
0.0000
 30
0.0000
 40
0.0000
 41
0.0000
 70
1
  0
VERTEX
  8
1
 10
25.1460
 20
31.5595
 30
0.0000
  0
VERTEX
  8
1
 10
25.1460
 20
34.2265
 30
0.0000
 42
1.0000
  0
VERTEX
  8
1
 10
24.6380
 20
34.2265
 30
0.0000
  0
VERTEX
  8
1
 10
24.6380
 20
31.5595
 30
0.0000
 42
1.0000
  0
SEQEND
  8
0
  0
POLYLINE
  8
1
 66
1
 10
0.0000
 20
0.0000
 30
0.0000
 40
0.0000
 41
0.0000
 70
1
  0
VERTEX
  8
1
 10
24.1826
 20
30.4909
 30
0.0000
  0
VERTEX
  8
1
 10
25.0716
 20
31.3799
 30
0.0000
 42
1.0000
  0
VERTEX
  8
1
 10
24.7124
 20
31.7391
 30
0.0000
  0
VERTEX
  8
1
 10
23.8234
 20
30.8501
 30
0.0000
 42
1.0000
  0
SEQEND
  8
0
  0
POLYLINE
  8
1
 66
1
 10
0.0000
 20
0.0000
 30
0.0000
 40
0.0000
 41
0.0000
 70
1
  0
VERTEX
  8
1
 10
21.8504
 20
30.4165
 30
0.0000
  0
VERTEX
  8
1
 10
24.0030
 20
30.4165
 30
0.0000
 42
1.0000
  0
VERTEX
  8
1
 10
24.0030
 20
30.9245
 30
0.0000
  0
VERTEX
  8
1
 10
21.8504
 20
30.9245
 30
0.0000
 42
1.0000
  0
SEQEND
  8
0
  0
POLYLINE
  8
1
 66
1
 10
0.0000
 20
0.0000
 30
0.0000
 40
0.0000
 41
0.0000
 70
1
  0
VERTEX
  8
1
 10
17.6702
 20
34.4914
 30
0.0000
  0
VERTEX
  8
1
 10
21.6707
 20
30.4909
 30
0.0000
 42
1.0000
  0
VERTEX
  8
1
 10
22.0300
 20
30.8501
 30
0.0000
  0
VERTEX
  8
1
 10
18.0295
 20
34.8506
 30
0.0000
 42
1.0000
  0
SEQEND
  8
0
  0
POLYLINE
  8
1
 66
1
 10
0.0000
 20
0.0000
 30
0.0000
 40
0.0000
 41
0.0000
 70
1
  0
VERTEX
  8
1
 10
15.5575
 20
34.4170
 30
0.0000
  0
VERTEX
  8
1
 10
17.8498
 20
34.4170
 30
0.0000
 42
1.0000
  0
VERTEX
  8
1
 10
17.8498
 20
34.9250
 30
0.0000
  0
VERTEX
  8
1
 10
15.5575
 20
34.9250
 30
0.0000
 42
1.0000
  0
SEQEND
  8
0
  0
POLYLINE
  8
1
 66
1
 10
0.0000
 20
0.0000
 30
0.0000
 40
0.0000
 41
0.0000
 70
1
  0
VERTEX
  8
1
 10
26.9240
 20
36.0045
 30
0.0000
  0
VERTEX
  8
1
 10
26.9240
 20
36.1950
 30
0.0000
 42
1.0000
  0
VERTEX
  8
1
 10
26.4160
 20
36.1950
 30
0.0000
  0
VERTEX
  8
1
 10
26.4160
 20
36.0045
 30
0.0000
 42
1.0000
  0
SEQEND
  8
0
  0
POLYLINE
  8
1
 66
1
 10
0.0000
 20
0.0000
 30
0.0000
 40
0.0000
 41
0.0000
 70
1
  0
VERTEX
  8
1
 10
15.7162
 20
34.8693
 30
0.0000
  0
VERTEX
  8
1
 10
15.3987
 20
35.1233
 30
0.0000
 42
1.0000
  0
VERTEX
  8
1
 10
15.0813
 20
34.7267
 30
0.0000
  0
VERTEX
  8
1
 10
15.3988
 20
34.4727
 30
0.0000
 42
1.0000
  0
SEQEND
  8
0
  0
POLYLINE
  8
1
 66
1
 10
0.0000
 20
0.0000
 30
0.0000
 40
0.0000
 41
0.0000
 70
1
  0
VERTEX
  8
1
 10
29.0367
 20
46.7315
 30
0.0000
  0
VERTEX
  8
1
 10
26.4904
 20
44.1851
 30
0.0000
 42
1.0000
  0
VERTEX
  8
1
 10
26.8496
 20
43.8259
 30
0.0000
  0
VERTEX
  8
1
 10
29.3960
 20
46.3722
 30
0.0000
 42
1.0000
  0
SEQEND
  8
0
  0
POLYLINE
  8
1
 66
1
 10
0.0000
 20
0.0000
 30
0.0000
 40
0.0000
 41
0.0000
 70
1
  0
VERTEX
  8
1
 10
28.9624
 20
53.0352
 30
0.0000
  0
VERTEX
  8
1
 10
28.9624
 20
46.5519
 30
0.0000
 42
1.0000
  0
VERTEX
  8
1
 10
29.4704
 20
46.5519
 30
0.0000
  0
VERTEX
  8
1
 10
29.4704
 20
53.0352
 30
0.0000
 42
1.0000
  0
SEQEND
  8
0
  0
POLYLINE
  8
1
 66
1
 10
0.0000
 20
0.0000
 30
0.0000
 40
0.0000
 41
0.0000
 70
1
  0
VERTEX
  8
1
 10
27.2778
 20
54.6145
 30
0.0000
  0
VERTEX
  8
1
 10
29.0367
 20
52.8556
 30
0.0000
 42
1.0000
  0
VERTEX
  8
1
 10
29.3960
 20
53.2148
 30
0.0000
  0
VERTEX
  8
1
 10
27.6370
 20
54.9738
 30
0.0000
 42
1.0000
  0
SEQEND
  8
0
  0
POLYLINE
  8
1
 66
1
 10
0.0000
 20
0.0000
 30
0.0000
 40
0.0000
 41
0.0000
 70
1
  0
VERTEX
  8
1
 10
20.3645
 20
54.5402
 30
0.0000
  0
VERTEX
  8
1
 10
27.4574
 20
54.5402
 30
0.0000
 42
1.0000
  0
VERTEX
  8
1
 10
27.4574
 20
55.0481
 30
0.0000
  0
VERTEX
  8
1
 10
20.3645
 20
55.0481
 30
0.0000
 42
1.0000
  0
SEQEND
  8
0
  0
POLYLINE
  8
1
 66
1
 10
0.0000
 20
0.0000
 30
0.0000
 40
0.0000
 41
0.0000
 70
1
  0
VERTEX
  8
1
 10
17.5151
 20
51.5856
 30
0.0000
  0
VERTEX
  8
1
 10
20.5441
 20
54.6145
 30
0.0000
 42
1.0000
  0
VERTEX
  8
1
 10
20.1848
 20
54.9738
 30
0.0000
  0
VERTEX
  8
1
 10
17.1559
 20
51.9448
 30
0.0000
 42
1.0000
  0
SEQEND
  8
0
  0
POLYLINE
  8
1
 66
1
 10
0.0000
 20
0.0000
 30
0.0000
 40
0.0000
 41
0.0000
 70
1
  0
VERTEX
  8
1
 10
17.5895
 20
49.3395
 30
0.0000
  0
VERTEX
  8
1
 10
17.5895
 20
51.7652
 30
0.0000
 42
1.0000
  0
VERTEX
  8
1
 10
17.0815
 20
51.7652
 30
0.0000
  0
VERTEX
  8
1
 10
17.0815
 20
49.3395
 30
0.0000
 42
1.0000
  0
SEQEND
  8
0
  0
POLYLINE
  8
1
 66
1
 10
0.0000
 20
0.0000
 30
0.0000
 40
0.0000
 41
0.0000
 70
1
  0
VERTEX
  8
1
 10
15.7371
 20
47.3819
 30
0.0000
  0
VERTEX
  8
1
 10
17.5151
 20
49.1599
 30
0.0000
 42
1.0000
  0
VERTEX
  8
1
 10
17.1559
 20
49.5191
 30
0.0000
  0
VERTEX
  8
1
 10
15.3779
 20
47.7411
 30
0.0000
 42
1.0000
  0
SEQEND
  8
0
  0
POLYLINE
  8
1
 66
1
 10
0.0000
 20
0.0000
 30
0.0000
 40
0.0000
 41
0.0000
 70
1
  0
VERTEX
  8
1
 10
26.4160
 20
44.0055
 30
0.0000
  0
VERTEX
  8
1
 10
26.4160
 20
43.8150
 30
0.0000
 42
1.0000
  0
VERTEX
  8
1
 10
26.9240
 20
43.8150
 30
0.0000
  0
VERTEX
  8
1
 10
26.9240
 20
44.0055
 30
0.0000
 42
1.0000
  0
SEQEND
  8
0
  0
POLYLINE
  8
1
 66
1
 10
0.0000
 20
0.0000
 30
0.0000
 40
0.0000
 41
0.0000
 70
1
  0
VERTEX
  8
1
 10
15.6073
 20
47.8106
 30
0.0000
  0
VERTEX
  8
1
 10
15.2898
 20
47.8741
 30
0.0000
 42
1.0000
  0
VERTEX
  8
1
 10
15.1902
 20
47.3759
 30
0.0000
  0
VERTEX
  8
1
 10
15.5077
 20
47.3124
 30
0.0000
 42
1.0000
  0
SEQEND
  8
0
  0
POLYLINE
  8
1
 66
1
 10
0.0000
 20
0.0000
 30
0.0000
 40
0.0000
 41
0.0000
 70
1
  0
VERTEX
  8
1
 10
25.0716
 20
44.2704
 30
0.0000
  0
VERTEX
  8
1
 10
26.8496
 20
46.0484
 30
0.0000
 42
1.0000
  0
VERTEX
  8
1
 10
26.4904
 20
46.4076
 30
0.0000
  0
VERTEX
  8
1
 10
24.7124
 20
44.6296
 30
0.0000
 42
1.0000
  0
SEQEND
  8
0
  0
POLYLINE
  8
1
 66
1
 10
0.0000
 20
0.0000
 30
0.0000
 40
0.0000
 41
0.0000
 70
1
  0
VERTEX
  8
1
 10
25.1460
 20
36.8935
 30
0.0000
  0
VERTEX
  8
1
 10
25.1460
 20
44.4500
 30
0.0000
 42
1.0000
  0
VERTEX
  8
1
 10
24.6380
 20
44.4500
 30
0.0000
  0
VERTEX
  8
1
 10
24.6380
 20
36.8935
 30
0.0000
 42
1.0000
  0
SEQEND
  8
0
  0
POLYLINE
  8
1
 66
1
 10
0.0000
 20
0.0000
 30
0.0000
 40
0.0000
 41
0.0000
 70
1
  0
VERTEX
  8
1
 10
23.2936
 20
34.9359
 30
0.0000
  0
VERTEX
  8
1
 10
25.0716
 20
36.7139
 30
0.0000
 42
1.0000
  0
VERTEX
  8
1
 10
24.7124
 20
37.0731
 30
0.0000
  0
VERTEX
  8
1
 10
22.9344
 20
35.2951
 30
0.0000
 42
1.0000
  0
SEQEND
  8
0
  0
POLYLINE
  8
1
 66
1
 10
0.0000
 20
0.0000
 30
0.0000
 40
0.0000
 41
0.0000
 70
1
  0
VERTEX
  8
1
 10
26.9240
 20
46.2280
 30
0.0000
  0
VERTEX
  8
1
 10
26.9240
 20
46.3550
 30
0.0000
 42
1.0000
  0
VERTEX
  8
1
 10
26.4160
 20
46.3550
 30
0.0000
  0
VERTEX
  8
1
 10
26.4160
 20
46.2280
 30
0.0000
 42
1.0000
  0
SEQEND
  8
0
  0
POLYLINE
  8
1
 66
1
 10
0.0000
 20
0.0000
 30
0.0000
 40
0.0000
 41
0.0000
 70
1
  0
VERTEX
  8
1
 10
22.9616
 20
35.3187
 30
0.0000
  0
VERTEX
  8
1
 10
22.7076
 20
35.1282
 30
0.0000
 42
1.0000
  0
VERTEX
  8
1
 10
23.0124
 20
34.7218
 30
0.0000
  0
VERTEX
  8
1
 10
23.2664
 20
34.9123
 30
0.0000
 42
1.0000
  0
SEQEND
  8
0
  0
POLYLINE
  8
1
 66
1
 10
0.0000
 20
0.0000
 30
0.0000
 40
0.0000
 41
0.0000
 70
1
  0
VERTEX
  8
1
 10
20.5677
 20
29.2227
 30
0.0000
  0
VERTEX
  8
1
 10
20.5677
 20
18.8786
 30
0.0000
 42
1.0000
  0
VERTEX
  8
1
 10
21.0757
 20
18.8786
 30
0.0000
  0
VERTEX
  8
1
 10
21.0757
 20
29.2227
 30
0.0000
 42
1.0000
  0
SEQEND
  8
0
  0
POLYLINE
  8
1
 66
1
 10
0.0000
 20
0.0000
 30
0.0000
 40
0.0000
 41
0.0000
 70
1
  0
VERTEX
  8
1
 10
17.7210
 20
31.9641
 30
0.0000
  0
VERTEX
  8
1
 10
20.6420
 20
29.0431
 30
0.0000
 42
1.0000
  0
VERTEX
  8
1
 10
21.0013
 20
29.4023
 30
0.0000
  0
VERTEX
  8
1
 10
18.0803
 20
32.3233
 30
0.0000
 42
1.0000
  0
SEQEND
  8
0
  0
POLYLINE
  8
1
 66
1
 10
0.0000
 20
0.0000
 30
0.0000
 40
0.0000
 41
0.0000
 70
1
  0
VERTEX
  8
1
 10
5.9690
 20
40.0050
 30
0.0000
  0
VERTEX
  8
1
 10
5.9690
 20
36.4490
 30
0.0000
 42
1.0000
  0
VERTEX
  8
1
 10
6.4770
 20
36.4490
 30
0.0000
  0
VERTEX
  8
1
 10
6.4770
 20
40.0050
 30
0.0000
 42
1.0000
  0
SEQEND
  8
0
  0
POLYLINE
  8
1
 66
1
 10
0.0000
 20
0.0000
 30
0.0000
 40
0.0000
 41
0.0000
 70
1
  0
VERTEX
  8
1
 10
5.9958
 20
36.3354
 30
0.0000
  0
VERTEX
  8
1
 10
6.1228
 20
36.0814
 30
0.0000
 42
1.0000
  0
VERTEX
  8
1
 10
6.5772
 20
36.3086
 30
0.0000
  0
VERTEX
  8
1
 10
6.4502
 20
36.5626
 30
0.0000
 42
1.0000
  0
SEQEND
  8
0
  0
POLYLINE
  8
1
 66
1
 10
0.0000
 20
0.0000
 30
0.0000
 40
0.0000
 41
0.0000
 70
1
  0
VERTEX
  8
1
 10
6.2230
 20
39.7510
 30
0.0000
  0
VERTEX
  8
1
 10
6.3500
 20
39.7510
 30
0.0000
 42
1.0000
  0
VERTEX
  8
1
 10
6.3500
 20
40.2590
 30
0.0000
  0
VERTEX
  8
1
 10
6.2230
 20
40.2590
 30
0.0000
 42
1.0000
  0
SEQEND
  8
0
  0
POLYLINE
  8
1
 66
1
 10
0.0000
 20
0.0000
 30
0.0000
 40
0.0000
 41
0.0000
 70
1
  0
VERTEX
  8
1
 10
6.4879
 20
22.9344
 30
0.0000
  0
VERTEX
  8
1
 10
10.9329
 20
18.4894
 30
0.0000
 42
1.0000
  0
VERTEX
  8
1
 10
11.2921
 20
18.8486
 30
0.0000
  0
VERTEX
  8
1
 10
6.8471
 20
23.2936
 30
0.0000
 42
1.0000
  0
SEQEND
  8
0
  0
POLYLINE
  8
1
 66
1
 10
0.0000
 20
0.0000
 30
0.0000
 40
0.0000
 41
0.0000
 70
1
  0
VERTEX
  8
1
 10
6.4135
 20
28.4480
 30
0.0000
  0
VERTEX
  8
1
 10
6.4135
 20
23.1140
 30
0.0000
 42
1.0000
  0
VERTEX
  8
1
 10
6.9215
 20
23.1140
 30
0.0000
  0
VERTEX
  8
1
 10
6.9215
 20
28.4480
 30
0.0000
 42
1.0000
  0
SEQEND
  8
0
  0
POLYLINE
  8
1
 66
1
 10
0.0000
 20
0.0000
 30
0.0000
 40
0.0000
 41
0.0000
 70
1
  0
VERTEX
  8
1
 10
10.9538
 20
18.4707
 30
0.0000
  0
VERTEX
  8
1
 10
11.2713
 20
18.2167
 30
0.0000
 42
1.0000
  0
VERTEX
  8
1
 10
11.5887
 20
18.6133
 30
0.0000
  0
VERTEX
  8
1
 10
11.2712
 20
18.8673
 30
0.0000
 42
1.0000
  0
SEQEND
  8
0
  0
POLYLINE
  8
1
 66
1
 10
0.0000
 20
0.0000
 30
0.0000
 40
0.0000
 41
0.0000
 70
1
  0
VERTEX
  8
1
 10
6.7618
 20
28.6838
 30
0.0000
  0
VERTEX
  8
1
 10
6.4443
 20
28.8108
 30
0.0000
 42
1.0000
  0
VERTEX
  8
1
 10
6.2557
 20
28.3392
 30
0.0000
  0
VERTEX
  8
1
 10
6.5732
 20
28.2122
 30
0.0000
 42
1.0000
  0
SEQEND
  8
0
  0
POLYLINE
  8
1
 66
1
 10
0.0000
 20
0.0000
 30
0.0000
 40
0.0000
 41
0.0000
 70
1
  0
VERTEX
  8
1
 10
6.4770
 20
28.8925
 30
0.0000
  0
VERTEX
  8
1
 10
6.4770
 20
32.0040
 30
0.0000
 42
1.0000
  0
VERTEX
  8
1
 10
5.9690
 20
32.0040
 30
0.0000
  0
VERTEX
  8
1
 10
5.9690
 20
28.8925
 30
0.0000
 42
1.0000
  0
SEQEND
  8
0
  0
POLYLINE
  8
1
 66
1
 10
0.0000
 20
0.0000
 30
0.0000
 40
0.0000
 41
0.0000
 70
1
  0
VERTEX
  8
1
 10
6.4640
 20
31.9237
 30
0.0000
  0
VERTEX
  8
1
 10
6.5910
 20
32.3047
 30
0.0000
 42
1.0000
  0
VERTEX
  8
1
 10
6.1090
 20
32.4653
 30
0.0000
  0
VERTEX
  8
1
 10
5.9820
 20
32.0843
 30
0.0000
 42
1.0000
  0
SEQEND
  8
0
  0
POLYLINE
  8
1
 66
1
 10
0.0000
 20
0.0000
 30
0.0000
 40
0.0000
 41
0.0000
 70
1
  0
VERTEX
  8
1
 10
5.9872
 20
28.7982
 30
0.0000
  0
VERTEX
  8
1
 10
6.1142
 20
28.4807
 30
0.0000
 42
1.0000
  0
VERTEX
  8
1
 10
6.5858
 20
28.6693
 30
0.0000
  0
VERTEX
  8
1
 10
6.4588
 20
28.9868
 30
0.0000
 42
1.0000
  0
SEQEND
  8
0
  0
POLYLINE
  8
1
 66
1
 10
0.0000
 20
0.0000
 30
0.0000
 40
0.0000
 41
0.0000
 70
1
  0
VERTEX
  8
1
 10
6.4770
 20
32.4485
 30
0.0000
  0
VERTEX
  8
1
 10
6.4770
 20
36.0045
 30
0.0000
 42
1.0000
  0
VERTEX
  8
1
 10
5.9690
 20
36.0045
 30
0.0000
  0
VERTEX
  8
1
 10
5.9690
 20
32.4485
 30
0.0000
 42
1.0000
  0
SEQEND
  8
0
  0
POLYLINE
  8
1
 66
1
 10
0.0000
 20
0.0000
 30
0.0000
 40
0.0000
 41
0.0000
 70
1
  0
VERTEX
  8
1
 10
6.4343
 20
35.8636
 30
0.0000
  0
VERTEX
  8
1
 10
6.5613
 20
36.0541
 30
0.0000
 42
1.0000
  0
VERTEX
  8
1
 10
6.1387
 20
36.3359
 30
0.0000
  0
VERTEX
  8
1
 10
6.0117
 20
36.1454
 30
0.0000
 42
1.0000
  0
SEQEND
  8
0
  0
POLYLINE
  8
1
 66
1
 10
0.0000
 20
0.0000
 30
0.0000
 40
0.0000
 41
0.0000
 70
1
  0
VERTEX
  8
1
 10
6.1094
 20
32.2213
 30
0.0000
  0
VERTEX
  8
1
 10
6.2364
 20
32.1578
 30
0.0000
 42
1.0000
  0
VERTEX
  8
1
 10
6.4636
 20
32.6122
 30
0.0000
  0
VERTEX
  8
1
 10
6.3366
 20
32.6757
 30
0.0000
 42
1.0000
  0
SEQEND
  8
0
  0
POLYLINE
  8
1
 66
1
 10
0.0000
 20
0.0000
 30
0.0000
 40
0.0000
 41
0.0000
 70
1
  0
VERTEX
  8
1
 10
17.7210
 20
32.3233
 30
0.0000
  0
VERTEX
  8
1
 10
15.3779
 20
29.9802
 30
0.0000
 42
1.0000
  0
VERTEX
  8
1
 10
15.7371
 20
29.6209
 30
0.0000
  0
VERTEX
  8
1
 10
18.0803
 20
31.9641
 30
0.0000
 42
1.0000
  0
SEQEND
  8
0
  0
POLYLINE
  8
1
 66
1
 10
0.0000
 20
0.0000
 30
0.0000
 40
0.0000
 41
0.0000
 70
1
  0
VERTEX
  8
1
 10
15.8115
 20
28.8925
 30
0.0000
  0
VERTEX
  8
1
 10
15.8115
 20
29.8006
 30
0.0000
 42
1.0000
  0
VERTEX
  8
1
 10
15.3035
 20
29.8006
 30
0.0000
  0
VERTEX
  8
1
 10
15.3035
 20
28.8925
 30
0.0000
 42
1.0000
  0
SEQEND
  8
0
  0
INSERT
  8
18
  2
ROUNDV
 10
20.8217
 20
18.8786
 30
0.0000
 41
1.3000
 42
1.3000
 43
1.0000
 50
0.0000
  0
INSERT
  8
18
  2
ROUNDV
 10
20.8217
 20
18.8786
 30
0.0000
 41
1.3000
 42
1.3000
 43
1.0000
 50
0.0000
  0
INSERT
  8
18
  2
ROUNDV
 10
17.9007
 20
32.1437
 30
0.0000
 41
1.3000
 42
1.3000
 43
1.0000
 50
0.0000
  0
INSERT
  8
18
  2
ROUNDV
 10
17.9007
 20
32.1437
 30
0.0000
 41
1.3000
 42
1.3000
 43
1.0000
 50
0.0000
  0
INSERT
  8
18
  2
ROUNDV
 10
15.5575
 20
28.8925
 30
0.0000
 41
1.3000
 42
1.3000
 43
1.0000
 50
0.0000
  0
INSERT
  8
18
  2
ROUNDV
 10
15.5575
 20
28.8925
 30
0.0000
 41
1.3000
 42
1.3000
 43
1.0000
 50
0.0000
  0
POLYLINE
  8
1
 66
1
 10
0.0000
 20
0.0000
 30
0.0000
 40
0.0000
 41
0.0000
 70
1
  0
VERTEX
  8
1
 10
18.7325
 20
24.4475
 30
0.0000
  0
VERTEX
  8
1
 10
18.7325
 20
25.0952
 30
0.0000
 42
1.0000
  0
VERTEX
  8
1
 10
17.7165
 20
25.0952
 30
0.0000
  0
VERTEX
  8
1
 10
17.7165
 20
24.4475
 30
0.0000
 42
1.0000
  0
SEQEND
  8
0
  0
POLYLINE
  8
1
 66
1
 10
0.0000
 20
0.0000
 30
0.0000
 40
0.0000
 41
0.0000
 70
1
  0
VERTEX
  8
1
 10
18.5234
 20
25.5060
 30
0.0000
  0
VERTEX
  8
1
 10
15.6087
 20
27.6269
 30
0.0000
 42
1.0000
  0
VERTEX
  8
1
 10
15.0110
 20
26.8053
 30
0.0000
  0
VERTEX
  8
1
 10
17.9256
 20
24.6844
 30
0.0000
 42
1.0000
  0
SEQEND
  8
0
  0
POLYLINE
  8
1
 66
1
 10
0.0000
 20
0.0000
 30
0.0000
 40
0.0000
 41
0.0000
 70
1
  0
VERTEX
  8
1
 10
17.3065
 20
13.5600
 30
0.0000
  0
VERTEX
  8
1
 10
17.4906
 20
13.3758
 30
0.0000
 42
1.0000
  0
VERTEX
  8
1
 10
18.2091
 20
14.0943
 30
0.0000
  0
VERTEX
  8
1
 10
18.0249
 20
14.2784
 30
0.0000
 42
1.0000
  0
SEQEND
  8
0
  0
POLYLINE
  8
1
 66
1
 10
0.0000
 20
0.0000
 30
0.0000
 40
0.0000
 41
0.0000
 70
1
  0
VERTEX
  8
1
 10
17.3419
 20
13.7351
 30
0.0000
  0
VERTEX
  8
1
 10
17.3419
 20
6.2929
 30
0.0000
 42
1.0000
  0
VERTEX
  8
1
 10
18.3578
 20
6.2929
 30
0.0000
  0
VERTEX
  8
1
 10
18.3578
 20
13.7351
 30
0.0000
 42
1.0000
  0
SEQEND
  8
0
  0
POLYLINE
  8
1
 66
1
 10
0.0000
 20
0.0000
 30
0.0000
 40
0.0000
 41
0.0000
 70
1
  0
VERTEX
  8
1
 10
15.9167
 20
3.6413
 30
0.0000
  0
VERTEX
  8
1
 10
18.2091
 20
5.9336
 30
0.0000
 42
1.0000
  0
VERTEX
  8
1
 10
17.4906
 20
6.6521
 30
0.0000
  0
VERTEX
  8
1
 10
15.1983
 20
4.3597
 30
0.0000
 42
1.0000
  0
SEQEND
  8
0
  0
POLYLINE
  8
1
 66
1
 10
0.0000
 20
0.0000
 30
0.0000
 40
0.0000
 41
0.0000
 70
1
  0
VERTEX
  8
1
 10
15.5096
 20
27.3730
 30
0.0000
  0
VERTEX
  8
1
 10
15.4397
 20
27.4619
 30
0.0000
 42
1.0000
  0
VERTEX
  8
1
 10
15.0403
 20
27.1481
 30
0.0000
  0
VERTEX
  8
1
 10
15.1101
 20
27.0592
 30
0.0000
 42
1.0000
  0
SEQEND
  8
0
  0
POLYLINE
  8
1
 66
1
 10
0.0000
 20
0.0000
 30
0.0000
 40
0.0000
 41
0.0000
 70
1
  0
VERTEX
  8
1
 10
15.4137
 20
4.2099
 30
0.0000
  0
VERTEX
  8
1
 10
15.1362
 20
4.0194
 30
0.0000
 42
1.0000
  0
VERTEX
  8
1
 10
15.4238
 20
3.6006
 30
0.0000
  0
VERTEX
  8
1
 10
15.7013
 20
3.7911
 30
0.0000
 42
1.0000
  0
SEQEND
  8
0
  0
POLYLINE
  8
1
 66
1
 10
0.0000
 20
0.0000
 30
0.0000
 40
0.0000
 41
0.0000
 70
1
  0
VERTEX
  8
1
 10
15.2400
 20
50.6730
 30
0.0000
  0
VERTEX
  8
1
 10
14.1923
 20
50.6730
 30
0.0000
 42
1.0000
  0
VERTEX
  8
1
 10
14.1923
 20
49.6570
 30
0.0000
  0
VERTEX
  8
1
 10
15.2400
 20
49.6570
 30
0.0000
 42
1.0000
  0
SEQEND
  8
0
  0
POLYLINE
  8
1
 66
1
 10
0.0000
 20
0.0000
 30
0.0000
 40
0.0000
 41
0.0000
 70
1
  0
VERTEX
  8
1
 10
13.8330
 20
50.5242
 30
0.0000
  0
VERTEX
  8
1
 10
12.5630
 20
49.2542
 30
0.0000
 42
1.0000
  0
VERTEX
  8
1
 10
13.2815
 20
48.5358
 30
0.0000
  0
VERTEX
  8
1
 10
14.5515
 20
49.8058
 30
0.0000
 42
1.0000
  0
SEQEND
  8
0
  0
POLYLINE
  8
1
 66
1
 10
0.0000
 20
0.0000
 30
0.0000
 40
0.0000
 41
0.0000
 70
1
  0
VERTEX
  8
1
 10
12.9223
 20
49.4030
 30
0.0000
  0
VERTEX
  8
1
 10
9.1783
 20
49.4030
 30
0.0000
 42
1.0000
  0
VERTEX
  8
1
 10
9.1783
 20
48.3870
 30
0.0000
  0
VERTEX
  8
1
 10
12.9223
 20
48.3870
 30
0.0000
 42
1.0000
  0
SEQEND
  8
0
  0
POLYLINE
  8
1
 66
1
 10
0.0000
 20
0.0000
 30
0.0000
 40
0.0000
 41
0.0000
 70
1
  0
VERTEX
  8
1
 10
9.2960
 20
49.3892
 30
0.0000
  0
VERTEX
  8
1
 10
9.2426
 20
49.4019
 30
0.0000
 42
1.0000
  0
VERTEX
  8
1
 10
9.0073
 20
48.4135
 30
0.0000
  0
VERTEX
  8
1
 10
9.0606
 20
48.4008
 30
0.0000
 42
1.0000
  0
SEQEND
  8
0
  0
POLYLINE
  8
1
 66
1
 10
0.0000
 20
0.0000
 30
0.0000
 40
0.0000
 41
0.0000
 70
1
  0
VERTEX
  8
1
 10
1.9340
 20
40.9983
 30
0.0000
  0
VERTEX
  8
1
 10
9.4842
 20
48.5485
 30
0.0000
 42
1.0000
  0
VERTEX
  8
1
 10
8.7657
 20
49.2669
 30
0.0000
  0
VERTEX
  8
1
 10
1.2156
 20
41.7168
 30
0.0000
 42
1.0000
  0
SEQEND
  8
0
  0
POLYLINE
  8
1
 66
1
 10
0.0000
 20
0.0000
 30
0.0000
 40
0.0000
 41
0.0000
 70
1
  0
VERTEX
  8
1
 10
2.0828
 20
10.4267
 30
0.0000
  0
VERTEX
  8
1
 10
2.0828
 20
41.3576
 30
0.0000
 42
1.0000
  0
VERTEX
  8
1
 10
1.0668
 20
41.3576
 30
0.0000
  0
VERTEX
  8
1
 10
1.0668
 20
10.4267
 30
0.0000
 42
1.0000
  0
SEQEND
  8
0
  0
POLYLINE
  8
1
 66
1
 10
0.0000
 20
0.0000
 30
0.0000
 40
0.0000
 41
0.0000
 70
1
  0
VERTEX
  8
1
 10
8.9698
 20
3.7501
 30
0.0000
  0
VERTEX
  8
1
 10
1.9340
 20
10.7859
 30
0.0000
 42
1.0000
  0
VERTEX
  8
1
 10
1.2156
 20
10.0675
 30
0.0000
  0
VERTEX
  8
1
 10
8.2514
 20
3.0317
 30
0.0000
 42
1.0000
  0
SEQEND
  8
0
  0
POLYLINE
  8
1
 66
1
 10
0.0000
 20
0.0000
 30
0.0000
 40
0.0000
 41
0.0000
 70
1
  0
VERTEX
  8
1
 10
14.9208
 20
4.1692
 30
0.0000
  0
VERTEX
  8
1
 10
14.5017
 20
3.7501
 30
0.0000
 42
1.0000
  0
VERTEX
  8
1
 10
15.2201
 20
3.0317
 30
0.0000
  0
VERTEX
  8
1
 10
15.6392
 20
3.4508
 30
0.0000
 42
1.0000
  0
SEQEND
  8
0
  0
POLYLINE
  8
1
 66
1
 10
0.0000
 20
0.0000
 30
0.0000
 40
0.0000
 41
0.0000
 70
1
  0
VERTEX
  8
1
 10
14.8609
 20
3.8989
 30
0.0000
  0
VERTEX
  8
1
 10
8.6106
 20
3.8989
 30
0.0000
 42
1.0000
  0
VERTEX
  8
1
 10
8.6106
 20
2.8829
 30
0.0000
  0
VERTEX
  8
1
 10
14.8609
 20
2.8829
 30
0.0000
 42
1.0000
  0
SEQEND
  8
0
  0
INSERT
  8
18
  2
ROUNDV
 10
18.2245
 20
24.4475
 30
0.0000
 41
1.3000
 42
1.3000
 43
1.0000
 50
0.0000
  0
INSERT
  8
18
  2
ROUNDV
 10
18.2245
 20
24.4475
 30
0.0000
 41
1.3000
 42
1.3000
 43
1.0000
 50
0.0000
  0
INSERT
  8
18
  2
ROUNDV
 10
17.6657
 20
13.9192
 30
0.0000
 41
1.3000
 42
1.3000
 43
1.0000
 50
0.0000
  0
INSERT
  8
18
  2
ROUNDV
 10
17.6657
 20
13.9192
 30
0.0000
 41
1.3000
 42
1.3000
 43
1.0000
 50
0.0000
  0
POLYLINE
  8
1
 66
1
 10
0.0000
 20
0.0000
 30
0.0000
 40
0.0000
 41
0.0000
 70
1
  0
VERTEX
  8
1
 10
9.7790
 20
38.8620
 30
0.0000
  0
VERTEX
  8
1
 10
11.1125
 20
38.8620
 30
0.0000
 42
1.0000
  0
VERTEX
  8
1
 10
11.1125
 20
39.3700
 30
0.0000
  0
VERTEX
  8
1
 10
9.7790
 20
39.3700
 30
0.0000
 42
1.0000
  0
SEQEND
  8
0
  0
POLYLINE
  8
1
 66
1
 10
0.0000
 20
0.0000
 30
0.0000
 40
0.0000
 41
0.0000
 70
1
  0
VERTEX
  8
1
 10
8.7104
 20
39.8254
 30
0.0000
  0
VERTEX
  8
1
 10
9.5994
 20
38.9364
 30
0.0000
 42
1.0000
  0
VERTEX
  8
1
 10
9.9586
 20
39.2956
 30
0.0000
  0
VERTEX
  8
1
 10
9.0696
 20
40.1846
 30
0.0000
 42
1.0000
  0
SEQEND
  8
0
  0
POLYLINE
  8
1
 66
1
 10
0.0000
 20
0.0000
 30
0.0000
 40
0.0000
 41
0.0000
 70
1
  0
VERTEX
  8
1
 10
10.9174
 20
38.9534
 30
0.0000
  0
VERTEX
  8
1
 10
11.2349
 20
38.5724
 30
0.0000
 42
1.0000
  0
VERTEX
  8
1
 10
11.6251
 20
38.8976
 30
0.0000
  0
VERTEX
  8
1
 10
11.3076
 20
39.2786
 30
0.0000
 42
1.0000
  0
SEQEND
  8
0
  0
POLYLINE
  8
1
 66
1
 10
0.0000
 20
0.0000
 30
0.0000
 40
0.0000
 41
0.0000
 70
1
  0
VERTEX
  8
1
 10
15.2400
 20
15.1130
 30
0.0000
  0
VERTEX
  8
1
 10
14.7511
 20
15.1130
 30
0.0000
 42
1.0000
  0
VERTEX
  8
1
 10
14.7511
 20
14.0970
 30
0.0000
  0
VERTEX
  8
1
 10
15.2400
 20
14.0970
 30
0.0000
 42
1.0000
  0
SEQEND
  8
0
  0
POLYLINE
  8
1
 66
1
 10
0.0000
 20
0.0000
 30
0.0000
 40
0.0000
 41
0.0000
 70
1
  0
VERTEX
  8
1
 10
14.3918
 20
14.9642
 30
0.0000
  0
VERTEX
  8
1
 10
12.6456
 20
13.2180
 30
0.0000
 42
1.0000
  0
VERTEX
  8
1
 10
13.3640
 20
12.4995
 30
0.0000
  0
VERTEX
  8
1
 10
15.1103
 20
14.2458
 30
0.0000
 42
1.0000
  0
SEQEND
  8
0
  0
POLYLINE
  8
1
 66
1
 10
0.0000
 20
0.0000
 30
0.0000
 40
0.0000
 41
0.0000
 70
1
  0
VERTEX
  8
1
 10
12.4968
 20
12.8588
 30
0.0000
  0
VERTEX
  8
1
 10
12.4968
 20
9.3091
 30
0.0000
 42
1.0000
  0
VERTEX
  8
1
 10
13.5128
 20
9.3091
 30
0.0000
  0
VERTEX
  8
1
 10
13.5128
 20
12.8588
 30
0.0000
 42
1.0000
  0
SEQEND
  8
0
  0
POLYLINE
  8
1
 66
1
 10
0.0000
 20
0.0000
 30
0.0000
 40
0.0000
 41
0.0000
 70
1
  0
VERTEX
  8
1
 10
11.8839
 20
5.4039
 30
0.0000
  0
VERTEX
  8
1
 10
11.8839
 20
7.6802
 30
0.0000
 42
1.0000
  0
VERTEX
  8
1
 10
10.8679
 20
7.6802
 30
0.0000
  0
VERTEX
  8
1
 10
10.8679
 20
5.4039
 30
0.0000
 42
1.0000
  0
SEQEND
  8
0
  0
POLYLINE
  8
1
 66
1
 10
0.0000
 20
0.0000
 30
0.0000
 40
0.0000
 41
0.0000
 70
1
  0
VERTEX
  8
1
 10
12.6456
 20
9.6683
 30
0.0000
  0
VERTEX
  8
1
 10
11.0167
 20
8.0394
 30
0.0000
 42
1.0000
  0
VERTEX
  8
1
 10
11.7351
 20
7.3210
 30
0.0000
  0
VERTEX
  8
1
 10
13.3640
 20
8.9499
 30
0.0000
 42
1.0000
  0
SEQEND
  8
0
  0
INSERT
  8
18
  2
ROUNDV
 10
17.1450
 20
22.2250
 30
0.0000
 41
1.3000
 42
1.3000
 43
1.0000
 50
0.0000
  0
INSERT
  8
18
  2
ROUNDV
 10
17.1450
 20
22.2250
 30
0.0000
 41
1.3000
 42
1.3000
 43
1.0000
 50
0.0000
  0
INSERT
  8
18
  2
ROUNDV
 10
17.1450
 20
37.4650
 30
0.0000
 41
1.3000
 42
1.3000
 43
1.0000
 50
0.0000
  0
INSERT
  8
18
  2
ROUNDV
 10
17.1450
 20
37.4650
 30
0.0000
 41
1.3000
 42
1.3000
 43
1.0000
 50
0.0000
  0
POLYLINE
  8
1
 66
1
 10
0.0000
 20
0.0000
 30
0.0000
 40
0.0000
 41
0.0000
 70
1
  0
VERTEX
  8
1
 10
22.8600
 20
45.5930
 30
0.0000
  0
VERTEX
  8
1
 10
22.4790
 20
45.5930
 30
0.0000
 42
1.0000
  0
VERTEX
  8
1
 10
22.4790
 20
44.5770
 30
0.0000
  0
VERTEX
  8
1
 10
22.8600
 20
44.5770
 30
0.0000
 42
1.0000
  0
SEQEND
  8
0
  0
POLYLINE
  8
1
 66
1
 10
0.0000
 20
0.0000
 30
0.0000
 40
0.0000
 41
0.0000
 70
1
  0
VERTEX
  8
1
 10
22.8382
 20
45.4442
 30
0.0000
  0
VERTEX
  8
1
 10
20.9713
 20
47.3111
 30
0.0000
 42
1.0000
  0
VERTEX
  8
1
 10
20.2529
 20
46.5927
 30
0.0000
  0
VERTEX
  8
1
 10
22.1198
 20
44.7258
 30
0.0000
 42
1.0000
  0
SEQEND
  8
0
  0
POLYLINE
  8
1
 66
1
 10
0.0000
 20
0.0000
 30
0.0000
 40
0.0000
 41
0.0000
 70
1
  0
VERTEX
  8
1
 10
20.1041
 20
50.8381
 30
0.0000
  0
VERTEX
  8
1
 10
20.1041
 20
46.9519
 30
0.0000
 42
1.0000
  0
VERTEX
  8
1
 10
21.1201
 20
46.9519
 30
0.0000
  0
VERTEX
  8
1
 10
21.1201
 20
50.8381
 30
0.0000
 42
1.0000
  0
SEQEND
  8
0
  0
POLYLINE
  8
1
 66
1
 10
0.0000
 20
0.0000
 30
0.0000
 40
0.0000
 41
0.0000
 70
1
  0
VERTEX
  8
1
 10
21.4213
 20
52.3657
 30
0.0000
  0
VERTEX
  8
1
 10
20.2529
 20
51.1973
 30
0.0000
 42
1.0000
  0
VERTEX
  8
1
 10
20.9713
 20
50.4789
 30
0.0000
  0
VERTEX
  8
1
 10
22.1397
 20
51.6473
 30
0.0000
 42
1.0000
  0
SEQEND
  8
0
  0
POLYLINE
  8
1
 66
1
 10
0.0000
 20
0.0000
 30
0.0000
 40
0.0000
 41
0.0000
 70
1
  0
VERTEX
  8
1
 10
24.3671
 20
52.5145
 30
0.0000
  0
VERTEX
  8
1
 10
21.7805
 20
52.5145
 30
0.0000
 42
1.0000
  0
VERTEX
  8
1
 10
21.7805
 20
51.4985
 30
0.0000
  0
VERTEX
  8
1
 10
24.3671
 20
51.4985
 30
0.0000
 42
1.0000
  0
SEQEND
  8
0
  0
POLYLINE
  8
1
 66
1
 10
0.0000
 20
0.0000
 30
0.0000
 40
0.0000
 41
0.0000
 70
1
  0
VERTEX
  8
1
 10
24.1609
 20
51.5422
 30
0.0000
  0
VERTEX
  8
1
 10
25.4765
 20
50.9580
 30
0.0000
 42
1.0000
  0
VERTEX
  8
1
 10
25.8889
 20
51.8866
 30
0.0000
  0
VERTEX
  8
1
 10
24.5733
 20
52.4708
 30
0.0000
 42
1.0000
  0
SEQEND
  8
0
  0
POLYLINE
  8
1
 66
1
 10
0.0000
 20
0.0000
 30
0.0000
 40
0.0000
 41
0.0000
 70
1
  0
VERTEX
  8
1
 10
22.8600
 20
37.9730
 30
0.0000
  0
VERTEX
  8
1
 10
22.5425
 20
37.9730
 30
0.0000
 42
1.0000
  0
VERTEX
  8
1
 10
22.5425
 20
36.9570
 30
0.0000
  0
VERTEX
  8
1
 10
22.8600
 20
36.9570
 30
0.0000
 42
1.0000
  0
SEQEND
  8
0
  0
POLYLINE
  8
1
 66
1
 10
0.0000
 20
0.0000
 30
0.0000
 40
0.0000
 41
0.0000
 70
1
  0
VERTEX
  8
1
 10
22.9017
 20
37.8242
 30
0.0000
  0
VERTEX
  8
1
 10
19.4537
 20
41.2723
 30
0.0000
 42
1.0000
  0
VERTEX
  8
1
 10
18.7352
 20
40.5538
 30
0.0000
  0
VERTEX
  8
1
 10
22.1833
 20
37.1058
 30
0.0000
 42
1.0000
  0
SEQEND
  8
0
  0
POLYLINE
  8
1
 66
1
 10
0.0000
 20
0.0000
 30
0.0000
 40
0.0000
 41
0.0000
 70
1
  0
VERTEX
  8
1
 10
18.5865
 20
51.5620
 30
0.0000
  0
VERTEX
  8
1
 10
18.5865
 20
40.9131
 30
0.0000
 42
1.0000
  0
VERTEX
  8
1
 10
19.6025
 20
40.9131
 30
0.0000
  0
VERTEX
  8
1
 10
19.6025
 20
51.5620
 30
0.0000
 42
1.0000
  0
SEQEND
  8
0
  0
POLYLINE
  8
1
 66
1
 10
0.0000
 20
0.0000
 30
0.0000
 40
0.0000
 41
0.0000
 70
1
  0
VERTEX
  8
1
 10
20.7990
 20
53.9850
 30
0.0000
  0
VERTEX
  8
1
 10
18.7352
 20
51.9212
 30
0.0000
 42
1.0000
  0
VERTEX
  8
1
 10
19.4537
 20
51.2028
 30
0.0000
  0
VERTEX
  8
1
 10
21.5174
 20
53.2665
 30
0.0000
 42
1.0000
  0
SEQEND
  8
0
  0
POLYLINE
  8
1
 66
1
 10
0.0000
 20
0.0000
 30
0.0000
 40
0.0000
 41
0.0000
 70
1
  0
VERTEX
  8
1
 10
26.6019
 20
54.1338
 30
0.0000
  0
VERTEX
  8
1
 10
21.1582
 20
54.1338
 30
0.0000
 42
1.0000
  0
VERTEX
  8
1
 10
21.1582
 20
53.1178
 30
0.0000
  0
VERTEX
  8
1
 10
26.6019
 20
53.1178
 30
0.0000
 42
1.0000
  0
SEQEND
  8
0
  0
POLYLINE
  8
1
 66
1
 10
0.0000
 20
0.0000
 30
0.0000
 40
0.0000
 41
0.0000
 70
1
  0
VERTEX
  8
1
 10
28.0495
 20
52.8490
 30
0.0000
  0
VERTEX
  8
1
 10
26.9688
 20
53.9772
 30
0.0000
 42
1.0000
  0
VERTEX
  8
1
 10
26.2351
 20
53.2743
 30
0.0000
  0
VERTEX
  8
1
 10
27.3159
 20
52.1462
 30
0.0000
 42
1.0000
  0
SEQEND
  8
0
  0
POLYLINE
  8
1
 66
1
 10
0.0000
 20
0.0000
 30
0.0000
 40
0.0000
 41
0.0000
 70
1
  0
VERTEX
  8
1
 10
27.1747
 20
52.4976
 30
0.0000
  0
VERTEX
  8
1
 10
27.1747
 20
51.4223
 30
0.0000
 42
1.0000
  0
VERTEX
  8
1
 10
28.1907
 20
51.4223
 30
0.0000
  0
VERTEX
  8
1
 10
28.1907
 20
52.4976
 30
0.0000
 42
1.0000
  0
SEQEND
  8
0
  0
INSERT
  8
18
  2
ROUNDV
 10
24.7650
 20
14.6050
 30
0.0000
 41
1.3000
 42
1.3000
 43
1.0000
 50
0.0000
  0
INSERT
  8
18
  2
ROUNDV
 10
24.7650
 20
14.6050
 30
0.0000
 41
1.3000
 42
1.3000
 43
1.0000
 50
0.0000
  0
POLYLINE
  8
1
 66
1
 10
0.0000
 20
0.0000
 30
0.0000
 40
0.0000
 41
0.0000
 70
1
  0
VERTEX
  8
1
 10
8.8900
 20
36.1950
 30
0.0000
  0
VERTEX
  8
1
 10
11.1125
 20
36.1950
 30
0.0000
 42
1.0000
  0
VERTEX
  8
1
 10
11.1125
 20
36.7030
 30
0.0000
  0
VERTEX
  8
1
 10
8.8900
 20
36.7030
 30
0.0000
 42
1.0000
  0
SEQEND
  8
0
  0
POLYLINE
  8
1
 66
1
 10
0.0000
 20
0.0000
 30
0.0000
 40
0.0000
 41
0.0000
 70
1
  0
VERTEX
  8
1
 10
10.9538
 20
36.2507
 30
0.0000
  0
VERTEX
  8
1
 10
11.2713
 20
35.9967
 30
0.0000
 42
1.0000
  0
VERTEX
  8
1
 10
11.5887
 20
36.3933
 30
0.0000
  0
VERTEX
  8
1
 10
11.2712
 20
36.6473
 30
0.0000
 42
1.0000
  0
SEQEND
  8
0
  0
POLYLINE
  8
1
 66
1
 10
0.0000
 20
0.0000
 30
0.0000
 40
0.0000
 41
0.0000
 70
1
  0
VERTEX
  8
1
 10
8.6360
 20
36.4490
 30
0.0000
  0
VERTEX
  8
1
 10
8.6360
 20
36.1950
 30
0.0000
 42
1.0000
  0
VERTEX
  8
1
 10
9.1440
 20
36.1950
 30
0.0000
  0
VERTEX
  8
1
 10
9.1440
 20
36.4490
 30
0.0000
 42
1.0000
  0
SEQEND
  8
0
  0
POLYLINE
  8
1
 66
1
 10
0.0000
 20
0.0000
 30
0.0000
 40
0.0000
 41
0.0000
 70
1
  0
VERTEX
  8
1
 10
9.7790
 20
33.0835
 30
0.0000
  0
VERTEX
  8
1
 10
11.1125
 20
33.0835
 30
0.0000
 42
1.0000
  0
VERTEX
  8
1
 10
11.1125
 20
33.5915
 30
0.0000
  0
VERTEX
  8
1
 10
9.7790
 20
33.5915
 30
0.0000
 42
1.0000
  0
SEQEND
  8
0
  0
POLYLINE
  8
1
 66
1
 10
0.0000
 20
0.0000
 30
0.0000
 40
0.0000
 41
0.0000
 70
1
  0
VERTEX
  8
1
 10
9.0696
 20
32.2689
 30
0.0000
  0
VERTEX
  8
1
 10
9.9586
 20
33.1579
 30
0.0000
 42
1.0000
  0
VERTEX
  8
1
 10
9.5994
 20
33.5171
 30
0.0000
  0
VERTEX
  8
1
 10
8.7104
 20
32.6281
 30
0.0000
 42
1.0000
  0
SEQEND
  8
0
  0
POLYLINE
  8
1
 66
1
 10
0.0000
 20
0.0000
 30
0.0000
 40
0.0000
 41
0.0000
 70
1
  0
VERTEX
  8
1
 10
11.2921
 20
33.1579
 30
0.0000
  0
VERTEX
  8
1
 10
11.6096
 20
33.4754
 30
0.0000
 42
1.0000
  0
VERTEX
  8
1
 10
11.2504
 20
33.8346
 30
0.0000
  0
VERTEX
  8
1
 10
10.9329
 20
33.5171
 30
0.0000
 42
1.0000
  0
SEQEND
  8
0
  0
POLYLINE
  8
1
 66
1
 10
0.0000
 20
0.0000
 30
0.0000
 40
0.0000
 41
0.0000
 70
1
  0
VERTEX
  8
1
 10
8.6360
 20
32.4485
 30
0.0000
  0
VERTEX
  8
1
 10
8.6360
 20
32.3850
 30
0.0000
 42
1.0000
  0
VERTEX
  8
1
 10
9.1440
 20
32.3850
 30
0.0000
  0
VERTEX
  8
1
 10
9.1440
 20
32.4485
 30
0.0000
 42
1.0000
  0
SEQEND
  8
0
  0
POLYLINE
  8
1
 66
1
 10
0.0000
 20
0.0000
 30
0.0000
 40
0.0000
 41
0.0000
 70
1
  0
VERTEX
  8
1
 10
9.0696
 20
28.7129
 30
0.0000
  0
VERTEX
  8
1
 10
11.2921
 20
30.9354
 30
0.0000
 42
1.0000
  0
VERTEX
  8
1
 10
10.9329
 20
31.2946
 30
0.0000
  0
VERTEX
  8
1
 10
8.7104
 20
29.0721
 30
0.0000
 42
1.0000
  0
SEQEND
  8
0
  0
POLYLINE
  8
1
 66
1
 10
0.0000
 20
0.0000
 30
0.0000
 40
0.0000
 41
0.0000
 70
1
  0
VERTEX
  8
1
 10
11.1125
 20
30.8610
 30
0.0000
  0
VERTEX
  8
1
 10
11.4300
 20
30.8610
 30
0.0000
 42
1.0000
  0
VERTEX
  8
1
 10
11.4300
 20
31.3690
 30
0.0000
  0
VERTEX
  8
1
 10
11.1125
 20
31.3690
 30
0.0000
 42
1.0000
  0
SEQEND
  8
0
  0
POLYLINE
  8
1
 66
1
 10
0.0000
 20
0.0000
 30
0.0000
 40
0.0000
 41
0.0000
 70
1
  0
VERTEX
  8
1
 10
8.6360
 20
28.8925
 30
0.0000
  0
VERTEX
  8
1
 10
8.6360
 20
28.5750
 30
0.0000
 42
1.0000
  0
VERTEX
  8
1
 10
9.1440
 20
28.5750
 30
0.0000
  0
VERTEX
  8
1
 10
9.1440
 20
28.8925
 30
0.0000
 42
1.0000
  0
SEQEND
  8
0
  0
INSERT
  8
18
  2
ROUNDV
 10
9.6520
 20
7.4486
 30
0.0000
 41
1.3000
 42
1.3000
 43
1.0000
 50
0.0000
  0
INSERT
  8
18
  2
ROUNDV
 10
9.6520
 20
7.4486
 30
0.0000
 41
1.3000
 42
1.3000
 43
1.0000
 50
0.0000
  0
INSERT
  8
18
  2
ROUNDV
 10
26.3589
 20
7.6073
 30
0.0000
 41
1.3000
 42
1.3000
 43
1.0000
 50
0.0000
  0
INSERT
  8
18
  2
ROUNDV
 10
26.3589
 20
7.6073
 30
0.0000
 41
1.3000
 42
1.3000
 43
1.0000
 50
0.0000
  0
INSERT
  8
18
  2
ROUNDV
 10
11.6586
 20
50.8445
 30
0.0000
 41
1.3000
 42
1.3000
 43
1.0000
 50
0.0000
  0
INSERT
  8
18
  2
ROUNDV
 10
11.6586
 20
50.8445
 30
0.0000
 41
1.3000
 42
1.3000
 43
1.0000
 50
0.0000
  0
ENDSEC
  0
EOF
