M48
;GenerationSoftware,Autodesk,EAGLE,9.6.2*%
;CreationDate,2021-05-23T14:52:56Z*%
FMAT,2
ICI,OFF
METRIC,TZ,000.000
T8C0.200
T7C0.350
T6C0.800
T5C0.813
T4C0.900
T3C1.016
T2C1.778
T1C1.800
%
G90
M71
T1
X15280Y3810
X20280Y3810
T2
X26670Y48895
X11430Y48895
X26670Y8255
X11430Y8255
T3
X3810Y40005
X6350Y40005
X8890Y40005
X3810Y36195
X8890Y36195
X3810Y32385
X6350Y32385
X8890Y32385
X3810Y28575
X6350Y28575
X8890Y28575
X6350Y36195
T4
X12652Y52845
X10652Y52845
X24400Y5715
X26400Y5715
X9376Y5404
X11376Y5404
X25683Y51422
X27683Y51422
T5
X22860Y19685
X22860Y17145
X22860Y14605
X22860Y9525
X15240Y32385
X15240Y34925
X15240Y47625
X15240Y50165
X15240Y37465
X15240Y40005
X15240Y45085
X15240Y42545
X22860Y50165
X22860Y47625
X22860Y45085
X22860Y40005
X22860Y37465
X22860Y34925
X22860Y32385
X22860Y42545
X15240Y24765
X15240Y9525
X15240Y12065
X22860Y12065
X15240Y27305
X15240Y14605
X15240Y17145
X15240Y22225
X15240Y19685
X22860Y27305
X22860Y24765
X22860Y22225
T6
X26670Y46355
X26670Y20955
X26670Y18415
X26670Y15875
X26670Y13335
X26670Y10795
X11430Y10795
X11430Y13335
X11430Y15875
X11430Y18415
X11430Y46355
X11430Y43815
X11430Y41275
X11430Y38735
X11430Y36195
X11430Y33655
X11430Y31115
X11430Y28575
X11430Y26035
X11430Y20955
X26670Y28575
X26670Y43815
X26670Y41275
X26670Y38735
X26670Y36195
X26670Y33655
X26670Y31115
X26670Y26035
X11430Y23495
X26670Y23495
T7
X15557Y28892
X18225Y24447
X17666Y13919
X11659Y50844
X20822Y18879
X17901Y32144
T8
X17145Y22225
X17145Y37465
X24765Y14605
X9652Y7449
X26359Y7607
M30