G04 EAGLE Gerber RS-274X export*
G75*
%MOMM*%
%FSLAX34Y34*%
%LPD*%
%INCopper Layer 15*%
%IPPOS*%
%AMOC8*
5,1,8,0,0,1.08239X$1,22.5*%
G01*
%ADD10C,1.308000*%
%ADD11C,2.700000*%
%ADD12C,1.320800*%
%ADD13C,1.524000*%
%ADD14C,1.408000*%
%ADD15C,0.756400*%
%ADD16C,0.606400*%


D10*
X114300Y463550D03*
X114300Y438150D03*
X114300Y412750D03*
X114300Y387350D03*
X114300Y361950D03*
X114300Y336550D03*
X114300Y311150D03*
X114300Y285750D03*
X114300Y260350D03*
X114300Y234950D03*
X114300Y209550D03*
X114300Y184150D03*
X114300Y158750D03*
X114300Y133350D03*
X114300Y107950D03*
X266700Y107950D03*
X266700Y133350D03*
X266700Y158750D03*
X266700Y184150D03*
X266700Y209550D03*
X266700Y234950D03*
X266700Y260350D03*
X266700Y285750D03*
X266700Y311150D03*
X266700Y336550D03*
X266700Y361950D03*
X266700Y387350D03*
X266700Y412750D03*
X266700Y438150D03*
X266700Y463550D03*
D11*
X202800Y38100D03*
X152800Y38100D03*
D12*
X152400Y95250D03*
X152400Y120650D03*
X152400Y247650D03*
X152400Y273050D03*
X152400Y146050D03*
X152400Y171450D03*
X152400Y222250D03*
X152400Y196850D03*
X228600Y273050D03*
X228600Y247650D03*
X228600Y222250D03*
X228600Y196850D03*
X228600Y171450D03*
X228600Y146050D03*
X228600Y120650D03*
X228600Y95250D03*
X152400Y323850D03*
X152400Y349250D03*
X152400Y476250D03*
X152400Y501650D03*
X152400Y374650D03*
X152400Y400050D03*
X152400Y450850D03*
X152400Y425450D03*
X228600Y501650D03*
X228600Y476250D03*
X228600Y450850D03*
X228600Y425450D03*
X228600Y400050D03*
X228600Y374650D03*
X228600Y349250D03*
X228600Y323850D03*
D13*
X88900Y285750D03*
X63500Y285750D03*
X38100Y285750D03*
X88900Y323850D03*
X63500Y323850D03*
X38100Y323850D03*
X88900Y361950D03*
X63500Y361950D03*
X38100Y361950D03*
X88900Y400050D03*
X63500Y400050D03*
X38100Y400050D03*
D14*
X113759Y54039D03*
X93759Y54039D03*
X264000Y57150D03*
X244000Y57150D03*
X106523Y528447D03*
X126523Y528447D03*
X276827Y514223D03*
X256827Y514223D03*
D15*
X208217Y188786D03*
X179007Y321437D03*
X155575Y288925D03*
D16*
X171450Y222250D03*
X171450Y374650D03*
X247650Y146050D03*
D15*
X182245Y244475D03*
X176657Y139192D03*
D16*
X96520Y74486D03*
X263589Y76073D03*
D15*
X116586Y508445D03*
M02*
