G04 EAGLE Gerber RS-274X export*
G75*
%MOMM*%
%FSLAX34Y34*%
%LPD*%
%INTop Copper*%
%IPPOS*%
%AMOC8*
5,1,8,0,0,1.08239X$1,22.5*%
G01*
%ADD10R,1.308000X1.308000*%
%ADD11C,1.308000*%
%ADD12C,2.700000*%
%ADD13C,1.320800*%
%ADD14C,1.524000*%
%ADD15C,1.408000*%
%ADD16C,0.508000*%
%ADD17C,1.016000*%
%ADD18C,1.300000*%

G36*
X304635Y10164D02*
X304635Y10164D01*
X304669Y10162D01*
X304858Y10184D01*
X305049Y10201D01*
X305082Y10210D01*
X305116Y10214D01*
X305299Y10269D01*
X305483Y10319D01*
X305514Y10334D01*
X305547Y10344D01*
X305718Y10431D01*
X305890Y10513D01*
X305918Y10533D01*
X305949Y10548D01*
X306101Y10664D01*
X306256Y10775D01*
X306280Y10800D01*
X306307Y10820D01*
X306436Y10960D01*
X306570Y11097D01*
X306589Y11126D01*
X306613Y11152D01*
X306715Y11313D01*
X306822Y11470D01*
X306836Y11502D01*
X306854Y11531D01*
X306927Y11708D01*
X307004Y11882D01*
X307012Y11916D01*
X307025Y11948D01*
X307065Y12135D01*
X307111Y12320D01*
X307113Y12354D01*
X307120Y12388D01*
X307139Y12700D01*
X307139Y549150D01*
X307136Y549185D01*
X307138Y549219D01*
X307116Y549408D01*
X307099Y549599D01*
X307090Y549632D01*
X307086Y549666D01*
X307031Y549849D01*
X306981Y550033D01*
X306966Y550064D01*
X306956Y550097D01*
X306869Y550268D01*
X306787Y550440D01*
X306767Y550468D01*
X306752Y550499D01*
X306636Y550651D01*
X306525Y550806D01*
X306500Y550830D01*
X306480Y550857D01*
X306340Y550986D01*
X306203Y551120D01*
X306174Y551139D01*
X306148Y551163D01*
X305987Y551265D01*
X305830Y551372D01*
X305798Y551386D01*
X305769Y551404D01*
X305592Y551477D01*
X305418Y551554D01*
X305384Y551562D01*
X305352Y551575D01*
X305165Y551615D01*
X304980Y551661D01*
X304946Y551663D01*
X304912Y551670D01*
X304600Y551689D01*
X289171Y551689D01*
X289041Y551678D01*
X288911Y551676D01*
X288817Y551658D01*
X288722Y551649D01*
X288597Y551615D01*
X288469Y551590D01*
X288380Y551556D01*
X288288Y551531D01*
X288171Y551475D01*
X288049Y551428D01*
X287967Y551378D01*
X287881Y551337D01*
X287776Y551262D01*
X287664Y551194D01*
X287593Y551131D01*
X287515Y551075D01*
X287424Y550982D01*
X287327Y550896D01*
X287268Y550821D01*
X287201Y550753D01*
X287128Y550645D01*
X287048Y550543D01*
X287003Y550459D01*
X286949Y550380D01*
X286896Y550261D01*
X286835Y550146D01*
X286805Y550055D01*
X286767Y549968D01*
X286736Y549841D01*
X286696Y549718D01*
X286683Y549623D01*
X286660Y549530D01*
X286652Y549401D01*
X286634Y549272D01*
X286638Y549176D01*
X286632Y549081D01*
X286647Y548952D01*
X286653Y548822D01*
X286673Y548729D01*
X286684Y548634D01*
X286722Y548509D01*
X286750Y548382D01*
X286787Y548294D01*
X286815Y548203D01*
X286874Y548087D01*
X286924Y547967D01*
X286976Y547886D01*
X287019Y547801D01*
X287098Y547698D01*
X287168Y547589D01*
X287254Y547491D01*
X287291Y547443D01*
X287324Y547412D01*
X287375Y547354D01*
X299485Y535244D01*
X300800Y532070D01*
X300800Y463801D01*
X299485Y460626D01*
X280080Y441221D01*
X279975Y441095D01*
X279863Y440974D01*
X279831Y440923D01*
X279792Y440876D01*
X279710Y440733D01*
X279622Y440594D01*
X279598Y440538D01*
X279568Y440485D01*
X279513Y440330D01*
X279451Y440178D01*
X279438Y440118D01*
X279417Y440061D01*
X279391Y439898D01*
X279356Y439738D01*
X279351Y439661D01*
X279344Y439616D01*
X279345Y439555D01*
X279337Y439426D01*
X279337Y435636D01*
X277413Y430992D01*
X273667Y427246D01*
X273644Y427219D01*
X273618Y427196D01*
X273500Y427047D01*
X273378Y426900D01*
X273360Y426870D01*
X273339Y426843D01*
X273249Y426675D01*
X273154Y426509D01*
X273143Y426477D01*
X273126Y426446D01*
X273067Y426265D01*
X273003Y426085D01*
X272998Y426051D01*
X272987Y426018D01*
X272961Y425829D01*
X272930Y425641D01*
X272930Y425606D01*
X272926Y425572D01*
X272934Y425381D01*
X272936Y425190D01*
X272943Y425156D01*
X272944Y425122D01*
X272985Y424936D01*
X273022Y424748D01*
X273034Y424716D01*
X273042Y424682D01*
X273115Y424507D01*
X273184Y424328D01*
X273202Y424299D01*
X273215Y424267D01*
X273319Y424107D01*
X273418Y423944D01*
X273441Y423918D01*
X273460Y423889D01*
X273667Y423654D01*
X277413Y419908D01*
X279337Y415264D01*
X279337Y410236D01*
X277413Y405592D01*
X273667Y401846D01*
X273644Y401819D01*
X273618Y401796D01*
X273500Y401647D01*
X273378Y401500D01*
X273360Y401470D01*
X273339Y401443D01*
X273249Y401274D01*
X273154Y401109D01*
X273143Y401077D01*
X273126Y401046D01*
X273067Y400865D01*
X273003Y400685D01*
X272998Y400651D01*
X272987Y400618D01*
X272961Y400429D01*
X272930Y400241D01*
X272930Y400206D01*
X272926Y400172D01*
X272934Y399981D01*
X272936Y399790D01*
X272943Y399756D01*
X272944Y399722D01*
X272985Y399536D01*
X273022Y399348D01*
X273034Y399316D01*
X273042Y399282D01*
X273115Y399107D01*
X273184Y398928D01*
X273202Y398899D01*
X273215Y398867D01*
X273319Y398707D01*
X273418Y398544D01*
X273441Y398518D01*
X273460Y398489D01*
X273667Y398254D01*
X277413Y394508D01*
X279337Y389864D01*
X279337Y384836D01*
X277413Y380192D01*
X273667Y376446D01*
X273644Y376419D01*
X273618Y376396D01*
X273500Y376247D01*
X273378Y376100D01*
X273360Y376070D01*
X273339Y376043D01*
X273249Y375875D01*
X273154Y375709D01*
X273143Y375677D01*
X273126Y375646D01*
X273067Y375465D01*
X273003Y375285D01*
X272998Y375251D01*
X272987Y375218D01*
X272961Y375029D01*
X272930Y374841D01*
X272930Y374806D01*
X272926Y374772D01*
X272934Y374581D01*
X272936Y374390D01*
X272943Y374356D01*
X272944Y374322D01*
X272985Y374136D01*
X273022Y373948D01*
X273034Y373916D01*
X273042Y373882D01*
X273115Y373707D01*
X273184Y373528D01*
X273202Y373499D01*
X273215Y373467D01*
X273319Y373307D01*
X273418Y373144D01*
X273441Y373118D01*
X273460Y373089D01*
X273667Y372854D01*
X277413Y369108D01*
X279337Y364464D01*
X279337Y359436D01*
X277413Y354792D01*
X273667Y351046D01*
X273644Y351019D01*
X273618Y350996D01*
X273500Y350847D01*
X273378Y350700D01*
X273360Y350670D01*
X273339Y350643D01*
X273249Y350475D01*
X273154Y350309D01*
X273143Y350277D01*
X273126Y350246D01*
X273067Y350065D01*
X273003Y349885D01*
X272998Y349851D01*
X272987Y349818D01*
X272961Y349629D01*
X272930Y349441D01*
X272930Y349406D01*
X272926Y349372D01*
X272934Y349181D01*
X272936Y348990D01*
X272943Y348956D01*
X272944Y348922D01*
X272985Y348736D01*
X273022Y348548D01*
X273034Y348516D01*
X273042Y348482D01*
X273115Y348307D01*
X273184Y348128D01*
X273202Y348099D01*
X273215Y348067D01*
X273319Y347907D01*
X273418Y347744D01*
X273441Y347718D01*
X273460Y347689D01*
X273667Y347454D01*
X277413Y343708D01*
X279337Y339064D01*
X279337Y334004D01*
X279351Y333841D01*
X279358Y333676D01*
X279371Y333617D01*
X279377Y333556D01*
X279420Y333397D01*
X279456Y333237D01*
X279479Y333180D01*
X279495Y333121D01*
X279566Y332973D01*
X279629Y332821D01*
X279662Y332770D01*
X279689Y332715D01*
X279784Y332581D01*
X279874Y332443D01*
X279925Y332385D01*
X279951Y332349D01*
X279994Y332306D01*
X280080Y332209D01*
X296247Y316042D01*
X297562Y312868D01*
X297562Y27492D01*
X296247Y24318D01*
X293817Y21888D01*
X290643Y20573D01*
X244662Y20573D01*
X241488Y21888D01*
X221520Y41856D01*
X221394Y41961D01*
X221273Y42073D01*
X221222Y42105D01*
X221175Y42144D01*
X221032Y42226D01*
X220893Y42314D01*
X220837Y42338D01*
X220784Y42368D01*
X220629Y42423D01*
X220477Y42485D01*
X220417Y42498D01*
X220360Y42519D01*
X220197Y42545D01*
X220037Y42580D01*
X219960Y42585D01*
X219915Y42592D01*
X219854Y42591D01*
X219725Y42599D01*
X207299Y42599D01*
X207299Y55025D01*
X207285Y55188D01*
X207278Y55353D01*
X207265Y55412D01*
X207259Y55473D01*
X207216Y55632D01*
X207180Y55792D01*
X207157Y55849D01*
X207141Y55908D01*
X207070Y56056D01*
X207007Y56208D01*
X206974Y56259D01*
X206947Y56314D01*
X206852Y56448D01*
X206762Y56586D01*
X206711Y56644D01*
X206685Y56680D01*
X206642Y56723D01*
X206556Y56820D01*
X201593Y61783D01*
X200278Y64957D01*
X200278Y103953D01*
X201593Y107127D01*
X209060Y114595D01*
X209197Y114758D01*
X209334Y114918D01*
X209341Y114930D01*
X209349Y114940D01*
X209455Y115125D01*
X209562Y115307D01*
X209566Y115319D01*
X209573Y115331D01*
X209644Y115531D01*
X209717Y115730D01*
X209719Y115743D01*
X209723Y115755D01*
X209758Y115964D01*
X209795Y116173D01*
X209795Y116186D01*
X209797Y116199D01*
X209794Y116412D01*
X209793Y116623D01*
X209791Y116636D01*
X209791Y116650D01*
X209750Y116859D01*
X209712Y117066D01*
X209707Y117081D01*
X209705Y117092D01*
X209691Y117129D01*
X209611Y117362D01*
X209295Y118124D01*
X209295Y123176D01*
X211229Y127844D01*
X214939Y131554D01*
X214961Y131581D01*
X214987Y131604D01*
X215105Y131753D01*
X215228Y131900D01*
X215245Y131930D01*
X215267Y131957D01*
X215357Y132125D01*
X215451Y132291D01*
X215463Y132323D01*
X215479Y132354D01*
X215538Y132535D01*
X215602Y132715D01*
X215608Y132749D01*
X215618Y132782D01*
X215644Y132970D01*
X215676Y133159D01*
X215675Y133194D01*
X215680Y133228D01*
X215672Y133419D01*
X215669Y133610D01*
X215663Y133644D01*
X215661Y133678D01*
X215620Y133864D01*
X215584Y134052D01*
X215571Y134084D01*
X215564Y134118D01*
X215491Y134293D01*
X215422Y134472D01*
X215403Y134501D01*
X215390Y134533D01*
X215287Y134693D01*
X215188Y134856D01*
X215165Y134882D01*
X215146Y134911D01*
X214939Y135146D01*
X211229Y138856D01*
X209295Y143524D01*
X209295Y148576D01*
X211229Y153244D01*
X214802Y156817D01*
X218411Y158312D01*
X218438Y158326D01*
X218467Y158336D01*
X218638Y158431D01*
X218810Y158521D01*
X218834Y158539D01*
X218861Y158554D01*
X219013Y158677D01*
X219166Y158797D01*
X219187Y158819D01*
X219210Y158838D01*
X219338Y158987D01*
X219468Y159131D01*
X219484Y159157D01*
X219504Y159180D01*
X219603Y159348D01*
X219706Y159513D01*
X219717Y159541D01*
X219733Y159568D01*
X219800Y159750D01*
X219873Y159931D01*
X219879Y159961D01*
X219889Y159990D01*
X219924Y160181D01*
X219963Y160373D01*
X219964Y160403D01*
X219969Y160433D01*
X219969Y160627D01*
X219974Y160823D01*
X219969Y160853D01*
X219969Y160883D01*
X219935Y161074D01*
X219905Y161268D01*
X219895Y161297D01*
X219889Y161326D01*
X219822Y161509D01*
X219758Y161694D01*
X219744Y161720D01*
X219733Y161749D01*
X219634Y161917D01*
X219539Y162087D01*
X219520Y162110D01*
X219504Y162136D01*
X219377Y162284D01*
X219254Y162435D01*
X219231Y162455D01*
X219211Y162478D01*
X219060Y162601D01*
X218911Y162728D01*
X218885Y162743D01*
X218862Y162762D01*
X218592Y162921D01*
X217203Y163629D01*
X216039Y164475D01*
X215021Y165493D01*
X214175Y166657D01*
X213521Y167940D01*
X213206Y168911D01*
X228600Y168911D01*
X243994Y168911D01*
X243679Y167940D01*
X243025Y166657D01*
X242179Y165493D01*
X241161Y164475D01*
X239997Y163629D01*
X238608Y162921D01*
X238582Y162905D01*
X238554Y162893D01*
X238391Y162785D01*
X238226Y162682D01*
X238204Y162661D01*
X238178Y162644D01*
X238037Y162510D01*
X237893Y162379D01*
X237874Y162355D01*
X237852Y162334D01*
X237737Y162176D01*
X237618Y162022D01*
X237604Y161995D01*
X237586Y161970D01*
X237501Y161795D01*
X237411Y161622D01*
X237402Y161593D01*
X237389Y161566D01*
X237336Y161379D01*
X237278Y161192D01*
X237274Y161162D01*
X237266Y161133D01*
X237246Y160939D01*
X237223Y160745D01*
X237224Y160715D01*
X237221Y160685D01*
X237237Y160490D01*
X237247Y160296D01*
X237254Y160266D01*
X237256Y160236D01*
X237306Y160047D01*
X237351Y159857D01*
X237363Y159830D01*
X237370Y159800D01*
X237452Y159624D01*
X237530Y159444D01*
X237547Y159419D01*
X237560Y159392D01*
X237672Y159232D01*
X237780Y159070D01*
X237801Y159048D01*
X237818Y159023D01*
X237956Y158885D01*
X238091Y158745D01*
X238116Y158727D01*
X238137Y158705D01*
X238298Y158595D01*
X238455Y158480D01*
X238483Y158467D01*
X238508Y158449D01*
X238789Y158312D01*
X240591Y157566D01*
X240748Y157517D01*
X240902Y157460D01*
X240963Y157449D01*
X241021Y157431D01*
X241184Y157410D01*
X241346Y157382D01*
X241407Y157382D01*
X241467Y157374D01*
X241632Y157383D01*
X241796Y157383D01*
X241856Y157394D01*
X241917Y157397D01*
X242077Y157435D01*
X242239Y157464D01*
X242312Y157489D01*
X242356Y157499D01*
X242412Y157523D01*
X242535Y157566D01*
X245144Y158647D01*
X250156Y158647D01*
X250552Y158482D01*
X250631Y158458D01*
X250706Y158424D01*
X250845Y158391D01*
X250982Y158348D01*
X251064Y158337D01*
X251144Y158318D01*
X251286Y158309D01*
X251429Y158291D01*
X251511Y158295D01*
X251593Y158290D01*
X251735Y158307D01*
X251878Y158314D01*
X251958Y158333D01*
X252040Y158342D01*
X252178Y158384D01*
X252317Y158416D01*
X252392Y158449D01*
X252471Y158472D01*
X252599Y158537D01*
X252730Y158594D01*
X252799Y158639D01*
X252873Y158677D01*
X252986Y158763D01*
X253106Y158842D01*
X253166Y158899D01*
X253231Y158949D01*
X253328Y159054D01*
X253432Y159153D01*
X253481Y159219D01*
X253537Y159280D01*
X253613Y159401D01*
X253698Y159516D01*
X253734Y159590D01*
X253778Y159660D01*
X253833Y159792D01*
X253896Y159921D01*
X253918Y160000D01*
X253949Y160076D01*
X253979Y160216D01*
X254019Y160354D01*
X254027Y160436D01*
X254044Y160516D01*
X254059Y160762D01*
X254063Y160802D01*
X254062Y160813D01*
X254063Y160828D01*
X254063Y161264D01*
X255987Y165908D01*
X259542Y169463D01*
X263282Y171012D01*
X263286Y171014D01*
X263290Y171015D01*
X263484Y171118D01*
X263681Y171221D01*
X263685Y171223D01*
X263688Y171225D01*
X263860Y171359D01*
X264037Y171496D01*
X264040Y171500D01*
X264044Y171502D01*
X264191Y171667D01*
X264339Y171831D01*
X264341Y171834D01*
X264344Y171837D01*
X264462Y172028D01*
X264577Y172213D01*
X264579Y172217D01*
X264581Y172221D01*
X264659Y172420D01*
X264744Y172631D01*
X264744Y172636D01*
X264746Y172639D01*
X264789Y172855D01*
X264834Y173072D01*
X264834Y173077D01*
X264835Y173081D01*
X264839Y173302D01*
X264845Y173523D01*
X264844Y173527D01*
X264844Y173531D01*
X264810Y173745D01*
X264776Y173968D01*
X264774Y173972D01*
X264774Y173976D01*
X264701Y174184D01*
X264629Y174393D01*
X264627Y174397D01*
X264626Y174401D01*
X264519Y174591D01*
X264410Y174787D01*
X264407Y174790D01*
X264405Y174794D01*
X264266Y174962D01*
X264125Y175135D01*
X264121Y175138D01*
X264119Y175141D01*
X263954Y175281D01*
X263782Y175427D01*
X263779Y175430D01*
X263775Y175432D01*
X263588Y175541D01*
X263394Y175655D01*
X263390Y175656D01*
X263386Y175658D01*
X263286Y175698D01*
X261941Y176383D01*
X260784Y177224D01*
X259774Y178234D01*
X258933Y179391D01*
X258285Y180664D01*
X257977Y181611D01*
X266700Y181611D01*
X266734Y181614D01*
X266769Y181612D01*
X266958Y181634D01*
X267148Y181650D01*
X267182Y181660D01*
X267216Y181664D01*
X267399Y181719D01*
X267583Y181769D01*
X267614Y181784D01*
X267647Y181794D01*
X267818Y181881D01*
X267989Y181962D01*
X268017Y181983D01*
X268048Y181998D01*
X268200Y182113D01*
X268355Y182225D01*
X268379Y182249D01*
X268407Y182270D01*
X268407Y182271D01*
X268536Y182410D01*
X268669Y182547D01*
X268670Y182548D01*
X268689Y182576D01*
X268713Y182602D01*
X268815Y182763D01*
X268922Y182921D01*
X268936Y182952D01*
X268954Y182982D01*
X269027Y183158D01*
X269104Y183333D01*
X269112Y183366D01*
X269125Y183398D01*
X269166Y183585D01*
X269211Y183770D01*
X269213Y183804D01*
X269220Y183838D01*
X269239Y184150D01*
X269239Y194374D01*
X269236Y194409D01*
X269238Y194443D01*
X269216Y194632D01*
X269199Y194823D01*
X269190Y194856D01*
X269186Y194890D01*
X269131Y195073D01*
X269081Y195257D01*
X269066Y195288D01*
X269056Y195321D01*
X268969Y195492D01*
X268888Y195664D01*
X268867Y195692D01*
X268852Y195723D01*
X268736Y195875D01*
X268625Y196030D01*
X268601Y196054D01*
X268580Y196081D01*
X268440Y196210D01*
X268303Y196344D01*
X268274Y196363D01*
X268249Y196387D01*
X268088Y196489D01*
X267930Y196596D01*
X267898Y196610D01*
X267869Y196628D01*
X267692Y196701D01*
X267518Y196778D01*
X267484Y196786D01*
X267452Y196799D01*
X267266Y196839D01*
X267080Y196885D01*
X267046Y196887D01*
X267012Y196894D01*
X266700Y196913D01*
X266665Y196910D01*
X266631Y196912D01*
X266441Y196890D01*
X266251Y196873D01*
X266218Y196864D01*
X266184Y196860D01*
X266001Y196805D01*
X265817Y196755D01*
X265786Y196740D01*
X265753Y196730D01*
X265582Y196643D01*
X265410Y196561D01*
X265382Y196541D01*
X265351Y196526D01*
X265199Y196410D01*
X265044Y196299D01*
X265020Y196274D01*
X264992Y196254D01*
X264863Y196114D01*
X264730Y195977D01*
X264711Y195948D01*
X264687Y195922D01*
X264662Y195883D01*
X264610Y195996D01*
X264516Y196201D01*
X264513Y196205D01*
X264511Y196209D01*
X264387Y196387D01*
X264258Y196571D01*
X264255Y196574D01*
X264253Y196577D01*
X264097Y196732D01*
X263940Y196889D01*
X263937Y196892D01*
X263934Y196895D01*
X263750Y197022D01*
X263570Y197146D01*
X263567Y197148D01*
X263563Y197151D01*
X263282Y197288D01*
X259542Y198837D01*
X255987Y202392D01*
X254063Y207036D01*
X254063Y212064D01*
X255987Y216708D01*
X259733Y220454D01*
X259756Y220481D01*
X259782Y220504D01*
X259900Y220653D01*
X260022Y220800D01*
X260040Y220830D01*
X260061Y220857D01*
X260151Y221025D01*
X260246Y221191D01*
X260257Y221223D01*
X260274Y221254D01*
X260332Y221435D01*
X260397Y221615D01*
X260402Y221649D01*
X260413Y221682D01*
X260439Y221871D01*
X260470Y222059D01*
X260470Y222094D01*
X260474Y222128D01*
X260466Y222319D01*
X260464Y222509D01*
X260457Y222544D01*
X260456Y222578D01*
X260415Y222764D01*
X260378Y222952D01*
X260366Y222984D01*
X260358Y223018D01*
X260285Y223194D01*
X260216Y223372D01*
X260198Y223401D01*
X260185Y223433D01*
X260081Y223594D01*
X259982Y223756D01*
X259959Y223782D01*
X259940Y223811D01*
X259733Y224046D01*
X255987Y227792D01*
X254063Y232436D01*
X254063Y237464D01*
X255987Y242108D01*
X258717Y244838D01*
X258801Y244938D01*
X258892Y245031D01*
X258945Y245111D01*
X259006Y245184D01*
X259071Y245297D01*
X259144Y245404D01*
X259182Y245492D01*
X259230Y245575D01*
X259273Y245697D01*
X259326Y245816D01*
X259349Y245909D01*
X259381Y245999D01*
X259402Y246127D01*
X259433Y246254D01*
X259438Y246349D01*
X259454Y246443D01*
X259452Y246573D01*
X259460Y246703D01*
X259449Y246798D01*
X259448Y246894D01*
X259423Y247021D01*
X259408Y247150D01*
X259380Y247242D01*
X259362Y247336D01*
X259316Y247457D01*
X259278Y247581D01*
X259234Y247667D01*
X259200Y247756D01*
X259133Y247867D01*
X259074Y247983D01*
X259016Y248059D01*
X258966Y248140D01*
X258880Y248238D01*
X258802Y248341D01*
X258731Y248406D01*
X258668Y248478D01*
X258566Y248558D01*
X258470Y248647D01*
X258390Y248698D01*
X258315Y248757D01*
X258200Y248818D01*
X258091Y248888D01*
X258002Y248925D01*
X257918Y248970D01*
X257794Y249010D01*
X257674Y249059D01*
X257581Y249079D01*
X257490Y249109D01*
X257361Y249127D01*
X257234Y249154D01*
X257104Y249162D01*
X257044Y249170D01*
X256999Y249169D01*
X256922Y249173D01*
X250444Y249173D01*
X250409Y249170D01*
X250375Y249172D01*
X250186Y249150D01*
X249995Y249133D01*
X249962Y249124D01*
X249928Y249120D01*
X249745Y249065D01*
X249561Y249015D01*
X249530Y249000D01*
X249497Y248990D01*
X249326Y248903D01*
X249154Y248821D01*
X249126Y248801D01*
X249095Y248786D01*
X248943Y248670D01*
X248788Y248559D01*
X248764Y248534D01*
X248737Y248514D01*
X248608Y248374D01*
X248474Y248237D01*
X248455Y248208D01*
X248431Y248182D01*
X248329Y248021D01*
X248222Y247864D01*
X248208Y247832D01*
X248190Y247803D01*
X248117Y247626D01*
X248040Y247452D01*
X248032Y247418D01*
X248019Y247386D01*
X247979Y247199D01*
X247933Y247014D01*
X247931Y246980D01*
X247924Y246946D01*
X247905Y246634D01*
X247905Y245124D01*
X245971Y240456D01*
X242261Y236746D01*
X242239Y236719D01*
X242213Y236696D01*
X242095Y236547D01*
X241972Y236400D01*
X241955Y236370D01*
X241933Y236343D01*
X241843Y236175D01*
X241749Y236009D01*
X241737Y235977D01*
X241721Y235946D01*
X241662Y235765D01*
X241598Y235585D01*
X241592Y235551D01*
X241582Y235518D01*
X241556Y235329D01*
X241525Y235141D01*
X241525Y235106D01*
X241520Y235072D01*
X241528Y234881D01*
X241531Y234691D01*
X241537Y234656D01*
X241539Y234622D01*
X241580Y234435D01*
X241616Y234248D01*
X241629Y234216D01*
X241636Y234182D01*
X241710Y234006D01*
X241778Y233828D01*
X241796Y233799D01*
X241810Y233767D01*
X241913Y233606D01*
X242012Y233444D01*
X242035Y233418D01*
X242054Y233389D01*
X242261Y233154D01*
X245971Y229444D01*
X247905Y224776D01*
X247905Y219724D01*
X245971Y215056D01*
X242398Y211483D01*
X238789Y209988D01*
X238762Y209974D01*
X238733Y209964D01*
X238562Y209869D01*
X238390Y209779D01*
X238366Y209761D01*
X238339Y209746D01*
X238187Y209623D01*
X238034Y209503D01*
X238013Y209481D01*
X237990Y209462D01*
X237862Y209313D01*
X237732Y209169D01*
X237716Y209143D01*
X237696Y209120D01*
X237597Y208952D01*
X237494Y208787D01*
X237483Y208759D01*
X237467Y208732D01*
X237400Y208550D01*
X237327Y208369D01*
X237321Y208339D01*
X237311Y208310D01*
X237276Y208119D01*
X237237Y207927D01*
X237236Y207897D01*
X237231Y207867D01*
X237231Y207673D01*
X237226Y207477D01*
X237231Y207447D01*
X237231Y207417D01*
X237265Y207226D01*
X237295Y207032D01*
X237305Y207003D01*
X237311Y206974D01*
X237378Y206791D01*
X237442Y206606D01*
X237456Y206580D01*
X237467Y206551D01*
X237566Y206383D01*
X237661Y206213D01*
X237680Y206190D01*
X237696Y206164D01*
X237823Y206016D01*
X237946Y205865D01*
X237969Y205845D01*
X237989Y205822D01*
X238140Y205699D01*
X238289Y205572D01*
X238315Y205557D01*
X238338Y205538D01*
X238608Y205379D01*
X239997Y204671D01*
X241161Y203825D01*
X242179Y202807D01*
X243025Y201643D01*
X243679Y200360D01*
X243994Y199389D01*
X228600Y199389D01*
X228566Y199386D01*
X228531Y199388D01*
X228342Y199366D01*
X228152Y199349D01*
X228118Y199340D01*
X228084Y199336D01*
X227901Y199281D01*
X227717Y199231D01*
X227686Y199216D01*
X227653Y199206D01*
X227482Y199119D01*
X227311Y199038D01*
X227283Y199017D01*
X227252Y199002D01*
X227100Y198886D01*
X226945Y198775D01*
X226944Y198775D01*
X226920Y198750D01*
X226893Y198730D01*
X226893Y198729D01*
X226892Y198729D01*
X226763Y198589D01*
X226630Y198452D01*
X226611Y198424D01*
X226587Y198398D01*
X226485Y198237D01*
X226378Y198079D01*
X226364Y198048D01*
X226345Y198018D01*
X226273Y197842D01*
X226196Y197667D01*
X226188Y197634D01*
X226175Y197602D01*
X226134Y197415D01*
X226089Y197230D01*
X226087Y197196D01*
X226080Y197162D01*
X226061Y196850D01*
X226061Y187705D01*
X223100Y187705D01*
X222889Y187686D01*
X222678Y187670D01*
X222665Y187667D01*
X222652Y187665D01*
X222447Y187609D01*
X222242Y187556D01*
X222230Y187550D01*
X222217Y187547D01*
X222027Y187456D01*
X221834Y187367D01*
X221823Y187359D01*
X221811Y187353D01*
X221639Y187230D01*
X221465Y187108D01*
X221456Y187099D01*
X221445Y187091D01*
X221297Y186939D01*
X221147Y186789D01*
X221140Y186778D01*
X221131Y186769D01*
X221012Y186593D01*
X220892Y186419D01*
X220885Y186404D01*
X220879Y186396D01*
X220863Y186359D01*
X220754Y186138D01*
X219913Y184106D01*
X219888Y184027D01*
X219855Y183952D01*
X219821Y183813D01*
X219778Y183676D01*
X219767Y183594D01*
X219748Y183514D01*
X219739Y183372D01*
X219721Y183229D01*
X219725Y183147D01*
X219720Y183065D01*
X219737Y182923D01*
X219744Y182780D01*
X219763Y182700D01*
X219772Y182618D01*
X219814Y182480D01*
X219846Y182341D01*
X219879Y182266D01*
X219903Y182187D01*
X219968Y182059D01*
X220024Y181928D01*
X220070Y181859D01*
X220107Y181785D01*
X220193Y181672D01*
X220272Y181552D01*
X220329Y181492D01*
X220379Y181427D01*
X220484Y181330D01*
X220583Y181226D01*
X220650Y181177D01*
X220710Y181121D01*
X220831Y181045D01*
X220946Y180960D01*
X221020Y180924D01*
X221090Y180880D01*
X221222Y180825D01*
X221351Y180762D01*
X221430Y180740D01*
X221507Y180709D01*
X221646Y180679D01*
X221784Y180639D01*
X221866Y180631D01*
X221947Y180614D01*
X222193Y180599D01*
X222232Y180595D01*
X222243Y180596D01*
X222259Y180595D01*
X226061Y180595D01*
X226061Y173989D01*
X213022Y173989D01*
X213004Y174149D01*
X213002Y174157D01*
X213001Y174166D01*
X212938Y174374D01*
X212877Y174581D01*
X212873Y174589D01*
X212871Y174597D01*
X212772Y174790D01*
X212675Y174984D01*
X212670Y174990D01*
X212666Y174998D01*
X212536Y175169D01*
X212406Y175344D01*
X212399Y175350D01*
X212394Y175357D01*
X212235Y175503D01*
X212077Y175652D01*
X212070Y175656D01*
X212063Y175662D01*
X211880Y175779D01*
X211699Y175896D01*
X211691Y175899D01*
X211683Y175904D01*
X211483Y175986D01*
X211283Y176070D01*
X211275Y176072D01*
X211267Y176075D01*
X211054Y176121D01*
X210844Y176167D01*
X210835Y176168D01*
X210827Y176170D01*
X210515Y176189D01*
X205711Y176189D01*
X201081Y178106D01*
X197537Y181650D01*
X195620Y186280D01*
X195620Y191291D01*
X197537Y195921D01*
X198836Y197220D01*
X198942Y197346D01*
X199053Y197467D01*
X199086Y197518D01*
X199125Y197565D01*
X199206Y197708D01*
X199295Y197846D01*
X199318Y197903D01*
X199348Y197956D01*
X199403Y198111D01*
X199466Y198263D01*
X199479Y198323D01*
X199499Y198380D01*
X199526Y198542D01*
X199561Y198703D01*
X199565Y198780D01*
X199573Y198824D01*
X199572Y198885D01*
X199580Y199015D01*
X199580Y240642D01*
X199564Y240819D01*
X199555Y240997D01*
X199544Y241043D01*
X199540Y241091D01*
X199493Y241262D01*
X199453Y241435D01*
X199434Y241479D01*
X199421Y241525D01*
X199345Y241686D01*
X199275Y241849D01*
X199248Y241889D01*
X199228Y241932D01*
X199125Y242076D01*
X199027Y242224D01*
X198994Y242259D01*
X198966Y242298D01*
X198838Y242422D01*
X198716Y242550D01*
X198677Y242579D01*
X198643Y242612D01*
X198496Y242711D01*
X198353Y242816D01*
X198310Y242837D01*
X198270Y242864D01*
X198108Y242936D01*
X197948Y243014D01*
X197902Y243027D01*
X197858Y243046D01*
X197686Y243088D01*
X197515Y243137D01*
X197467Y243142D01*
X197421Y243153D01*
X197244Y243164D01*
X197067Y243182D01*
X197019Y243178D01*
X196971Y243181D01*
X196795Y243160D01*
X196618Y243146D01*
X196572Y243134D01*
X196524Y243129D01*
X196354Y243077D01*
X196182Y243032D01*
X196139Y243012D01*
X196093Y242998D01*
X195935Y242918D01*
X195774Y242843D01*
X195735Y242816D01*
X195692Y242794D01*
X195551Y242687D01*
X195405Y242585D01*
X195371Y242551D01*
X195333Y242522D01*
X195213Y242392D01*
X195088Y242265D01*
X195060Y242226D01*
X195028Y242191D01*
X194933Y242041D01*
X194832Y241895D01*
X194806Y241842D01*
X194786Y241811D01*
X194762Y241753D01*
X194695Y241614D01*
X192924Y237340D01*
X189380Y233796D01*
X184737Y231873D01*
X184732Y231873D01*
X184591Y231851D01*
X184448Y231838D01*
X184369Y231817D01*
X184287Y231804D01*
X184152Y231758D01*
X184014Y231720D01*
X183939Y231684D01*
X183862Y231658D01*
X183736Y231588D01*
X183607Y231526D01*
X183540Y231479D01*
X183468Y231438D01*
X183357Y231348D01*
X183241Y231264D01*
X183184Y231205D01*
X183120Y231153D01*
X183027Y231044D01*
X182927Y230942D01*
X182881Y230873D01*
X182827Y230811D01*
X182755Y230687D01*
X182675Y230569D01*
X182642Y230493D01*
X182600Y230422D01*
X182551Y230288D01*
X182493Y230157D01*
X182473Y230077D01*
X182445Y229999D01*
X182420Y229858D01*
X182386Y229719D01*
X182381Y229637D01*
X182367Y229556D01*
X182367Y229413D01*
X182358Y229270D01*
X182368Y229188D01*
X182368Y229106D01*
X182394Y228965D01*
X182410Y228823D01*
X182434Y228744D01*
X182449Y228663D01*
X182529Y228430D01*
X182541Y228392D01*
X182546Y228382D01*
X182551Y228367D01*
X184047Y224756D01*
X184047Y219744D01*
X182129Y215115D01*
X178585Y211571D01*
X173956Y209653D01*
X168944Y209653D01*
X166335Y210734D01*
X166178Y210784D01*
X166023Y210840D01*
X165963Y210851D01*
X165905Y210869D01*
X165742Y210890D01*
X165580Y210918D01*
X165519Y210918D01*
X165458Y210926D01*
X165294Y210917D01*
X165130Y210917D01*
X165070Y210906D01*
X165009Y210903D01*
X164849Y210865D01*
X164687Y210836D01*
X164614Y210811D01*
X164570Y210801D01*
X164514Y210777D01*
X164391Y210734D01*
X162589Y209988D01*
X162562Y209974D01*
X162533Y209964D01*
X162363Y209870D01*
X162190Y209779D01*
X162166Y209761D01*
X162139Y209746D01*
X161988Y209623D01*
X161834Y209503D01*
X161813Y209481D01*
X161790Y209462D01*
X161663Y209314D01*
X161532Y209169D01*
X161516Y209143D01*
X161496Y209120D01*
X161397Y208952D01*
X161294Y208787D01*
X161283Y208759D01*
X161267Y208733D01*
X161199Y208550D01*
X161127Y208369D01*
X161121Y208339D01*
X161111Y208310D01*
X161076Y208119D01*
X161037Y207927D01*
X161037Y207897D01*
X161031Y207867D01*
X161031Y207672D01*
X161026Y207477D01*
X161031Y207447D01*
X161031Y207417D01*
X161066Y207225D01*
X161095Y207032D01*
X161105Y207004D01*
X161111Y206974D01*
X161178Y206791D01*
X161242Y206606D01*
X161257Y206580D01*
X161267Y206552D01*
X161366Y206384D01*
X161461Y206213D01*
X161480Y206190D01*
X161496Y206164D01*
X161623Y206016D01*
X161746Y205865D01*
X161769Y205845D01*
X161789Y205822D01*
X161941Y205699D01*
X162089Y205572D01*
X162115Y205557D01*
X162138Y205538D01*
X162408Y205379D01*
X163797Y204671D01*
X164961Y203825D01*
X165979Y202807D01*
X166825Y201643D01*
X167479Y200360D01*
X167794Y199389D01*
X152400Y199389D01*
X137006Y199389D01*
X137321Y200360D01*
X137975Y201643D01*
X138821Y202807D01*
X139839Y203825D01*
X141003Y204671D01*
X142392Y205379D01*
X142418Y205395D01*
X142446Y205407D01*
X142609Y205515D01*
X142774Y205618D01*
X142796Y205639D01*
X142822Y205656D01*
X142963Y205790D01*
X143107Y205921D01*
X143126Y205945D01*
X143148Y205966D01*
X143263Y206123D01*
X143382Y206278D01*
X143396Y206305D01*
X143414Y206330D01*
X143499Y206505D01*
X143589Y206678D01*
X143598Y206707D01*
X143611Y206734D01*
X143664Y206921D01*
X143722Y207108D01*
X143726Y207138D01*
X143734Y207167D01*
X143753Y207361D01*
X143777Y207555D01*
X143776Y207585D01*
X143779Y207615D01*
X143763Y207810D01*
X143753Y208004D01*
X143746Y208034D01*
X143743Y208064D01*
X143694Y208253D01*
X143649Y208443D01*
X143637Y208470D01*
X143629Y208500D01*
X143548Y208677D01*
X143470Y208856D01*
X143453Y208881D01*
X143440Y208908D01*
X143328Y209068D01*
X143220Y209230D01*
X143199Y209252D01*
X143182Y209277D01*
X143044Y209414D01*
X142909Y209555D01*
X142884Y209573D01*
X142863Y209595D01*
X142702Y209705D01*
X142544Y209820D01*
X142517Y209833D01*
X142492Y209851D01*
X142211Y209988D01*
X138602Y211483D01*
X135029Y215056D01*
X133095Y219724D01*
X133095Y224776D01*
X135029Y229444D01*
X138739Y233154D01*
X138761Y233181D01*
X138787Y233204D01*
X138905Y233353D01*
X139028Y233500D01*
X139045Y233530D01*
X139067Y233557D01*
X139157Y233725D01*
X139251Y233891D01*
X139263Y233923D01*
X139279Y233954D01*
X139338Y234135D01*
X139402Y234315D01*
X139408Y234349D01*
X139418Y234382D01*
X139444Y234571D01*
X139476Y234759D01*
X139475Y234794D01*
X139480Y234828D01*
X139472Y235019D01*
X139469Y235210D01*
X139463Y235244D01*
X139461Y235278D01*
X139420Y235464D01*
X139384Y235652D01*
X139371Y235684D01*
X139364Y235718D01*
X139290Y235893D01*
X139222Y236072D01*
X139203Y236101D01*
X139190Y236133D01*
X139087Y236293D01*
X138988Y236456D01*
X138965Y236482D01*
X138946Y236511D01*
X138739Y236746D01*
X135029Y240456D01*
X133095Y245124D01*
X133095Y250176D01*
X135029Y254844D01*
X138739Y258554D01*
X138761Y258581D01*
X138787Y258604D01*
X138905Y258753D01*
X139028Y258900D01*
X139045Y258930D01*
X139067Y258957D01*
X139157Y259125D01*
X139251Y259291D01*
X139263Y259323D01*
X139279Y259354D01*
X139338Y259535D01*
X139402Y259715D01*
X139408Y259749D01*
X139418Y259782D01*
X139444Y259971D01*
X139475Y260159D01*
X139475Y260194D01*
X139480Y260228D01*
X139472Y260419D01*
X139469Y260609D01*
X139463Y260644D01*
X139461Y260678D01*
X139420Y260864D01*
X139384Y261052D01*
X139371Y261084D01*
X139364Y261118D01*
X139290Y261294D01*
X139222Y261472D01*
X139204Y261501D01*
X139190Y261533D01*
X139087Y261694D01*
X138988Y261856D01*
X138965Y261882D01*
X138946Y261911D01*
X138739Y262146D01*
X135029Y265856D01*
X133095Y270524D01*
X133095Y275576D01*
X135029Y280244D01*
X138602Y283817D01*
X141411Y284981D01*
X141598Y285079D01*
X141788Y285175D01*
X141798Y285183D01*
X141810Y285189D01*
X141977Y285319D01*
X142146Y285447D01*
X142155Y285457D01*
X142166Y285465D01*
X142308Y285623D01*
X142452Y285778D01*
X142459Y285789D01*
X142467Y285799D01*
X142579Y285979D01*
X142693Y286158D01*
X142698Y286170D01*
X142705Y286182D01*
X142784Y286378D01*
X142864Y286575D01*
X142867Y286587D01*
X142872Y286600D01*
X142914Y286808D01*
X142959Y287015D01*
X142960Y287031D01*
X142962Y287041D01*
X142963Y287080D01*
X142978Y287327D01*
X142978Y291431D01*
X144896Y296060D01*
X146195Y297359D01*
X146300Y297485D01*
X146412Y297606D01*
X146444Y297658D01*
X146483Y297704D01*
X146565Y297847D01*
X146653Y297986D01*
X146677Y298042D01*
X146707Y298095D01*
X146762Y298250D01*
X146824Y298402D01*
X146837Y298462D01*
X146858Y298520D01*
X146884Y298682D01*
X146919Y298843D01*
X146924Y298920D01*
X146931Y298964D01*
X146930Y299025D01*
X146938Y299155D01*
X146938Y299723D01*
X148253Y302898D01*
X151040Y305685D01*
X152170Y306814D01*
X152253Y306914D01*
X152344Y307007D01*
X152397Y307087D01*
X152459Y307160D01*
X152523Y307273D01*
X152596Y307380D01*
X152635Y307468D01*
X152682Y307551D01*
X152726Y307673D01*
X152778Y307792D01*
X152801Y307885D01*
X152833Y307975D01*
X152854Y308103D01*
X152885Y308230D01*
X152891Y308325D01*
X152906Y308419D01*
X152905Y308549D01*
X152913Y308679D01*
X152902Y308774D01*
X152900Y308869D01*
X152876Y308997D01*
X152861Y309126D01*
X152833Y309218D01*
X152815Y309312D01*
X152768Y309433D01*
X152730Y309557D01*
X152687Y309643D01*
X152652Y309732D01*
X152585Y309843D01*
X152526Y309959D01*
X152468Y310035D01*
X152419Y310116D01*
X152332Y310214D01*
X152254Y310317D01*
X152184Y310382D01*
X152120Y310454D01*
X152018Y310534D01*
X151923Y310623D01*
X151842Y310674D01*
X151767Y310733D01*
X151653Y310794D01*
X151543Y310864D01*
X151454Y310901D01*
X151370Y310946D01*
X151247Y310986D01*
X151126Y311035D01*
X151033Y311055D01*
X150942Y311085D01*
X150814Y311103D01*
X150686Y311130D01*
X150556Y311138D01*
X150496Y311146D01*
X150451Y311145D01*
X150374Y311149D01*
X143270Y311149D01*
X138602Y313083D01*
X135029Y316656D01*
X133095Y321324D01*
X133095Y326376D01*
X135029Y331044D01*
X138739Y334754D01*
X138761Y334781D01*
X138787Y334804D01*
X138905Y334953D01*
X139028Y335100D01*
X139045Y335130D01*
X139067Y335157D01*
X139157Y335325D01*
X139251Y335491D01*
X139263Y335523D01*
X139279Y335554D01*
X139338Y335735D01*
X139402Y335915D01*
X139408Y335949D01*
X139418Y335982D01*
X139444Y336171D01*
X139475Y336359D01*
X139475Y336394D01*
X139480Y336428D01*
X139472Y336619D01*
X139469Y336809D01*
X139463Y336844D01*
X139461Y336878D01*
X139420Y337064D01*
X139384Y337252D01*
X139371Y337284D01*
X139364Y337318D01*
X139290Y337494D01*
X139222Y337672D01*
X139204Y337701D01*
X139190Y337733D01*
X139087Y337894D01*
X138988Y338056D01*
X138965Y338082D01*
X138946Y338111D01*
X138739Y338346D01*
X135029Y342056D01*
X133095Y346724D01*
X133095Y351776D01*
X135029Y356444D01*
X138739Y360154D01*
X138761Y360181D01*
X138787Y360204D01*
X138905Y360353D01*
X139028Y360500D01*
X139045Y360530D01*
X139067Y360557D01*
X139157Y360725D01*
X139251Y360891D01*
X139263Y360923D01*
X139279Y360954D01*
X139338Y361135D01*
X139402Y361315D01*
X139408Y361349D01*
X139418Y361382D01*
X139444Y361571D01*
X139475Y361759D01*
X139475Y361794D01*
X139480Y361828D01*
X139472Y362019D01*
X139469Y362209D01*
X139463Y362244D01*
X139461Y362278D01*
X139420Y362464D01*
X139384Y362652D01*
X139371Y362684D01*
X139364Y362718D01*
X139290Y362894D01*
X139222Y363072D01*
X139204Y363101D01*
X139190Y363133D01*
X139087Y363294D01*
X138988Y363456D01*
X138965Y363482D01*
X138946Y363511D01*
X138739Y363746D01*
X135029Y367456D01*
X133095Y372124D01*
X133095Y377176D01*
X135029Y381844D01*
X138602Y385417D01*
X142211Y386912D01*
X142238Y386926D01*
X142267Y386936D01*
X142438Y387031D01*
X142610Y387121D01*
X142634Y387139D01*
X142661Y387154D01*
X142813Y387277D01*
X142966Y387397D01*
X142987Y387419D01*
X143010Y387438D01*
X143138Y387587D01*
X143268Y387731D01*
X143284Y387757D01*
X143304Y387780D01*
X143403Y387948D01*
X143506Y388113D01*
X143517Y388141D01*
X143533Y388168D01*
X143600Y388350D01*
X143673Y388531D01*
X143679Y388561D01*
X143689Y388590D01*
X143724Y388781D01*
X143763Y388973D01*
X143764Y389003D01*
X143769Y389033D01*
X143769Y389227D01*
X143774Y389423D01*
X143769Y389453D01*
X143769Y389483D01*
X143735Y389674D01*
X143705Y389868D01*
X143695Y389897D01*
X143689Y389926D01*
X143622Y390109D01*
X143558Y390294D01*
X143544Y390320D01*
X143533Y390349D01*
X143434Y390517D01*
X143339Y390687D01*
X143320Y390710D01*
X143304Y390736D01*
X143177Y390884D01*
X143054Y391035D01*
X143031Y391055D01*
X143011Y391078D01*
X142860Y391201D01*
X142711Y391328D01*
X142685Y391343D01*
X142662Y391362D01*
X142392Y391521D01*
X141003Y392229D01*
X139839Y393075D01*
X138821Y394093D01*
X137975Y395257D01*
X137321Y396540D01*
X137006Y397511D01*
X152400Y397511D01*
X167794Y397511D01*
X167479Y396540D01*
X166825Y395257D01*
X165979Y394093D01*
X164961Y393075D01*
X163797Y392229D01*
X162408Y391521D01*
X162382Y391505D01*
X162354Y391493D01*
X162191Y391385D01*
X162026Y391282D01*
X162004Y391261D01*
X161978Y391244D01*
X161837Y391110D01*
X161693Y390979D01*
X161674Y390955D01*
X161652Y390934D01*
X161537Y390776D01*
X161418Y390622D01*
X161404Y390595D01*
X161386Y390570D01*
X161301Y390395D01*
X161211Y390222D01*
X161202Y390193D01*
X161189Y390166D01*
X161136Y389979D01*
X161078Y389792D01*
X161074Y389762D01*
X161066Y389733D01*
X161046Y389539D01*
X161023Y389345D01*
X161024Y389315D01*
X161021Y389285D01*
X161037Y389090D01*
X161047Y388896D01*
X161054Y388866D01*
X161056Y388836D01*
X161106Y388647D01*
X161151Y388457D01*
X161163Y388430D01*
X161170Y388400D01*
X161252Y388224D01*
X161330Y388044D01*
X161347Y388019D01*
X161360Y387992D01*
X161472Y387832D01*
X161580Y387670D01*
X161601Y387648D01*
X161618Y387623D01*
X161756Y387485D01*
X161891Y387345D01*
X161916Y387327D01*
X161937Y387305D01*
X162098Y387195D01*
X162255Y387080D01*
X162283Y387067D01*
X162308Y387049D01*
X162589Y386912D01*
X164391Y386166D01*
X164548Y386117D01*
X164702Y386060D01*
X164763Y386049D01*
X164821Y386031D01*
X164984Y386010D01*
X165146Y385982D01*
X165207Y385982D01*
X165267Y385974D01*
X165432Y385983D01*
X165596Y385983D01*
X165656Y385994D01*
X165717Y385997D01*
X165877Y386035D01*
X166039Y386064D01*
X166112Y386089D01*
X166156Y386099D01*
X166212Y386123D01*
X166335Y386166D01*
X168944Y387247D01*
X173956Y387247D01*
X178585Y385329D01*
X182129Y381785D01*
X184047Y377156D01*
X184047Y372144D01*
X182129Y367515D01*
X178585Y363971D01*
X173956Y362053D01*
X170293Y362053D01*
X170163Y362042D01*
X170033Y362040D01*
X169939Y362022D01*
X169844Y362013D01*
X169719Y361979D01*
X169591Y361954D01*
X169502Y361920D01*
X169410Y361895D01*
X169292Y361839D01*
X169171Y361792D01*
X169089Y361742D01*
X169003Y361701D01*
X168898Y361626D01*
X168786Y361558D01*
X168715Y361495D01*
X168637Y361439D01*
X168546Y361346D01*
X168449Y361260D01*
X168390Y361185D01*
X168323Y361117D01*
X168250Y361009D01*
X168169Y360907D01*
X168124Y360823D01*
X168071Y360744D01*
X168018Y360625D01*
X167957Y360510D01*
X167927Y360419D01*
X167889Y360332D01*
X167858Y360205D01*
X167818Y360082D01*
X167805Y359987D01*
X167782Y359894D01*
X167774Y359765D01*
X167756Y359636D01*
X167760Y359540D01*
X167754Y359445D01*
X167769Y359316D01*
X167775Y359186D01*
X167795Y359093D01*
X167806Y358998D01*
X167844Y358873D01*
X167872Y358746D01*
X167909Y358658D01*
X167937Y358567D01*
X167996Y358451D01*
X168046Y358331D01*
X168098Y358250D01*
X168141Y358165D01*
X168219Y358062D01*
X168290Y357953D01*
X168376Y357855D01*
X168413Y357807D01*
X168446Y357776D01*
X168497Y357718D01*
X170125Y356090D01*
X170251Y355985D01*
X170372Y355873D01*
X170424Y355841D01*
X170470Y355802D01*
X170613Y355720D01*
X170752Y355632D01*
X170808Y355608D01*
X170861Y355578D01*
X171016Y355523D01*
X171168Y355461D01*
X171228Y355448D01*
X171286Y355427D01*
X171448Y355401D01*
X171609Y355366D01*
X171686Y355361D01*
X171730Y355354D01*
X171791Y355355D01*
X171921Y355347D01*
X180216Y355347D01*
X183391Y354032D01*
X186178Y351245D01*
X207121Y330302D01*
X207184Y330249D01*
X207241Y330189D01*
X207356Y330105D01*
X207466Y330013D01*
X207538Y329972D01*
X207604Y329923D01*
X207733Y329860D01*
X207857Y329789D01*
X207935Y329762D01*
X208009Y329726D01*
X208147Y329687D01*
X208282Y329639D01*
X208363Y329625D01*
X208442Y329603D01*
X208584Y329589D01*
X208726Y329565D01*
X208808Y329566D01*
X208890Y329558D01*
X209033Y329569D01*
X209176Y329571D01*
X209257Y329587D01*
X209339Y329593D01*
X209477Y329630D01*
X209618Y329657D01*
X209695Y329687D01*
X209775Y329707D01*
X209904Y329767D01*
X210038Y329819D01*
X210108Y329862D01*
X210183Y329897D01*
X210300Y329979D01*
X210423Y330053D01*
X210485Y330108D01*
X210552Y330155D01*
X210653Y330257D01*
X210760Y330351D01*
X210811Y330416D01*
X210869Y330474D01*
X210951Y330592D01*
X211040Y330704D01*
X211079Y330777D01*
X211125Y330845D01*
X211217Y331033D01*
X214939Y334754D01*
X214961Y334781D01*
X214987Y334804D01*
X215105Y334953D01*
X215228Y335100D01*
X215245Y335130D01*
X215267Y335157D01*
X215357Y335325D01*
X215451Y335491D01*
X215463Y335523D01*
X215479Y335554D01*
X215538Y335735D01*
X215602Y335915D01*
X215608Y335949D01*
X215618Y335982D01*
X215644Y336171D01*
X215676Y336359D01*
X215675Y336394D01*
X215680Y336428D01*
X215672Y336619D01*
X215669Y336810D01*
X215663Y336844D01*
X215661Y336878D01*
X215620Y337064D01*
X215584Y337252D01*
X215571Y337284D01*
X215564Y337318D01*
X215490Y337493D01*
X215422Y337672D01*
X215403Y337701D01*
X215390Y337733D01*
X215287Y337893D01*
X215188Y338056D01*
X215165Y338082D01*
X215146Y338111D01*
X214939Y338346D01*
X211229Y342056D01*
X209295Y346724D01*
X209295Y351776D01*
X211229Y356444D01*
X214939Y360154D01*
X214961Y360181D01*
X214987Y360204D01*
X215105Y360353D01*
X215228Y360500D01*
X215245Y360530D01*
X215267Y360557D01*
X215357Y360725D01*
X215451Y360891D01*
X215463Y360923D01*
X215479Y360954D01*
X215538Y361135D01*
X215602Y361315D01*
X215608Y361349D01*
X215618Y361382D01*
X215644Y361570D01*
X215676Y361759D01*
X215675Y361794D01*
X215680Y361828D01*
X215672Y362019D01*
X215669Y362210D01*
X215663Y362244D01*
X215661Y362278D01*
X215620Y362464D01*
X215584Y362652D01*
X215571Y362684D01*
X215564Y362718D01*
X215490Y362893D01*
X215422Y363072D01*
X215403Y363101D01*
X215390Y363133D01*
X215287Y363293D01*
X215188Y363456D01*
X215165Y363482D01*
X215146Y363511D01*
X214939Y363746D01*
X211229Y367456D01*
X209295Y372124D01*
X209295Y373922D01*
X209281Y374085D01*
X209274Y374250D01*
X209261Y374309D01*
X209255Y374370D01*
X209212Y374529D01*
X209176Y374689D01*
X209153Y374746D01*
X209137Y374805D01*
X209066Y374953D01*
X209003Y375105D01*
X208970Y375156D01*
X208943Y375211D01*
X208848Y375345D01*
X208758Y375483D01*
X208707Y375541D01*
X208681Y375577D01*
X208638Y375620D01*
X208552Y375717D01*
X181469Y402799D01*
X179768Y406907D01*
X179768Y481463D01*
X179756Y481593D01*
X179754Y481723D01*
X179736Y481816D01*
X179728Y481912D01*
X179694Y482037D01*
X179669Y482165D01*
X179634Y482254D01*
X179609Y482346D01*
X179554Y482463D01*
X179507Y482585D01*
X179457Y482667D01*
X179416Y482753D01*
X179340Y482858D01*
X179273Y482970D01*
X179209Y483041D01*
X179154Y483119D01*
X179061Y483210D01*
X178975Y483307D01*
X178900Y483366D01*
X178831Y483433D01*
X178723Y483506D01*
X178621Y483586D01*
X178537Y483631D01*
X178458Y483685D01*
X178339Y483738D01*
X178225Y483799D01*
X178134Y483829D01*
X178046Y483867D01*
X177920Y483898D01*
X177796Y483938D01*
X177702Y483951D01*
X177609Y483974D01*
X177479Y483982D01*
X177350Y484000D01*
X177255Y483996D01*
X177159Y484002D01*
X177030Y483987D01*
X176900Y483981D01*
X176807Y483961D01*
X176712Y483950D01*
X176588Y483912D01*
X176461Y483884D01*
X176373Y483847D01*
X176281Y483819D01*
X176165Y483760D01*
X176045Y483710D01*
X175965Y483658D01*
X175880Y483615D01*
X175776Y483536D01*
X175667Y483466D01*
X175570Y483380D01*
X175521Y483343D01*
X175491Y483310D01*
X175433Y483259D01*
X172448Y480274D01*
X172343Y480148D01*
X172231Y480027D01*
X172199Y479976D01*
X172160Y479929D01*
X172078Y479786D01*
X171990Y479647D01*
X171966Y479591D01*
X171936Y479538D01*
X171881Y479383D01*
X171819Y479231D01*
X171806Y479171D01*
X171785Y479114D01*
X171759Y478951D01*
X171724Y478791D01*
X171719Y478714D01*
X171712Y478669D01*
X171713Y478608D01*
X171705Y478479D01*
X171705Y473724D01*
X169771Y469056D01*
X166061Y465346D01*
X166039Y465319D01*
X166013Y465296D01*
X165895Y465147D01*
X165772Y465000D01*
X165755Y464970D01*
X165733Y464943D01*
X165643Y464775D01*
X165549Y464609D01*
X165537Y464577D01*
X165521Y464546D01*
X165462Y464365D01*
X165398Y464185D01*
X165392Y464151D01*
X165382Y464118D01*
X165356Y463929D01*
X165325Y463741D01*
X165325Y463706D01*
X165320Y463672D01*
X165328Y463481D01*
X165331Y463291D01*
X165337Y463256D01*
X165339Y463222D01*
X165380Y463036D01*
X165416Y462848D01*
X165429Y462816D01*
X165436Y462782D01*
X165510Y462606D01*
X165578Y462428D01*
X165596Y462399D01*
X165610Y462367D01*
X165713Y462206D01*
X165812Y462044D01*
X165835Y462018D01*
X165854Y461989D01*
X166061Y461754D01*
X169771Y458044D01*
X171705Y453376D01*
X171705Y448324D01*
X169771Y443656D01*
X166198Y440083D01*
X162589Y438588D01*
X162562Y438574D01*
X162533Y438564D01*
X162362Y438469D01*
X162190Y438379D01*
X162166Y438361D01*
X162139Y438346D01*
X161988Y438223D01*
X161834Y438103D01*
X161813Y438081D01*
X161790Y438062D01*
X161663Y437914D01*
X161532Y437769D01*
X161516Y437743D01*
X161496Y437720D01*
X161397Y437553D01*
X161294Y437387D01*
X161283Y437359D01*
X161267Y437333D01*
X161200Y437150D01*
X161127Y436969D01*
X161121Y436939D01*
X161111Y436910D01*
X161076Y436719D01*
X161037Y436527D01*
X161037Y436497D01*
X161031Y436467D01*
X161031Y436272D01*
X161026Y436077D01*
X161031Y436047D01*
X161031Y436017D01*
X161066Y435825D01*
X161095Y435632D01*
X161105Y435604D01*
X161111Y435574D01*
X161178Y435391D01*
X161242Y435206D01*
X161257Y435180D01*
X161267Y435152D01*
X161366Y434984D01*
X161461Y434813D01*
X161480Y434790D01*
X161496Y434764D01*
X161623Y434616D01*
X161746Y434465D01*
X161769Y434445D01*
X161789Y434422D01*
X161941Y434299D01*
X162089Y434172D01*
X162115Y434157D01*
X162138Y434138D01*
X162408Y433979D01*
X163797Y433271D01*
X164961Y432425D01*
X165979Y431407D01*
X166825Y430243D01*
X167479Y428960D01*
X167794Y427989D01*
X152400Y427989D01*
X137006Y427989D01*
X137321Y428960D01*
X137975Y430243D01*
X138821Y431407D01*
X139839Y432425D01*
X141003Y433271D01*
X142392Y433979D01*
X142418Y433995D01*
X142446Y434007D01*
X142609Y434115D01*
X142774Y434218D01*
X142796Y434239D01*
X142822Y434256D01*
X142963Y434390D01*
X143107Y434521D01*
X143126Y434545D01*
X143148Y434566D01*
X143263Y434723D01*
X143382Y434878D01*
X143396Y434905D01*
X143414Y434930D01*
X143499Y435104D01*
X143589Y435278D01*
X143598Y435307D01*
X143611Y435334D01*
X143664Y435521D01*
X143722Y435708D01*
X143726Y435738D01*
X143734Y435767D01*
X143754Y435961D01*
X143777Y436155D01*
X143776Y436185D01*
X143779Y436215D01*
X143763Y436410D01*
X143753Y436604D01*
X143746Y436634D01*
X143744Y436664D01*
X143694Y436853D01*
X143649Y437043D01*
X143637Y437070D01*
X143630Y437100D01*
X143548Y437276D01*
X143470Y437456D01*
X143453Y437481D01*
X143440Y437508D01*
X143328Y437668D01*
X143220Y437830D01*
X143199Y437852D01*
X143182Y437877D01*
X143044Y438015D01*
X142909Y438155D01*
X142884Y438173D01*
X142863Y438195D01*
X142702Y438305D01*
X142545Y438420D01*
X142517Y438433D01*
X142492Y438451D01*
X142211Y438588D01*
X138602Y440083D01*
X135029Y443656D01*
X133095Y448324D01*
X133095Y453376D01*
X135029Y458044D01*
X138739Y461754D01*
X138761Y461781D01*
X138787Y461804D01*
X138905Y461953D01*
X139028Y462100D01*
X139045Y462130D01*
X139067Y462157D01*
X139157Y462325D01*
X139251Y462491D01*
X139263Y462523D01*
X139279Y462554D01*
X139338Y462735D01*
X139402Y462915D01*
X139408Y462949D01*
X139418Y462982D01*
X139444Y463171D01*
X139476Y463359D01*
X139475Y463394D01*
X139480Y463428D01*
X139472Y463619D01*
X139469Y463810D01*
X139463Y463844D01*
X139461Y463878D01*
X139420Y464064D01*
X139384Y464252D01*
X139371Y464284D01*
X139364Y464318D01*
X139290Y464493D01*
X139222Y464672D01*
X139203Y464701D01*
X139190Y464733D01*
X139087Y464893D01*
X138988Y465056D01*
X138965Y465082D01*
X138946Y465111D01*
X138739Y465346D01*
X135029Y469056D01*
X133095Y473724D01*
X133095Y474673D01*
X133084Y474803D01*
X133082Y474933D01*
X133064Y475027D01*
X133055Y475122D01*
X133021Y475247D01*
X132996Y475375D01*
X132962Y475464D01*
X132937Y475556D01*
X132881Y475673D01*
X132834Y475795D01*
X132784Y475877D01*
X132743Y475963D01*
X132668Y476068D01*
X132600Y476179D01*
X132537Y476251D01*
X132481Y476329D01*
X132388Y476420D01*
X132302Y476517D01*
X132227Y476576D01*
X132159Y476643D01*
X132051Y476716D01*
X131949Y476796D01*
X131865Y476841D01*
X131786Y476895D01*
X131667Y476948D01*
X131552Y477009D01*
X131461Y477038D01*
X131374Y477077D01*
X131247Y477108D01*
X131124Y477148D01*
X131029Y477161D01*
X130936Y477184D01*
X130807Y477192D01*
X130678Y477210D01*
X130582Y477206D01*
X130487Y477211D01*
X130358Y477196D01*
X130228Y477191D01*
X130135Y477170D01*
X130040Y477159D01*
X129915Y477122D01*
X129788Y477094D01*
X129700Y477057D01*
X129609Y477029D01*
X129493Y476970D01*
X129373Y476920D01*
X129292Y476868D01*
X129207Y476825D01*
X129104Y476746D01*
X128995Y476676D01*
X128897Y476589D01*
X128849Y476553D01*
X128818Y476520D01*
X128760Y476469D01*
X127158Y474866D01*
X127021Y474702D01*
X126884Y474542D01*
X126877Y474530D01*
X126869Y474520D01*
X126763Y474336D01*
X126656Y474153D01*
X126652Y474141D01*
X126645Y474129D01*
X126574Y473929D01*
X126501Y473731D01*
X126499Y473718D01*
X126494Y473705D01*
X126460Y473494D01*
X126423Y473287D01*
X126423Y473274D01*
X126421Y473261D01*
X126424Y473047D01*
X126425Y472837D01*
X126427Y472824D01*
X126427Y472811D01*
X126468Y472601D01*
X126506Y472394D01*
X126511Y472379D01*
X126513Y472369D01*
X126527Y472332D01*
X126607Y472098D01*
X126937Y471303D01*
X126937Y455797D01*
X126009Y453556D01*
X124293Y451841D01*
X123693Y451593D01*
X123621Y451555D01*
X123544Y451525D01*
X123421Y451451D01*
X123294Y451384D01*
X123229Y451334D01*
X123159Y451291D01*
X123052Y451196D01*
X122938Y451109D01*
X122883Y451048D01*
X122821Y450993D01*
X122733Y450881D01*
X122637Y450774D01*
X122593Y450704D01*
X122542Y450640D01*
X122474Y450514D01*
X122399Y450392D01*
X122368Y450316D01*
X122329Y450243D01*
X122285Y450107D01*
X122232Y449974D01*
X122216Y449893D01*
X122190Y449815D01*
X122171Y449673D01*
X122142Y449533D01*
X122140Y449450D01*
X122129Y449369D01*
X122135Y449226D01*
X122131Y449083D01*
X122144Y449001D01*
X122147Y448919D01*
X122178Y448779D01*
X122200Y448638D01*
X122227Y448560D01*
X122245Y448479D01*
X122300Y448347D01*
X122346Y448212D01*
X122387Y448140D01*
X122418Y448064D01*
X122496Y447944D01*
X122566Y447819D01*
X122618Y447755D01*
X122663Y447686D01*
X122826Y447501D01*
X122851Y447470D01*
X122859Y447463D01*
X122870Y447451D01*
X125013Y445308D01*
X126937Y440664D01*
X126937Y435636D01*
X125013Y430992D01*
X121267Y427246D01*
X121244Y427219D01*
X121218Y427196D01*
X121100Y427047D01*
X120978Y426900D01*
X120960Y426870D01*
X120939Y426843D01*
X120849Y426675D01*
X120754Y426509D01*
X120743Y426477D01*
X120726Y426446D01*
X120667Y426265D01*
X120603Y426085D01*
X120598Y426051D01*
X120587Y426018D01*
X120561Y425829D01*
X120530Y425641D01*
X120530Y425606D01*
X120526Y425572D01*
X120534Y425381D01*
X120536Y425191D01*
X120543Y425156D01*
X120544Y425122D01*
X120585Y424936D01*
X120622Y424748D01*
X120634Y424716D01*
X120642Y424682D01*
X120715Y424506D01*
X120784Y424328D01*
X120802Y424299D01*
X120815Y424267D01*
X120919Y424106D01*
X121018Y423944D01*
X121041Y423918D01*
X121060Y423889D01*
X121267Y423654D01*
X125013Y419908D01*
X126937Y415264D01*
X126937Y410236D01*
X125013Y405592D01*
X121267Y401846D01*
X121244Y401819D01*
X121218Y401796D01*
X121100Y401647D01*
X120978Y401500D01*
X120960Y401470D01*
X120939Y401443D01*
X120849Y401275D01*
X120754Y401109D01*
X120743Y401077D01*
X120726Y401046D01*
X120667Y400865D01*
X120603Y400685D01*
X120598Y400651D01*
X120587Y400618D01*
X120561Y400429D01*
X120530Y400241D01*
X120530Y400206D01*
X120526Y400172D01*
X120534Y399981D01*
X120536Y399791D01*
X120543Y399756D01*
X120544Y399722D01*
X120585Y399536D01*
X120622Y399348D01*
X120634Y399316D01*
X120642Y399282D01*
X120715Y399106D01*
X120784Y398928D01*
X120802Y398899D01*
X120815Y398867D01*
X120919Y398706D01*
X121018Y398544D01*
X121041Y398518D01*
X121060Y398489D01*
X121267Y398254D01*
X125013Y394508D01*
X126937Y389864D01*
X126937Y384836D01*
X125013Y380192D01*
X121267Y376446D01*
X121244Y376419D01*
X121218Y376396D01*
X121100Y376247D01*
X120978Y376100D01*
X120960Y376070D01*
X120939Y376043D01*
X120849Y375875D01*
X120754Y375709D01*
X120743Y375677D01*
X120726Y375646D01*
X120667Y375465D01*
X120603Y375285D01*
X120598Y375251D01*
X120587Y375218D01*
X120561Y375029D01*
X120530Y374841D01*
X120530Y374806D01*
X120526Y374772D01*
X120534Y374581D01*
X120536Y374391D01*
X120543Y374356D01*
X120544Y374322D01*
X120585Y374136D01*
X120622Y373948D01*
X120634Y373916D01*
X120642Y373882D01*
X120715Y373706D01*
X120784Y373528D01*
X120802Y373499D01*
X120815Y373467D01*
X120919Y373306D01*
X121018Y373144D01*
X121041Y373118D01*
X121060Y373089D01*
X121267Y372854D01*
X125013Y369108D01*
X126937Y364464D01*
X126937Y359436D01*
X125013Y354792D01*
X121267Y351046D01*
X121244Y351019D01*
X121218Y350996D01*
X121100Y350847D01*
X120978Y350700D01*
X120960Y350670D01*
X120939Y350643D01*
X120849Y350475D01*
X120754Y350309D01*
X120743Y350277D01*
X120726Y350246D01*
X120667Y350065D01*
X120603Y349885D01*
X120598Y349851D01*
X120587Y349818D01*
X120561Y349629D01*
X120530Y349441D01*
X120530Y349406D01*
X120526Y349372D01*
X120534Y349181D01*
X120536Y348991D01*
X120543Y348956D01*
X120544Y348922D01*
X120585Y348736D01*
X120622Y348548D01*
X120634Y348516D01*
X120642Y348482D01*
X120715Y348306D01*
X120784Y348128D01*
X120802Y348099D01*
X120815Y348067D01*
X120919Y347906D01*
X121018Y347744D01*
X121041Y347718D01*
X121060Y347689D01*
X121267Y347454D01*
X125013Y343708D01*
X126937Y339064D01*
X126937Y334036D01*
X125013Y329392D01*
X121267Y325646D01*
X121244Y325619D01*
X121218Y325596D01*
X121100Y325447D01*
X120978Y325300D01*
X120960Y325270D01*
X120939Y325243D01*
X120849Y325075D01*
X120754Y324909D01*
X120743Y324877D01*
X120726Y324846D01*
X120667Y324665D01*
X120603Y324485D01*
X120598Y324451D01*
X120587Y324418D01*
X120561Y324229D01*
X120530Y324041D01*
X120530Y324006D01*
X120526Y323972D01*
X120534Y323781D01*
X120536Y323591D01*
X120543Y323556D01*
X120544Y323522D01*
X120585Y323336D01*
X120622Y323148D01*
X120634Y323116D01*
X120642Y323082D01*
X120715Y322906D01*
X120784Y322728D01*
X120802Y322699D01*
X120815Y322667D01*
X120919Y322506D01*
X121018Y322344D01*
X121041Y322318D01*
X121060Y322289D01*
X121267Y322054D01*
X125013Y318308D01*
X126937Y313664D01*
X126937Y308636D01*
X125013Y303992D01*
X121267Y300246D01*
X121244Y300219D01*
X121218Y300196D01*
X121100Y300047D01*
X120978Y299900D01*
X120960Y299870D01*
X120939Y299843D01*
X120849Y299675D01*
X120754Y299509D01*
X120743Y299477D01*
X120726Y299446D01*
X120667Y299265D01*
X120603Y299085D01*
X120598Y299051D01*
X120587Y299018D01*
X120561Y298829D01*
X120530Y298641D01*
X120530Y298606D01*
X120526Y298572D01*
X120534Y298381D01*
X120536Y298191D01*
X120543Y298156D01*
X120544Y298122D01*
X120585Y297936D01*
X120622Y297748D01*
X120634Y297716D01*
X120642Y297682D01*
X120715Y297506D01*
X120784Y297328D01*
X120802Y297299D01*
X120815Y297267D01*
X120919Y297106D01*
X121018Y296944D01*
X121041Y296918D01*
X121060Y296889D01*
X121267Y296654D01*
X125013Y292908D01*
X126937Y288264D01*
X126937Y283236D01*
X125013Y278592D01*
X121267Y274846D01*
X121244Y274819D01*
X121218Y274796D01*
X121100Y274647D01*
X120978Y274500D01*
X120960Y274470D01*
X120939Y274443D01*
X120849Y274275D01*
X120754Y274109D01*
X120743Y274077D01*
X120726Y274046D01*
X120667Y273865D01*
X120603Y273685D01*
X120598Y273651D01*
X120587Y273618D01*
X120561Y273429D01*
X120530Y273241D01*
X120530Y273206D01*
X120526Y273172D01*
X120534Y272981D01*
X120536Y272791D01*
X120543Y272756D01*
X120544Y272722D01*
X120585Y272536D01*
X120622Y272348D01*
X120634Y272316D01*
X120642Y272282D01*
X120715Y272106D01*
X120784Y271928D01*
X120802Y271899D01*
X120815Y271867D01*
X120919Y271706D01*
X121018Y271544D01*
X121041Y271518D01*
X121060Y271489D01*
X121267Y271254D01*
X125013Y267508D01*
X126937Y262864D01*
X126937Y257836D01*
X125013Y253192D01*
X121267Y249446D01*
X121244Y249419D01*
X121218Y249396D01*
X121100Y249247D01*
X120978Y249100D01*
X120960Y249070D01*
X120939Y249043D01*
X120849Y248875D01*
X120754Y248709D01*
X120743Y248677D01*
X120726Y248646D01*
X120667Y248465D01*
X120603Y248285D01*
X120598Y248251D01*
X120587Y248218D01*
X120561Y248029D01*
X120530Y247841D01*
X120530Y247806D01*
X120526Y247772D01*
X120534Y247581D01*
X120536Y247391D01*
X120543Y247356D01*
X120544Y247322D01*
X120585Y247136D01*
X120622Y246948D01*
X120634Y246916D01*
X120642Y246882D01*
X120715Y246706D01*
X120784Y246528D01*
X120802Y246499D01*
X120815Y246467D01*
X120919Y246306D01*
X121018Y246144D01*
X121041Y246118D01*
X121060Y246089D01*
X121267Y245854D01*
X125013Y242108D01*
X126937Y237464D01*
X126937Y232436D01*
X125013Y227792D01*
X121267Y224046D01*
X121244Y224019D01*
X121218Y223996D01*
X121100Y223847D01*
X120978Y223700D01*
X120960Y223670D01*
X120939Y223643D01*
X120849Y223475D01*
X120754Y223309D01*
X120743Y223277D01*
X120726Y223246D01*
X120667Y223065D01*
X120603Y222885D01*
X120598Y222851D01*
X120587Y222818D01*
X120561Y222629D01*
X120530Y222441D01*
X120530Y222406D01*
X120526Y222372D01*
X120534Y222181D01*
X120536Y221991D01*
X120543Y221956D01*
X120544Y221922D01*
X120585Y221736D01*
X120622Y221548D01*
X120634Y221516D01*
X120642Y221482D01*
X120715Y221306D01*
X120784Y221128D01*
X120802Y221099D01*
X120815Y221067D01*
X120919Y220906D01*
X121018Y220744D01*
X121041Y220718D01*
X121060Y220689D01*
X121267Y220454D01*
X125013Y216708D01*
X126937Y212064D01*
X126937Y207036D01*
X125013Y202392D01*
X121267Y198646D01*
X121244Y198619D01*
X121218Y198596D01*
X121100Y198447D01*
X120978Y198300D01*
X120960Y198270D01*
X120939Y198243D01*
X120849Y198075D01*
X120754Y197909D01*
X120743Y197877D01*
X120726Y197846D01*
X120667Y197665D01*
X120603Y197485D01*
X120598Y197451D01*
X120587Y197418D01*
X120561Y197229D01*
X120530Y197041D01*
X120530Y197006D01*
X120526Y196972D01*
X120534Y196781D01*
X120536Y196591D01*
X120543Y196556D01*
X120544Y196522D01*
X120585Y196336D01*
X120622Y196148D01*
X120634Y196116D01*
X120642Y196082D01*
X120715Y195906D01*
X120784Y195728D01*
X120802Y195699D01*
X120815Y195667D01*
X120919Y195506D01*
X121018Y195344D01*
X121041Y195318D01*
X121060Y195289D01*
X121267Y195054D01*
X125013Y191308D01*
X126937Y186664D01*
X126937Y181636D01*
X125013Y176992D01*
X121267Y173246D01*
X121244Y173219D01*
X121218Y173196D01*
X121100Y173047D01*
X120978Y172900D01*
X120960Y172870D01*
X120939Y172843D01*
X120849Y172675D01*
X120754Y172509D01*
X120743Y172477D01*
X120726Y172446D01*
X120667Y172265D01*
X120603Y172085D01*
X120598Y172051D01*
X120587Y172018D01*
X120561Y171829D01*
X120530Y171641D01*
X120530Y171606D01*
X120526Y171572D01*
X120534Y171381D01*
X120536Y171191D01*
X120543Y171156D01*
X120544Y171122D01*
X120585Y170936D01*
X120622Y170748D01*
X120634Y170716D01*
X120642Y170682D01*
X120715Y170506D01*
X120784Y170328D01*
X120802Y170299D01*
X120815Y170267D01*
X120919Y170106D01*
X121018Y169944D01*
X121041Y169918D01*
X121060Y169889D01*
X121267Y169654D01*
X125013Y165908D01*
X126937Y161264D01*
X126937Y156236D01*
X125013Y151592D01*
X121458Y148037D01*
X117718Y146488D01*
X117714Y146486D01*
X117710Y146485D01*
X117514Y146381D01*
X117319Y146279D01*
X117315Y146277D01*
X117312Y146275D01*
X117140Y146141D01*
X116963Y146004D01*
X116960Y146000D01*
X116956Y145998D01*
X116809Y145833D01*
X116661Y145669D01*
X116659Y145666D01*
X116656Y145663D01*
X116538Y145472D01*
X116423Y145287D01*
X116421Y145283D01*
X116419Y145279D01*
X116337Y145072D01*
X116256Y144869D01*
X116256Y144864D01*
X116254Y144861D01*
X116211Y144645D01*
X116166Y144428D01*
X116166Y144423D01*
X116165Y144419D01*
X116161Y144198D01*
X116155Y143977D01*
X116156Y143973D01*
X116156Y143969D01*
X116190Y143752D01*
X116224Y143532D01*
X116226Y143528D01*
X116226Y143524D01*
X116299Y143316D01*
X116371Y143107D01*
X116373Y143103D01*
X116374Y143099D01*
X116481Y142908D01*
X116590Y142713D01*
X116593Y142710D01*
X116595Y142706D01*
X116734Y142538D01*
X116875Y142365D01*
X116879Y142362D01*
X116881Y142359D01*
X117048Y142217D01*
X117218Y142073D01*
X117221Y142070D01*
X117225Y142068D01*
X117413Y141958D01*
X117606Y141845D01*
X117610Y141844D01*
X117614Y141842D01*
X117714Y141802D01*
X119059Y141117D01*
X120216Y140276D01*
X121278Y139214D01*
X121304Y139192D01*
X121327Y139166D01*
X121476Y139048D01*
X121623Y138926D01*
X121653Y138908D01*
X121680Y138887D01*
X121848Y138797D01*
X122014Y138702D01*
X122047Y138691D01*
X122077Y138674D01*
X122259Y138615D01*
X122438Y138551D01*
X122472Y138546D01*
X122505Y138535D01*
X122695Y138509D01*
X122882Y138478D01*
X122917Y138478D01*
X122951Y138474D01*
X123142Y138481D01*
X123333Y138484D01*
X123367Y138491D01*
X123401Y138492D01*
X123587Y138533D01*
X123775Y138570D01*
X123807Y138582D01*
X123841Y138590D01*
X124017Y138663D01*
X124195Y138732D01*
X124224Y138750D01*
X124256Y138763D01*
X124417Y138867D01*
X124579Y138966D01*
X124605Y138989D01*
X124635Y139008D01*
X124869Y139214D01*
X132352Y146697D01*
X132457Y146824D01*
X132569Y146944D01*
X132601Y146996D01*
X132640Y147043D01*
X132722Y147185D01*
X132810Y147324D01*
X132834Y147381D01*
X132864Y147434D01*
X132919Y147589D01*
X132981Y147741D01*
X132994Y147800D01*
X133015Y147858D01*
X133041Y148020D01*
X133076Y148181D01*
X133081Y148258D01*
X133088Y148302D01*
X133087Y148363D01*
X133095Y148493D01*
X133095Y148576D01*
X135029Y153244D01*
X138602Y156817D01*
X142211Y158312D01*
X142238Y158326D01*
X142267Y158336D01*
X142438Y158431D01*
X142610Y158521D01*
X142634Y158539D01*
X142661Y158554D01*
X142813Y158677D01*
X142966Y158797D01*
X142987Y158819D01*
X143010Y158838D01*
X143138Y158987D01*
X143268Y159131D01*
X143284Y159157D01*
X143304Y159180D01*
X143403Y159348D01*
X143506Y159513D01*
X143517Y159541D01*
X143533Y159568D01*
X143600Y159750D01*
X143673Y159931D01*
X143679Y159961D01*
X143689Y159990D01*
X143724Y160181D01*
X143763Y160373D01*
X143764Y160403D01*
X143769Y160433D01*
X143769Y160627D01*
X143774Y160823D01*
X143769Y160853D01*
X143769Y160883D01*
X143735Y161074D01*
X143705Y161268D01*
X143695Y161297D01*
X143689Y161326D01*
X143622Y161509D01*
X143558Y161694D01*
X143544Y161720D01*
X143533Y161749D01*
X143434Y161917D01*
X143339Y162087D01*
X143320Y162110D01*
X143304Y162136D01*
X143177Y162284D01*
X143054Y162435D01*
X143031Y162455D01*
X143011Y162478D01*
X142860Y162601D01*
X142711Y162728D01*
X142685Y162743D01*
X142662Y162762D01*
X142392Y162921D01*
X141003Y163629D01*
X139839Y164475D01*
X138821Y165493D01*
X137975Y166657D01*
X137321Y167940D01*
X137006Y168911D01*
X152400Y168911D01*
X167794Y168911D01*
X167479Y167940D01*
X166825Y166657D01*
X165979Y165493D01*
X164961Y164475D01*
X163797Y163629D01*
X162408Y162921D01*
X162382Y162905D01*
X162354Y162893D01*
X162191Y162785D01*
X162026Y162682D01*
X162004Y162661D01*
X161978Y162644D01*
X161837Y162510D01*
X161693Y162379D01*
X161674Y162355D01*
X161652Y162334D01*
X161537Y162177D01*
X161418Y162022D01*
X161404Y161995D01*
X161386Y161970D01*
X161301Y161795D01*
X161211Y161622D01*
X161202Y161593D01*
X161189Y161566D01*
X161136Y161379D01*
X161078Y161192D01*
X161074Y161162D01*
X161066Y161133D01*
X161046Y160939D01*
X161023Y160745D01*
X161024Y160715D01*
X161021Y160685D01*
X161037Y160490D01*
X161047Y160296D01*
X161054Y160266D01*
X161056Y160236D01*
X161106Y160047D01*
X161151Y159857D01*
X161163Y159830D01*
X161170Y159800D01*
X161252Y159624D01*
X161330Y159444D01*
X161347Y159419D01*
X161360Y159392D01*
X161472Y159232D01*
X161580Y159070D01*
X161601Y159048D01*
X161618Y159023D01*
X161756Y158885D01*
X161891Y158745D01*
X161916Y158727D01*
X161937Y158705D01*
X162098Y158595D01*
X162255Y158480D01*
X162283Y158467D01*
X162308Y158449D01*
X162589Y158312D01*
X166198Y156817D01*
X169771Y153244D01*
X169956Y152799D01*
X169972Y152769D01*
X169983Y152736D01*
X170076Y152569D01*
X170164Y152400D01*
X170185Y152373D01*
X170202Y152342D01*
X170323Y152195D01*
X170440Y152044D01*
X170466Y152021D01*
X170487Y151994D01*
X170632Y151870D01*
X170774Y151742D01*
X170804Y151724D01*
X170830Y151702D01*
X170995Y151605D01*
X171156Y151505D01*
X171188Y151492D01*
X171218Y151474D01*
X171398Y151408D01*
X171575Y151338D01*
X171609Y151331D01*
X171641Y151319D01*
X171829Y151286D01*
X172016Y151248D01*
X172050Y151247D01*
X172085Y151241D01*
X172276Y151242D01*
X172466Y151237D01*
X172500Y151242D01*
X172535Y151242D01*
X172723Y151277D01*
X172911Y151306D01*
X172943Y151317D01*
X172978Y151323D01*
X173273Y151425D01*
X174151Y151789D01*
X179163Y151789D01*
X183792Y149871D01*
X187336Y146327D01*
X189254Y141698D01*
X189254Y141096D01*
X189264Y140980D01*
X189264Y140863D01*
X189284Y140756D01*
X189294Y140648D01*
X189324Y140535D01*
X189345Y140420D01*
X189396Y140274D01*
X189412Y140214D01*
X189428Y140181D01*
X189447Y140125D01*
X189675Y139574D01*
X189675Y60705D01*
X187974Y56597D01*
X173140Y41764D01*
X173035Y41638D01*
X172923Y41517D01*
X172891Y41466D01*
X172852Y41419D01*
X172770Y41276D01*
X172682Y41137D01*
X172658Y41081D01*
X172628Y41028D01*
X172573Y40873D01*
X172511Y40721D01*
X172498Y40661D01*
X172477Y40604D01*
X172451Y40441D01*
X172416Y40281D01*
X172411Y40204D01*
X172404Y40159D01*
X172405Y40098D01*
X172397Y39969D01*
X172397Y34202D01*
X169413Y26999D01*
X163901Y21487D01*
X156698Y18503D01*
X148902Y18503D01*
X141699Y21487D01*
X141197Y21989D01*
X141071Y22094D01*
X140950Y22206D01*
X140899Y22238D01*
X140852Y22277D01*
X140709Y22359D01*
X140571Y22447D01*
X140514Y22471D01*
X140461Y22501D01*
X140306Y22556D01*
X140154Y22618D01*
X140094Y22631D01*
X140037Y22652D01*
X139875Y22678D01*
X139714Y22713D01*
X139637Y22718D01*
X139593Y22725D01*
X139532Y22724D01*
X139402Y22732D01*
X83883Y22732D01*
X79775Y24434D01*
X76274Y27935D01*
X14496Y89713D01*
X14396Y89797D01*
X14303Y89887D01*
X14223Y89941D01*
X14150Y90002D01*
X14037Y90067D01*
X13930Y90139D01*
X13842Y90178D01*
X13759Y90225D01*
X13637Y90269D01*
X13518Y90322D01*
X13425Y90344D01*
X13335Y90376D01*
X13206Y90398D01*
X13080Y90428D01*
X12985Y90434D01*
X12891Y90450D01*
X12760Y90448D01*
X12631Y90456D01*
X12536Y90445D01*
X12440Y90444D01*
X12313Y90419D01*
X12184Y90404D01*
X12092Y90376D01*
X11998Y90358D01*
X11877Y90311D01*
X11753Y90274D01*
X11668Y90230D01*
X11578Y90196D01*
X11467Y90128D01*
X11351Y90069D01*
X11275Y90012D01*
X11194Y89962D01*
X11096Y89876D01*
X10993Y89797D01*
X10928Y89727D01*
X10856Y89664D01*
X10776Y89562D01*
X10687Y89466D01*
X10636Y89385D01*
X10577Y89311D01*
X10516Y89196D01*
X10446Y89086D01*
X10409Y88998D01*
X10364Y88914D01*
X10324Y88790D01*
X10275Y88670D01*
X10255Y88576D01*
X10225Y88486D01*
X10207Y88357D01*
X10180Y88230D01*
X10172Y88100D01*
X10164Y88039D01*
X10165Y87995D01*
X10161Y87918D01*
X10161Y12700D01*
X10164Y12665D01*
X10162Y12631D01*
X10184Y12442D01*
X10201Y12251D01*
X10210Y12218D01*
X10214Y12184D01*
X10269Y12001D01*
X10319Y11817D01*
X10334Y11786D01*
X10344Y11753D01*
X10431Y11582D01*
X10513Y11410D01*
X10533Y11382D01*
X10548Y11351D01*
X10664Y11199D01*
X10775Y11044D01*
X10800Y11020D01*
X10820Y10993D01*
X10960Y10864D01*
X11097Y10730D01*
X11126Y10711D01*
X11152Y10687D01*
X11313Y10585D01*
X11470Y10478D01*
X11502Y10464D01*
X11531Y10446D01*
X11708Y10373D01*
X11882Y10296D01*
X11916Y10288D01*
X11948Y10275D01*
X12135Y10235D01*
X12320Y10189D01*
X12354Y10187D01*
X12388Y10180D01*
X12700Y10161D01*
X304600Y10161D01*
X304635Y10164D01*
G37*
G36*
X79421Y57579D02*
X79421Y57579D01*
X79565Y57581D01*
X79646Y57597D01*
X79728Y57603D01*
X79866Y57639D01*
X80007Y57667D01*
X80084Y57696D01*
X80163Y57717D01*
X80293Y57777D01*
X80427Y57829D01*
X80497Y57872D01*
X80572Y57906D01*
X80689Y57989D01*
X80811Y58063D01*
X80873Y58117D01*
X80941Y58165D01*
X81042Y58266D01*
X81149Y58361D01*
X81200Y58426D01*
X81258Y58484D01*
X81340Y58602D01*
X81428Y58714D01*
X81467Y58787D01*
X81514Y58855D01*
X81622Y59076D01*
X81641Y59111D01*
X81644Y59121D01*
X81651Y59135D01*
X82622Y61480D01*
X85418Y64275D01*
X85509Y64384D01*
X85545Y64422D01*
X85566Y64452D01*
X85692Y64599D01*
X85698Y64611D01*
X85707Y64621D01*
X85812Y64805D01*
X85919Y64988D01*
X85924Y65000D01*
X85930Y65012D01*
X86001Y65212D01*
X86074Y65411D01*
X86077Y65424D01*
X86081Y65436D01*
X86115Y65644D01*
X86152Y65854D01*
X86152Y65867D01*
X86154Y65880D01*
X86152Y66092D01*
X86151Y66304D01*
X86148Y66317D01*
X86148Y66330D01*
X86108Y66539D01*
X86070Y66747D01*
X86065Y66762D01*
X86063Y66773D01*
X86049Y66809D01*
X85968Y67043D01*
X83923Y71980D01*
X83923Y76991D01*
X85841Y81621D01*
X89385Y85165D01*
X94057Y87100D01*
X94072Y87101D01*
X94283Y87118D01*
X94296Y87121D01*
X94309Y87122D01*
X94514Y87178D01*
X94718Y87232D01*
X94730Y87237D01*
X94743Y87241D01*
X94934Y87331D01*
X95127Y87421D01*
X95138Y87428D01*
X95150Y87434D01*
X95321Y87557D01*
X95496Y87679D01*
X95505Y87688D01*
X95516Y87696D01*
X95664Y87848D01*
X95813Y87999D01*
X95821Y88009D01*
X95830Y88019D01*
X95948Y88194D01*
X96069Y88369D01*
X96076Y88383D01*
X96082Y88392D01*
X96098Y88428D01*
X96206Y88650D01*
X98150Y93341D01*
X102977Y98169D01*
X103114Y98333D01*
X103251Y98493D01*
X103257Y98504D01*
X103266Y98514D01*
X103371Y98699D01*
X103478Y98881D01*
X103483Y98894D01*
X103489Y98905D01*
X103560Y99104D01*
X103633Y99304D01*
X103636Y99317D01*
X103640Y99329D01*
X103675Y99539D01*
X103711Y99747D01*
X103711Y99760D01*
X103714Y99774D01*
X103711Y99987D01*
X103710Y100198D01*
X103708Y100210D01*
X103707Y100224D01*
X103667Y100433D01*
X103629Y100641D01*
X103624Y100655D01*
X103622Y100666D01*
X103608Y100703D01*
X103527Y100936D01*
X101663Y105436D01*
X101663Y110464D01*
X103587Y115108D01*
X107142Y118663D01*
X110882Y120212D01*
X110886Y120214D01*
X110890Y120215D01*
X111084Y120318D01*
X111281Y120421D01*
X111285Y120423D01*
X111288Y120425D01*
X111460Y120559D01*
X111637Y120696D01*
X111640Y120700D01*
X111644Y120702D01*
X111791Y120867D01*
X111939Y121031D01*
X111941Y121034D01*
X111944Y121037D01*
X112062Y121228D01*
X112177Y121413D01*
X112179Y121417D01*
X112181Y121421D01*
X112262Y121626D01*
X112344Y121831D01*
X112344Y121836D01*
X112346Y121839D01*
X112389Y122055D01*
X112434Y122272D01*
X112434Y122277D01*
X112435Y122281D01*
X112439Y122502D01*
X112445Y122723D01*
X112444Y122727D01*
X112444Y122731D01*
X112410Y122948D01*
X112376Y123168D01*
X112374Y123172D01*
X112374Y123176D01*
X112301Y123384D01*
X112229Y123593D01*
X112227Y123597D01*
X112226Y123601D01*
X112119Y123792D01*
X112010Y123987D01*
X112007Y123990D01*
X112005Y123994D01*
X111866Y124162D01*
X111725Y124335D01*
X111721Y124338D01*
X111719Y124341D01*
X111552Y124483D01*
X111382Y124627D01*
X111379Y124630D01*
X111375Y124632D01*
X111188Y124741D01*
X110994Y124855D01*
X110990Y124856D01*
X110986Y124858D01*
X110886Y124898D01*
X109541Y125583D01*
X108384Y126424D01*
X107374Y127434D01*
X106533Y128591D01*
X105885Y129864D01*
X105577Y130811D01*
X114300Y130811D01*
X117175Y130811D01*
X117177Y130811D01*
X117179Y130811D01*
X117395Y130830D01*
X117623Y130850D01*
X117625Y130851D01*
X117628Y130851D01*
X117838Y130909D01*
X118057Y130969D01*
X118059Y130970D01*
X118062Y130971D01*
X118272Y131071D01*
X118464Y131162D01*
X118466Y131164D01*
X118468Y131165D01*
X118655Y131299D01*
X118830Y131425D01*
X118832Y131426D01*
X118834Y131428D01*
X118989Y131588D01*
X119144Y131747D01*
X119146Y131749D01*
X119147Y131751D01*
X119267Y131928D01*
X119396Y132120D01*
X119397Y132122D01*
X119398Y132124D01*
X119532Y132407D01*
X119552Y132471D01*
X119579Y132532D01*
X119616Y132687D01*
X119662Y132838D01*
X119669Y132905D01*
X119685Y132970D01*
X119695Y133128D01*
X119713Y133286D01*
X119709Y133352D01*
X119713Y133419D01*
X119695Y133577D01*
X119685Y133735D01*
X119669Y133800D01*
X119661Y133866D01*
X119615Y134019D01*
X119577Y134172D01*
X119550Y134233D01*
X119531Y134297D01*
X119459Y134439D01*
X119394Y134584D01*
X119357Y134639D01*
X119326Y134699D01*
X119231Y134825D01*
X119141Y134956D01*
X119095Y135004D01*
X119054Y135057D01*
X118937Y135165D01*
X118827Y135278D01*
X118772Y135317D01*
X118723Y135363D01*
X118589Y135448D01*
X118460Y135540D01*
X118400Y135569D01*
X118343Y135604D01*
X118196Y135665D01*
X118053Y135733D01*
X117989Y135750D01*
X117927Y135775D01*
X117771Y135809D01*
X117619Y135850D01*
X117552Y135856D01*
X117487Y135870D01*
X117175Y135889D01*
X114300Y135889D01*
X105577Y135889D01*
X105885Y136836D01*
X106533Y138109D01*
X107374Y139266D01*
X108384Y140276D01*
X109541Y141117D01*
X110959Y141839D01*
X111109Y141903D01*
X111113Y141906D01*
X111117Y141907D01*
X111301Y142029D01*
X111486Y142150D01*
X111489Y142153D01*
X111493Y142156D01*
X111654Y142310D01*
X111813Y142460D01*
X111815Y142463D01*
X111819Y142466D01*
X111949Y142645D01*
X112080Y142822D01*
X112082Y142826D01*
X112085Y142830D01*
X112181Y143027D01*
X112279Y143226D01*
X112280Y143230D01*
X112282Y143234D01*
X112341Y143443D01*
X112404Y143659D01*
X112404Y143663D01*
X112405Y143667D01*
X112427Y143882D01*
X112450Y144107D01*
X112449Y144111D01*
X112450Y144115D01*
X112432Y144336D01*
X112416Y144556D01*
X112415Y144560D01*
X112414Y144564D01*
X112359Y144777D01*
X112303Y144992D01*
X112302Y144996D01*
X112300Y145000D01*
X112208Y145199D01*
X112116Y145401D01*
X112113Y145405D01*
X112111Y145409D01*
X111986Y145587D01*
X111859Y145771D01*
X111855Y145774D01*
X111853Y145777D01*
X111698Y145932D01*
X111540Y146089D01*
X111537Y146092D01*
X111534Y146095D01*
X111352Y146220D01*
X111171Y146346D01*
X111167Y146348D01*
X111163Y146351D01*
X110882Y146488D01*
X107142Y148037D01*
X103587Y151592D01*
X101663Y156236D01*
X101663Y161264D01*
X103587Y165908D01*
X107333Y169654D01*
X107356Y169681D01*
X107382Y169704D01*
X107500Y169853D01*
X107622Y170000D01*
X107640Y170030D01*
X107661Y170057D01*
X107751Y170225D01*
X107846Y170391D01*
X107857Y170423D01*
X107874Y170454D01*
X107933Y170635D01*
X107997Y170815D01*
X108002Y170849D01*
X108013Y170882D01*
X108039Y171071D01*
X108070Y171259D01*
X108070Y171294D01*
X108074Y171328D01*
X108066Y171519D01*
X108064Y171710D01*
X108057Y171744D01*
X108056Y171778D01*
X108015Y171964D01*
X107978Y172152D01*
X107966Y172184D01*
X107958Y172218D01*
X107885Y172393D01*
X107816Y172572D01*
X107798Y172601D01*
X107785Y172633D01*
X107681Y172793D01*
X107582Y172956D01*
X107559Y172982D01*
X107540Y173011D01*
X107333Y173246D01*
X103587Y176992D01*
X101663Y181636D01*
X101663Y182886D01*
X101662Y182897D01*
X101662Y182899D01*
X101661Y182907D01*
X101649Y183049D01*
X101642Y183214D01*
X101629Y183273D01*
X101623Y183334D01*
X101580Y183493D01*
X101544Y183653D01*
X101521Y183710D01*
X101505Y183769D01*
X101434Y183917D01*
X101371Y184069D01*
X101338Y184120D01*
X101311Y184175D01*
X101216Y184309D01*
X101126Y184447D01*
X101075Y184505D01*
X101049Y184541D01*
X101006Y184584D01*
X100920Y184681D01*
X59353Y226248D01*
X58038Y229422D01*
X58038Y263849D01*
X58019Y264060D01*
X58003Y264271D01*
X58000Y264284D01*
X57998Y264297D01*
X57942Y264502D01*
X57889Y264707D01*
X57883Y264719D01*
X57880Y264732D01*
X57789Y264922D01*
X57700Y265116D01*
X57692Y265126D01*
X57686Y265138D01*
X57563Y265311D01*
X57441Y265484D01*
X57432Y265494D01*
X57424Y265504D01*
X57272Y265653D01*
X57122Y265802D01*
X57111Y265809D01*
X57102Y265818D01*
X56925Y265938D01*
X56752Y266058D01*
X56737Y266065D01*
X56729Y266070D01*
X56692Y266087D01*
X56471Y266195D01*
X55730Y266501D01*
X51871Y270360D01*
X51117Y272182D01*
X51091Y272232D01*
X51071Y272285D01*
X50986Y272432D01*
X50908Y272581D01*
X50874Y272626D01*
X50845Y272675D01*
X50736Y272804D01*
X50632Y272937D01*
X50591Y272975D01*
X50554Y273018D01*
X50424Y273126D01*
X50298Y273239D01*
X50250Y273269D01*
X50207Y273305D01*
X50059Y273388D01*
X49916Y273477D01*
X49864Y273498D01*
X49814Y273525D01*
X49655Y273581D01*
X49498Y273644D01*
X49442Y273655D01*
X49389Y273673D01*
X49222Y273700D01*
X49056Y273734D01*
X49000Y273735D01*
X48944Y273744D01*
X48775Y273740D01*
X48606Y273744D01*
X48551Y273736D01*
X48494Y273735D01*
X48329Y273702D01*
X48161Y273676D01*
X48108Y273657D01*
X48053Y273646D01*
X47896Y273584D01*
X47736Y273529D01*
X47686Y273502D01*
X47634Y273481D01*
X47490Y273392D01*
X47342Y273310D01*
X47299Y273274D01*
X47251Y273245D01*
X47125Y273132D01*
X46994Y273025D01*
X46957Y272982D01*
X46915Y272944D01*
X46716Y272703D01*
X45850Y271511D01*
X44719Y270380D01*
X43425Y269440D01*
X42000Y268714D01*
X40639Y268271D01*
X40639Y285750D01*
X40639Y323850D01*
X40639Y361950D01*
X40639Y397511D01*
X47244Y397511D01*
X47279Y397514D01*
X47313Y397512D01*
X47502Y397534D01*
X47693Y397550D01*
X47726Y397560D01*
X47760Y397564D01*
X47943Y397619D01*
X48127Y397669D01*
X48158Y397684D01*
X48191Y397694D01*
X48362Y397781D01*
X48534Y397862D01*
X48562Y397883D01*
X48593Y397898D01*
X48745Y398013D01*
X48900Y398125D01*
X48924Y398149D01*
X48951Y398170D01*
X49080Y398310D01*
X49214Y398447D01*
X49233Y398476D01*
X49257Y398501D01*
X49359Y398662D01*
X49466Y398820D01*
X49480Y398852D01*
X49498Y398881D01*
X49571Y399058D01*
X49648Y399232D01*
X49656Y399266D01*
X49669Y399298D01*
X49709Y399484D01*
X49755Y399669D01*
X49757Y399704D01*
X49764Y399738D01*
X49783Y400050D01*
X49780Y400085D01*
X49782Y400119D01*
X49760Y400309D01*
X49743Y400499D01*
X49734Y400532D01*
X49730Y400566D01*
X49675Y400749D01*
X49625Y400933D01*
X49610Y400964D01*
X49600Y400997D01*
X49513Y401168D01*
X49431Y401340D01*
X49411Y401368D01*
X49396Y401399D01*
X49280Y401551D01*
X49169Y401706D01*
X49144Y401730D01*
X49124Y401757D01*
X48984Y401887D01*
X48847Y402020D01*
X48818Y402039D01*
X48792Y402063D01*
X48631Y402165D01*
X48474Y402272D01*
X48442Y402286D01*
X48413Y402304D01*
X48236Y402377D01*
X48062Y402454D01*
X48028Y402462D01*
X47996Y402475D01*
X47809Y402516D01*
X47624Y402561D01*
X47590Y402563D01*
X47556Y402570D01*
X47244Y402589D01*
X38100Y402589D01*
X38066Y402586D01*
X38031Y402588D01*
X37842Y402566D01*
X37652Y402549D01*
X37618Y402540D01*
X37584Y402536D01*
X37401Y402481D01*
X37217Y402431D01*
X37186Y402416D01*
X37153Y402406D01*
X36982Y402319D01*
X36811Y402238D01*
X36783Y402217D01*
X36752Y402202D01*
X36600Y402086D01*
X36445Y401975D01*
X36444Y401975D01*
X36420Y401950D01*
X36393Y401930D01*
X36393Y401929D01*
X36392Y401929D01*
X36263Y401789D01*
X36130Y401652D01*
X36111Y401624D01*
X36087Y401598D01*
X35985Y401437D01*
X35878Y401279D01*
X35864Y401248D01*
X35845Y401218D01*
X35773Y401042D01*
X35696Y400867D01*
X35688Y400834D01*
X35675Y400802D01*
X35634Y400615D01*
X35589Y400430D01*
X35587Y400396D01*
X35580Y400362D01*
X35561Y400050D01*
X35561Y361950D01*
X35561Y323850D01*
X35561Y285750D01*
X35561Y268271D01*
X34200Y268714D01*
X32775Y269440D01*
X31481Y270380D01*
X31260Y270601D01*
X31160Y270684D01*
X31067Y270775D01*
X30987Y270829D01*
X30914Y270890D01*
X30801Y270955D01*
X30694Y271027D01*
X30606Y271066D01*
X30523Y271113D01*
X30401Y271157D01*
X30282Y271210D01*
X30189Y271232D01*
X30099Y271264D01*
X29971Y271285D01*
X29844Y271316D01*
X29749Y271322D01*
X29655Y271338D01*
X29525Y271336D01*
X29395Y271344D01*
X29300Y271333D01*
X29205Y271332D01*
X29077Y271307D01*
X28948Y271292D01*
X28856Y271264D01*
X28763Y271246D01*
X28641Y271199D01*
X28517Y271161D01*
X28431Y271118D01*
X28342Y271084D01*
X28231Y271016D01*
X28115Y270957D01*
X28039Y270900D01*
X27958Y270850D01*
X27860Y270764D01*
X27757Y270685D01*
X27692Y270615D01*
X27620Y270552D01*
X27540Y270450D01*
X27451Y270354D01*
X27400Y270273D01*
X27341Y270199D01*
X27280Y270084D01*
X27210Y269974D01*
X27173Y269886D01*
X27128Y269802D01*
X27088Y269678D01*
X27039Y269558D01*
X27019Y269464D01*
X26989Y269373D01*
X26971Y269245D01*
X26944Y269117D01*
X26936Y268988D01*
X26928Y268927D01*
X26929Y268883D01*
X26925Y268806D01*
X26925Y109948D01*
X26939Y109785D01*
X26946Y109620D01*
X26959Y109561D01*
X26965Y109500D01*
X27008Y109341D01*
X27044Y109181D01*
X27067Y109124D01*
X27083Y109065D01*
X27154Y108917D01*
X27217Y108765D01*
X27250Y108714D01*
X27277Y108659D01*
X27372Y108525D01*
X27462Y108387D01*
X27513Y108329D01*
X27539Y108293D01*
X27582Y108250D01*
X27668Y108153D01*
X77510Y58312D01*
X77573Y58259D01*
X77630Y58199D01*
X77745Y58114D01*
X77855Y58023D01*
X77926Y57982D01*
X77993Y57933D01*
X78122Y57870D01*
X78246Y57799D01*
X78324Y57772D01*
X78398Y57736D01*
X78535Y57697D01*
X78670Y57649D01*
X78752Y57635D01*
X78831Y57613D01*
X78973Y57598D01*
X79114Y57575D01*
X79197Y57576D01*
X79279Y57568D01*
X79421Y57579D01*
G37*
G36*
X237779Y397514D02*
X237779Y397514D01*
X237813Y397512D01*
X238002Y397534D01*
X238193Y397550D01*
X238226Y397560D01*
X238260Y397564D01*
X238443Y397619D01*
X238627Y397669D01*
X238658Y397684D01*
X238691Y397694D01*
X238862Y397781D01*
X239034Y397862D01*
X239062Y397883D01*
X239093Y397898D01*
X239245Y398013D01*
X239400Y398125D01*
X239424Y398149D01*
X239451Y398170D01*
X239580Y398310D01*
X239714Y398447D01*
X239733Y398476D01*
X239757Y398501D01*
X239859Y398662D01*
X239966Y398820D01*
X239980Y398852D01*
X239998Y398881D01*
X240071Y399058D01*
X240148Y399232D01*
X240156Y399266D01*
X240169Y399298D01*
X240209Y399484D01*
X240255Y399669D01*
X240257Y399704D01*
X240264Y399738D01*
X240283Y400050D01*
X240280Y400085D01*
X240282Y400119D01*
X240260Y400309D01*
X240243Y400499D01*
X240234Y400532D01*
X240230Y400566D01*
X240175Y400749D01*
X240125Y400933D01*
X240110Y400964D01*
X240100Y400997D01*
X240013Y401168D01*
X239931Y401340D01*
X239911Y401368D01*
X239896Y401399D01*
X239780Y401551D01*
X239669Y401706D01*
X239644Y401730D01*
X239624Y401757D01*
X239484Y401887D01*
X239347Y402020D01*
X239318Y402039D01*
X239292Y402063D01*
X239131Y402165D01*
X238974Y402272D01*
X238942Y402286D01*
X238913Y402304D01*
X238736Y402377D01*
X238562Y402454D01*
X238528Y402462D01*
X238496Y402475D01*
X238309Y402516D01*
X238124Y402561D01*
X238090Y402563D01*
X238056Y402570D01*
X237744Y402589D01*
X231139Y402589D01*
X231139Y409195D01*
X235924Y409195D01*
X237347Y408969D01*
X237355Y408969D01*
X237364Y408967D01*
X237578Y408953D01*
X237796Y408939D01*
X237805Y408940D01*
X237813Y408939D01*
X238029Y408964D01*
X238244Y408988D01*
X238252Y408990D01*
X238260Y408991D01*
X238469Y409054D01*
X238675Y409115D01*
X238683Y409119D01*
X238691Y409121D01*
X238884Y409220D01*
X239078Y409317D01*
X239085Y409322D01*
X239093Y409326D01*
X239265Y409456D01*
X239439Y409586D01*
X239444Y409593D01*
X239451Y409598D01*
X239597Y409756D01*
X239746Y409915D01*
X239751Y409923D01*
X239757Y409929D01*
X239873Y410111D01*
X239990Y410294D01*
X239994Y410301D01*
X239998Y410309D01*
X240081Y410509D01*
X240164Y410709D01*
X240166Y410717D01*
X240169Y410725D01*
X240215Y410937D01*
X240262Y411148D01*
X240262Y411157D01*
X240264Y411165D01*
X240283Y411477D01*
X240283Y414023D01*
X240283Y414031D01*
X240283Y414040D01*
X240263Y414253D01*
X240243Y414471D01*
X240241Y414480D01*
X240240Y414488D01*
X240182Y414694D01*
X240125Y414906D01*
X240121Y414913D01*
X240119Y414922D01*
X240024Y415118D01*
X239931Y415312D01*
X239927Y415319D01*
X239923Y415327D01*
X239794Y415504D01*
X239669Y415678D01*
X239663Y415684D01*
X239658Y415691D01*
X239502Y415841D01*
X239347Y415992D01*
X239339Y415997D01*
X239333Y416003D01*
X239153Y416123D01*
X238974Y416244D01*
X238966Y416248D01*
X238959Y416253D01*
X238760Y416339D01*
X238562Y416427D01*
X238553Y416429D01*
X238546Y416432D01*
X238336Y416482D01*
X238124Y416533D01*
X238116Y416534D01*
X238107Y416536D01*
X237892Y416548D01*
X237675Y416561D01*
X237666Y416560D01*
X237658Y416560D01*
X237347Y416531D01*
X235924Y416305D01*
X231139Y416305D01*
X231139Y425450D01*
X231136Y425484D01*
X231138Y425519D01*
X231116Y425708D01*
X231099Y425898D01*
X231090Y425932D01*
X231086Y425966D01*
X231031Y426149D01*
X230981Y426333D01*
X230966Y426364D01*
X230956Y426397D01*
X230869Y426568D01*
X230788Y426739D01*
X230767Y426767D01*
X230752Y426798D01*
X230636Y426950D01*
X230525Y427105D01*
X230525Y427106D01*
X230501Y427130D01*
X230480Y427157D01*
X230479Y427157D01*
X230339Y427287D01*
X230202Y427420D01*
X230174Y427439D01*
X230148Y427463D01*
X229987Y427565D01*
X229829Y427672D01*
X229798Y427686D01*
X229768Y427704D01*
X229592Y427777D01*
X229417Y427854D01*
X229384Y427862D01*
X229352Y427875D01*
X229165Y427916D01*
X228980Y427961D01*
X228946Y427963D01*
X228912Y427970D01*
X228600Y427989D01*
X213206Y427989D01*
X213521Y428960D01*
X214175Y430243D01*
X215021Y431407D01*
X216039Y432425D01*
X217203Y433271D01*
X218592Y433979D01*
X218618Y433995D01*
X218646Y434007D01*
X218809Y434115D01*
X218974Y434218D01*
X218996Y434239D01*
X219022Y434256D01*
X219163Y434390D01*
X219307Y434521D01*
X219326Y434545D01*
X219348Y434566D01*
X219463Y434723D01*
X219582Y434878D01*
X219596Y434905D01*
X219614Y434930D01*
X219699Y435105D01*
X219789Y435278D01*
X219798Y435307D01*
X219811Y435334D01*
X219864Y435521D01*
X219922Y435708D01*
X219926Y435738D01*
X219934Y435767D01*
X219953Y435961D01*
X219977Y436155D01*
X219976Y436185D01*
X219979Y436215D01*
X219963Y436410D01*
X219953Y436604D01*
X219946Y436634D01*
X219943Y436664D01*
X219894Y436853D01*
X219849Y437043D01*
X219837Y437070D01*
X219829Y437100D01*
X219748Y437277D01*
X219670Y437456D01*
X219653Y437481D01*
X219640Y437508D01*
X219528Y437668D01*
X219420Y437830D01*
X219399Y437852D01*
X219382Y437877D01*
X219244Y438014D01*
X219109Y438155D01*
X219084Y438173D01*
X219063Y438195D01*
X218902Y438305D01*
X218744Y438420D01*
X218717Y438433D01*
X218692Y438451D01*
X218411Y438588D01*
X214802Y440083D01*
X211229Y443656D01*
X209295Y448324D01*
X209295Y449487D01*
X209293Y449507D01*
X209294Y449520D01*
X209286Y449594D01*
X209281Y449650D01*
X209274Y449815D01*
X209261Y449874D01*
X209255Y449935D01*
X209212Y450094D01*
X209176Y450254D01*
X209153Y450311D01*
X209137Y450370D01*
X209066Y450518D01*
X209003Y450670D01*
X208970Y450721D01*
X208943Y450776D01*
X208848Y450909D01*
X208759Y451048D01*
X208707Y451106D01*
X208681Y451142D01*
X208638Y451185D01*
X208552Y451282D01*
X206456Y453378D01*
X206356Y453461D01*
X206263Y453552D01*
X206184Y453605D01*
X206111Y453667D01*
X205998Y453731D01*
X205890Y453804D01*
X205803Y453843D01*
X205720Y453890D01*
X205597Y453934D01*
X205478Y453986D01*
X205386Y454009D01*
X205295Y454041D01*
X205167Y454062D01*
X205041Y454093D01*
X204945Y454099D01*
X204851Y454114D01*
X204721Y454113D01*
X204591Y454121D01*
X204497Y454109D01*
X204401Y454108D01*
X204273Y454083D01*
X204144Y454068D01*
X204053Y454041D01*
X203959Y454023D01*
X203838Y453976D01*
X203713Y453938D01*
X203628Y453895D01*
X203539Y453860D01*
X203428Y453793D01*
X203312Y453734D01*
X203236Y453676D01*
X203154Y453626D01*
X203057Y453540D01*
X202953Y453462D01*
X202888Y453392D01*
X202817Y453328D01*
X202736Y453226D01*
X202648Y453131D01*
X202597Y453050D01*
X202537Y452975D01*
X202476Y452861D01*
X202406Y452751D01*
X202370Y452663D01*
X202325Y452578D01*
X202285Y452454D01*
X202235Y452334D01*
X202215Y452241D01*
X202186Y452150D01*
X202168Y452021D01*
X202140Y451894D01*
X202132Y451764D01*
X202124Y451704D01*
X202126Y451659D01*
X202121Y451582D01*
X202121Y414812D01*
X202136Y414648D01*
X202143Y414484D01*
X202156Y414424D01*
X202161Y414363D01*
X202205Y414204D01*
X202240Y414044D01*
X202264Y413988D01*
X202280Y413929D01*
X202350Y413781D01*
X202414Y413629D01*
X202447Y413577D01*
X202473Y413522D01*
X202569Y413389D01*
X202658Y413250D01*
X202709Y413193D01*
X202735Y413156D01*
X202779Y413114D01*
X202865Y413016D01*
X210753Y405129D01*
X210759Y405123D01*
X210765Y405117D01*
X210931Y404980D01*
X211098Y404840D01*
X211106Y404835D01*
X211112Y404830D01*
X211299Y404725D01*
X211489Y404616D01*
X211497Y404613D01*
X211505Y404609D01*
X211708Y404539D01*
X211913Y404466D01*
X211922Y404464D01*
X211930Y404461D01*
X212145Y404427D01*
X212357Y404392D01*
X212366Y404392D01*
X212375Y404391D01*
X212592Y404395D01*
X212808Y404398D01*
X212816Y404400D01*
X212825Y404400D01*
X213038Y404443D01*
X213250Y404484D01*
X213258Y404487D01*
X213266Y404489D01*
X213468Y404568D01*
X213670Y404646D01*
X213677Y404650D01*
X213685Y404654D01*
X213869Y404767D01*
X214054Y404880D01*
X214061Y404886D01*
X214068Y404890D01*
X214230Y405035D01*
X214392Y405178D01*
X214397Y405185D01*
X214404Y405191D01*
X214602Y405432D01*
X215021Y406007D01*
X216039Y407025D01*
X217203Y407871D01*
X218486Y408525D01*
X219854Y408970D01*
X221276Y409195D01*
X226061Y409195D01*
X226061Y400050D01*
X226064Y400016D01*
X226062Y399981D01*
X226084Y399792D01*
X226100Y399602D01*
X226110Y399568D01*
X226114Y399534D01*
X226169Y399351D01*
X226219Y399167D01*
X226234Y399136D01*
X226244Y399103D01*
X226331Y398932D01*
X226412Y398761D01*
X226433Y398733D01*
X226448Y398702D01*
X226563Y398550D01*
X226675Y398395D01*
X226675Y398394D01*
X226699Y398370D01*
X226720Y398343D01*
X226721Y398343D01*
X226721Y398342D01*
X226861Y398213D01*
X226998Y398080D01*
X227026Y398061D01*
X227052Y398037D01*
X227213Y397935D01*
X227371Y397828D01*
X227402Y397814D01*
X227432Y397795D01*
X227608Y397723D01*
X227783Y397646D01*
X227816Y397638D01*
X227848Y397625D01*
X228035Y397584D01*
X228220Y397539D01*
X228254Y397537D01*
X228288Y397530D01*
X228600Y397511D01*
X237744Y397511D01*
X237779Y397514D01*
G37*
%LPC*%
G36*
X187399Y42599D02*
X187399Y42599D01*
X187578Y43267D01*
X188383Y45210D01*
X189434Y47031D01*
X190714Y48699D01*
X192201Y50186D01*
X193869Y51466D01*
X195690Y52517D01*
X197633Y53322D01*
X198301Y53501D01*
X198301Y42599D01*
X187399Y42599D01*
G37*
%LPD*%
%LPC*%
G36*
X207299Y33601D02*
X207299Y33601D01*
X218201Y33601D01*
X218022Y32933D01*
X217217Y30990D01*
X216166Y29169D01*
X214886Y27501D01*
X213399Y26014D01*
X211731Y24734D01*
X209910Y23683D01*
X207967Y22878D01*
X207299Y22699D01*
X207299Y33601D01*
G37*
%LPD*%
%LPC*%
G36*
X197633Y22878D02*
X197633Y22878D01*
X195690Y23683D01*
X193869Y24734D01*
X192201Y26014D01*
X190714Y27501D01*
X189434Y29169D01*
X188383Y30990D01*
X187578Y32933D01*
X187399Y33601D01*
X198301Y33601D01*
X198301Y22699D01*
X197633Y22878D01*
G37*
%LPD*%
%LPC*%
G36*
X154939Y402589D02*
X154939Y402589D01*
X154939Y409195D01*
X159724Y409195D01*
X161146Y408970D01*
X162514Y408525D01*
X163797Y407871D01*
X164961Y407025D01*
X165979Y406007D01*
X166825Y404843D01*
X167479Y403560D01*
X167794Y402589D01*
X154939Y402589D01*
G37*
%LPD*%
%LPC*%
G36*
X154939Y173989D02*
X154939Y173989D01*
X154939Y180595D01*
X159724Y180595D01*
X161146Y180370D01*
X162514Y179925D01*
X163797Y179271D01*
X164961Y178425D01*
X165979Y177407D01*
X166825Y176243D01*
X167479Y174960D01*
X167794Y173989D01*
X154939Y173989D01*
G37*
%LPD*%
%LPC*%
G36*
X231139Y173989D02*
X231139Y173989D01*
X231139Y180595D01*
X235924Y180595D01*
X237346Y180370D01*
X238714Y179925D01*
X239997Y179271D01*
X241161Y178425D01*
X242179Y177407D01*
X243025Y176243D01*
X243679Y174960D01*
X243994Y173989D01*
X231139Y173989D01*
G37*
%LPD*%
%LPC*%
G36*
X137006Y402589D02*
X137006Y402589D01*
X137321Y403560D01*
X137975Y404843D01*
X138821Y406007D01*
X139839Y407025D01*
X141003Y407871D01*
X142286Y408525D01*
X143654Y408970D01*
X145076Y409195D01*
X149861Y409195D01*
X149861Y402589D01*
X137006Y402589D01*
G37*
%LPD*%
%LPC*%
G36*
X137006Y173989D02*
X137006Y173989D01*
X137321Y174960D01*
X137975Y176243D01*
X138821Y177407D01*
X139839Y178425D01*
X141003Y179271D01*
X142286Y179925D01*
X143654Y180370D01*
X145076Y180595D01*
X149861Y180595D01*
X149861Y173989D01*
X137006Y173989D01*
G37*
%LPD*%
%LPC*%
G36*
X154939Y416305D02*
X154939Y416305D01*
X154939Y422911D01*
X167794Y422911D01*
X167479Y421940D01*
X166825Y420657D01*
X165979Y419493D01*
X164961Y418475D01*
X163797Y417629D01*
X162514Y416975D01*
X161146Y416530D01*
X159724Y416305D01*
X154939Y416305D01*
G37*
%LPD*%
%LPC*%
G36*
X154939Y187705D02*
X154939Y187705D01*
X154939Y194311D01*
X167794Y194311D01*
X167479Y193340D01*
X166825Y192057D01*
X165979Y190893D01*
X164961Y189875D01*
X163797Y189029D01*
X162514Y188375D01*
X161146Y187930D01*
X159724Y187705D01*
X154939Y187705D01*
G37*
%LPD*%
%LPC*%
G36*
X231139Y187705D02*
X231139Y187705D01*
X231139Y194311D01*
X243994Y194311D01*
X243679Y193340D01*
X243025Y192057D01*
X242179Y190893D01*
X241161Y189875D01*
X239997Y189029D01*
X238714Y188375D01*
X237346Y187930D01*
X235924Y187705D01*
X231139Y187705D01*
G37*
%LPD*%
%LPC*%
G36*
X221276Y416305D02*
X221276Y416305D01*
X219854Y416530D01*
X218486Y416975D01*
X217203Y417629D01*
X216039Y418475D01*
X215021Y419493D01*
X214175Y420657D01*
X213521Y421940D01*
X213206Y422911D01*
X226061Y422911D01*
X226061Y416305D01*
X221276Y416305D01*
G37*
%LPD*%
%LPC*%
G36*
X145076Y416305D02*
X145076Y416305D01*
X143654Y416530D01*
X142286Y416975D01*
X141003Y417629D01*
X139839Y418475D01*
X138821Y419493D01*
X137975Y420657D01*
X137321Y421940D01*
X137006Y422911D01*
X149861Y422911D01*
X149861Y416305D01*
X145076Y416305D01*
G37*
%LPD*%
%LPC*%
G36*
X145076Y187705D02*
X145076Y187705D01*
X143654Y187930D01*
X142286Y188375D01*
X141003Y189029D01*
X139839Y189875D01*
X138821Y190893D01*
X137975Y192057D01*
X137321Y193340D01*
X137006Y194311D01*
X149861Y194311D01*
X149861Y187705D01*
X145076Y187705D01*
G37*
%LPD*%
%LPC*%
G36*
X257977Y186689D02*
X257977Y186689D01*
X258285Y187636D01*
X258933Y188909D01*
X259774Y190066D01*
X260784Y191076D01*
X261941Y191917D01*
X263359Y192639D01*
X263510Y192703D01*
X263513Y192706D01*
X263517Y192707D01*
X263699Y192828D01*
X263886Y192950D01*
X263889Y192953D01*
X263893Y192956D01*
X264056Y193112D01*
X264161Y193210D01*
X264161Y186689D01*
X257977Y186689D01*
G37*
%LPD*%
D10*
X114300Y463550D03*
D11*
X114300Y438150D03*
X114300Y412750D03*
X114300Y387350D03*
X114300Y361950D03*
X114300Y336550D03*
X114300Y311150D03*
X114300Y285750D03*
X114300Y260350D03*
X114300Y234950D03*
X114300Y209550D03*
X114300Y184150D03*
X114300Y158750D03*
X114300Y133350D03*
X114300Y107950D03*
X266700Y107950D03*
X266700Y133350D03*
X266700Y158750D03*
X266700Y184150D03*
X266700Y209550D03*
X266700Y234950D03*
X266700Y260350D03*
X266700Y285750D03*
X266700Y311150D03*
X266700Y336550D03*
X266700Y361950D03*
X266700Y387350D03*
X266700Y412750D03*
X266700Y438150D03*
X266700Y463550D03*
D12*
X202800Y38100D03*
X152800Y38100D03*
D13*
X159004Y95250D02*
X145796Y95250D01*
X145796Y120650D02*
X159004Y120650D01*
X159004Y247650D02*
X145796Y247650D01*
X145796Y273050D02*
X159004Y273050D01*
X159004Y146050D02*
X145796Y146050D01*
X145796Y171450D02*
X159004Y171450D01*
X159004Y222250D02*
X145796Y222250D01*
X145796Y196850D02*
X159004Y196850D01*
X221996Y273050D02*
X235204Y273050D01*
X235204Y247650D02*
X221996Y247650D01*
X221996Y222250D02*
X235204Y222250D01*
X235204Y196850D02*
X221996Y196850D01*
X221996Y171450D02*
X235204Y171450D01*
X235204Y146050D02*
X221996Y146050D01*
X221996Y120650D02*
X235204Y120650D01*
X235204Y95250D02*
X221996Y95250D01*
X159004Y323850D02*
X145796Y323850D01*
X145796Y349250D02*
X159004Y349250D01*
X159004Y476250D02*
X145796Y476250D01*
X145796Y501650D02*
X159004Y501650D01*
X159004Y374650D02*
X145796Y374650D01*
X145796Y400050D02*
X159004Y400050D01*
X159004Y450850D02*
X145796Y450850D01*
X145796Y425450D02*
X159004Y425450D01*
X221996Y501650D02*
X235204Y501650D01*
X235204Y476250D02*
X221996Y476250D01*
X221996Y450850D02*
X235204Y450850D01*
X235204Y425450D02*
X221996Y425450D01*
X221996Y400050D02*
X235204Y400050D01*
X235204Y374650D02*
X221996Y374650D01*
X221996Y349250D02*
X235204Y349250D01*
X235204Y323850D02*
X221996Y323850D01*
D14*
X88900Y293370D02*
X88900Y278130D01*
X63500Y278130D02*
X63500Y293370D01*
X38100Y293370D02*
X38100Y278130D01*
X88900Y316230D02*
X88900Y331470D01*
X63500Y331470D02*
X63500Y316230D01*
X38100Y316230D02*
X38100Y331470D01*
X88900Y354330D02*
X88900Y369570D01*
X63500Y369570D02*
X63500Y354330D01*
X38100Y354330D02*
X38100Y369570D01*
X88900Y392430D02*
X88900Y407670D01*
X63500Y407670D02*
X63500Y392430D01*
X38100Y392430D02*
X38100Y407670D01*
D15*
X113759Y54039D03*
X93759Y54039D03*
X264000Y57150D03*
X244000Y57150D03*
X106523Y528447D03*
X126523Y528447D03*
X276827Y514223D03*
X256827Y514223D03*
D16*
X40005Y320040D02*
X40005Y288925D01*
X38100Y285750D01*
X40005Y320040D02*
X38100Y323850D01*
X40005Y364490D02*
X40005Y400050D01*
X40005Y364490D02*
X38100Y361950D01*
X38100Y400050D02*
X40005Y400050D01*
X40005Y360045D02*
X40005Y324485D01*
X38100Y323850D01*
X40005Y360045D02*
X38100Y361950D01*
D17*
X155575Y400050D02*
X155575Y422275D01*
D16*
X155575Y400050D02*
X152400Y400050D01*
X155575Y422275D02*
X152400Y425450D01*
D17*
X231140Y422275D02*
X231140Y400050D01*
D16*
X228600Y400050D01*
X231140Y422275D02*
X228600Y425450D01*
X230315Y186690D02*
X231521Y186690D01*
D17*
X266700Y186690D01*
D16*
X230315Y186690D02*
X228600Y188405D01*
D17*
X228600Y196850D01*
D16*
X266700Y186690D02*
X266700Y184150D01*
D17*
X231521Y186690D02*
X228600Y183769D01*
X228600Y171450D01*
D16*
X128905Y146685D02*
X115570Y133350D01*
X128905Y146685D02*
X128905Y151130D01*
X151130Y173355D01*
X115570Y133350D02*
X114300Y133350D01*
X152400Y171450D02*
X151130Y173355D01*
D17*
X155575Y173355D02*
X155575Y195580D01*
X152400Y196850D01*
X155575Y173355D02*
X195834Y173355D01*
X226695Y173355D01*
D16*
X228600Y171450D01*
X155575Y173355D02*
X152400Y171450D01*
D17*
X195834Y173355D02*
X195834Y42882D01*
D16*
X202800Y38100D01*
D17*
X130302Y384112D02*
X146241Y400050D01*
X130302Y384112D02*
X130302Y214313D01*
X150082Y194532D01*
D16*
X152400Y400050D02*
X146241Y400050D01*
X152400Y196850D02*
X150082Y194532D01*
X40005Y204470D02*
X40005Y284480D01*
X40005Y204470D02*
X111125Y133350D01*
X40005Y284480D02*
X38100Y285750D01*
X111125Y133350D02*
X114300Y133350D01*
X240030Y257810D02*
X266700Y257810D01*
X240030Y257810D02*
X231140Y248920D01*
X266700Y257810D02*
X266700Y260350D01*
X231140Y248920D02*
X228600Y247650D01*
X228600Y273050D02*
X266700Y311150D01*
X288925Y311150D02*
X266700Y333375D01*
X288925Y311150D02*
X288925Y29210D01*
X246380Y29210D01*
X208915Y66675D01*
X208915Y102235D01*
X226695Y120015D01*
X266700Y333375D02*
X266700Y336550D01*
X228600Y120650D02*
X226695Y120015D01*
X248920Y342265D02*
X266700Y360045D01*
X248920Y342265D02*
X248920Y315595D01*
X240030Y306705D01*
X218504Y306705D01*
X178499Y346710D01*
X155575Y346710D01*
X266700Y360045D02*
X266700Y361950D01*
X155575Y346710D02*
X152400Y349250D01*
X266700Y440055D02*
X292164Y465519D01*
X292164Y530352D01*
X274574Y547942D01*
X203645Y547942D01*
X173355Y517652D01*
X173355Y493395D01*
X155575Y475615D01*
X266700Y440055D02*
X266700Y438150D01*
X155575Y475615D02*
X152400Y476250D01*
X248920Y444500D02*
X266700Y462280D01*
X248920Y444500D02*
X248920Y368935D01*
X231140Y351155D01*
X266700Y462280D02*
X266700Y463550D01*
X231140Y351155D02*
X228600Y349250D01*
X208217Y292227D02*
X208217Y188786D01*
X208217Y292227D02*
X179007Y321437D01*
X62230Y364490D02*
X62230Y400050D01*
X62230Y364490D02*
X63500Y361950D01*
X63500Y400050D02*
X62230Y400050D01*
X66675Y231140D02*
X111125Y186690D01*
X66675Y231140D02*
X66675Y284480D01*
X111125Y186690D02*
X114300Y184150D01*
X66675Y284480D02*
X63500Y285750D01*
X62230Y288925D02*
X62230Y320040D01*
X63500Y323850D01*
X62230Y288925D02*
X63500Y285750D01*
X62230Y324485D02*
X62230Y360045D01*
X63500Y361950D01*
X62230Y324485D02*
X63500Y323850D01*
X155575Y298006D02*
X179007Y321437D01*
X155575Y298006D02*
X155575Y288925D01*
D18*
X208217Y188786D03*
X179007Y321437D03*
X155575Y288925D03*
D17*
X152400Y146050D02*
X147511Y146050D01*
X130048Y128588D01*
X130048Y93091D01*
X113759Y76802D02*
X113759Y54039D01*
X113759Y76802D02*
X130048Y93091D01*
D18*
X171450Y222250D03*
X171450Y374650D03*
D17*
X224790Y450850D02*
X228600Y450850D01*
X224790Y450850D02*
X206121Y469519D01*
X206121Y508381D01*
X217805Y520065D01*
X243671Y520065D01*
X256827Y514223D01*
X228600Y374650D02*
X225425Y374650D01*
X190945Y409131D01*
X190945Y515620D01*
X211582Y536258D01*
X266019Y536258D01*
X276827Y524976D01*
X276827Y514223D01*
D18*
X247650Y146050D03*
D16*
X111125Y391160D02*
X97790Y391160D01*
X88900Y400050D01*
X111125Y391160D02*
X114300Y387350D01*
X111125Y333375D02*
X97790Y333375D01*
X88900Y324485D01*
X111125Y333375D02*
X114300Y336550D01*
X88900Y324485D02*
X88900Y323850D01*
X111125Y311150D02*
X88900Y288925D01*
X111125Y311150D02*
X114300Y311150D01*
X88900Y288925D02*
X88900Y285750D01*
X88900Y364490D02*
X111125Y364490D01*
X114300Y361950D01*
X88900Y361950D02*
X88900Y364490D01*
D17*
X182245Y250952D02*
X182245Y244475D01*
X182245Y250952D02*
X153099Y272161D01*
X176657Y139192D02*
X178499Y137351D01*
X178499Y62929D01*
X155575Y40005D01*
D16*
X153099Y272161D02*
X152400Y273050D01*
X155575Y40005D02*
X152800Y38100D01*
D17*
X152400Y501650D02*
X141923Y501650D01*
X129223Y488950D01*
X91783Y488950D01*
X91250Y489077D01*
X15748Y413576D01*
X15748Y104267D01*
X86106Y33909D01*
X148609Y33909D02*
X152800Y38100D01*
X148609Y33909D02*
X86106Y33909D01*
D18*
X182245Y244475D03*
X176657Y139192D03*
X96520Y74486D03*
X263589Y76073D03*
X116586Y508445D03*
M02*
