G04 EAGLE Gerber RS-274X export*
G75*
%MOMM*%
%FSLAX34Y34*%
%LPD*%
%IN*%
%IPPOS*%
%AMOC8*
5,1,8,0,0,1.08239X$1,22.5*%
G01*
%ADD10C,0.254000*%


D10*
X0Y0D02*
X317300Y0D01*
X317300Y561850D01*
X0Y561850D01*
X0Y0D01*
X113912Y480060D02*
X113139Y480128D01*
X112374Y480262D01*
X111624Y480463D01*
X110895Y480729D01*
X110191Y481057D01*
X109519Y481445D01*
X108883Y481890D01*
X108288Y482389D01*
X107739Y482938D01*
X107240Y483533D01*
X106795Y484169D01*
X106407Y484841D01*
X106079Y485545D01*
X105813Y486274D01*
X105612Y487024D01*
X105478Y487789D01*
X105410Y488562D01*
X105410Y489338D01*
X105478Y490111D01*
X105612Y490876D01*
X105813Y491626D01*
X106079Y492355D01*
X106407Y493059D01*
X106795Y493731D01*
X107240Y494367D01*
X107739Y494962D01*
X108288Y495511D01*
X108883Y496010D01*
X109519Y496455D01*
X110191Y496843D01*
X110895Y497171D01*
X111624Y497437D01*
X112374Y497638D01*
X113139Y497772D01*
X113912Y497840D01*
X114688Y497840D01*
X115461Y497772D01*
X116226Y497638D01*
X116976Y497437D01*
X117705Y497171D01*
X118409Y496843D01*
X119081Y496455D01*
X119717Y496010D01*
X120312Y495511D01*
X120861Y494962D01*
X121360Y494367D01*
X121805Y493731D01*
X122193Y493059D01*
X122521Y492355D01*
X122787Y491626D01*
X122988Y490876D01*
X123122Y490111D01*
X123190Y489338D01*
X123190Y488562D01*
X123122Y487789D01*
X122988Y487024D01*
X122787Y486274D01*
X122521Y485545D01*
X122193Y484841D01*
X121805Y484169D01*
X121360Y483533D01*
X120861Y482938D01*
X120312Y482389D01*
X119717Y481890D01*
X119081Y481445D01*
X118409Y481057D01*
X117705Y480729D01*
X116976Y480463D01*
X116226Y480262D01*
X115461Y480128D01*
X114688Y480060D01*
X113912Y480060D01*
X266312Y480060D02*
X265539Y480128D01*
X264774Y480262D01*
X264024Y480463D01*
X263295Y480729D01*
X262591Y481057D01*
X261919Y481445D01*
X261283Y481890D01*
X260688Y482389D01*
X260139Y482938D01*
X259640Y483533D01*
X259195Y484169D01*
X258807Y484841D01*
X258479Y485545D01*
X258213Y486274D01*
X258012Y487024D01*
X257878Y487789D01*
X257810Y488562D01*
X257810Y489338D01*
X257878Y490111D01*
X258012Y490876D01*
X258213Y491626D01*
X258479Y492355D01*
X258807Y493059D01*
X259195Y493731D01*
X259640Y494367D01*
X260139Y494962D01*
X260688Y495511D01*
X261283Y496010D01*
X261919Y496455D01*
X262591Y496843D01*
X263295Y497171D01*
X264024Y497437D01*
X264774Y497638D01*
X265539Y497772D01*
X266312Y497840D01*
X267088Y497840D01*
X267861Y497772D01*
X268626Y497638D01*
X269376Y497437D01*
X270105Y497171D01*
X270809Y496843D01*
X271481Y496455D01*
X272117Y496010D01*
X272712Y495511D01*
X273261Y494962D01*
X273760Y494367D01*
X274205Y493731D01*
X274593Y493059D01*
X274921Y492355D01*
X275187Y491626D01*
X275388Y490876D01*
X275522Y490111D01*
X275590Y489338D01*
X275590Y488562D01*
X275522Y487789D01*
X275388Y487024D01*
X275187Y486274D01*
X274921Y485545D01*
X274593Y484841D01*
X274205Y484169D01*
X273760Y483533D01*
X273261Y482938D01*
X272712Y482389D01*
X272117Y481890D01*
X271481Y481445D01*
X270809Y481057D01*
X270105Y480729D01*
X269376Y480463D01*
X268626Y480262D01*
X267861Y480128D01*
X267088Y480060D01*
X266312Y480060D01*
X266312Y73660D02*
X265539Y73728D01*
X264774Y73862D01*
X264024Y74063D01*
X263295Y74329D01*
X262591Y74657D01*
X261919Y75045D01*
X261283Y75490D01*
X260688Y75989D01*
X260139Y76538D01*
X259640Y77133D01*
X259195Y77769D01*
X258807Y78441D01*
X258479Y79145D01*
X258213Y79874D01*
X258012Y80624D01*
X257878Y81389D01*
X257810Y82162D01*
X257810Y82938D01*
X257878Y83711D01*
X258012Y84476D01*
X258213Y85226D01*
X258479Y85955D01*
X258807Y86659D01*
X259195Y87331D01*
X259640Y87967D01*
X260139Y88562D01*
X260688Y89111D01*
X261283Y89610D01*
X261919Y90055D01*
X262591Y90443D01*
X263295Y90771D01*
X264024Y91037D01*
X264774Y91238D01*
X265539Y91372D01*
X266312Y91440D01*
X267088Y91440D01*
X267861Y91372D01*
X268626Y91238D01*
X269376Y91037D01*
X270105Y90771D01*
X270809Y90443D01*
X271481Y90055D01*
X272117Y89610D01*
X272712Y89111D01*
X273261Y88562D01*
X273760Y87967D01*
X274205Y87331D01*
X274593Y86659D01*
X274921Y85955D01*
X275187Y85226D01*
X275388Y84476D01*
X275522Y83711D01*
X275590Y82938D01*
X275590Y82162D01*
X275522Y81389D01*
X275388Y80624D01*
X275187Y79874D01*
X274921Y79145D01*
X274593Y78441D01*
X274205Y77769D01*
X273760Y77133D01*
X273261Y76538D01*
X272712Y75989D01*
X272117Y75490D01*
X271481Y75045D01*
X270809Y74657D01*
X270105Y74329D01*
X269376Y74063D01*
X268626Y73862D01*
X267861Y73728D01*
X267088Y73660D01*
X266312Y73660D01*
X113912Y73660D02*
X113139Y73728D01*
X112374Y73862D01*
X111624Y74063D01*
X110895Y74329D01*
X110191Y74657D01*
X109519Y75045D01*
X108883Y75490D01*
X108288Y75989D01*
X107739Y76538D01*
X107240Y77133D01*
X106795Y77769D01*
X106407Y78441D01*
X106079Y79145D01*
X105813Y79874D01*
X105612Y80624D01*
X105478Y81389D01*
X105410Y82162D01*
X105410Y82938D01*
X105478Y83711D01*
X105612Y84476D01*
X105813Y85226D01*
X106079Y85955D01*
X106407Y86659D01*
X106795Y87331D01*
X107240Y87967D01*
X107739Y88562D01*
X108288Y89111D01*
X108883Y89610D01*
X109519Y90055D01*
X110191Y90443D01*
X110895Y90771D01*
X111624Y91037D01*
X112374Y91238D01*
X113139Y91372D01*
X113912Y91440D01*
X114688Y91440D01*
X115461Y91372D01*
X116226Y91238D01*
X116976Y91037D01*
X117705Y90771D01*
X118409Y90443D01*
X119081Y90055D01*
X119717Y89610D01*
X120312Y89111D01*
X120861Y88562D01*
X121360Y87967D01*
X121805Y87331D01*
X122193Y86659D01*
X122521Y85955D01*
X122787Y85226D01*
X122988Y84476D01*
X123122Y83711D01*
X123190Y82938D01*
X123190Y82162D01*
X123122Y81389D01*
X122988Y80624D01*
X122787Y79874D01*
X122521Y79145D01*
X122193Y78441D01*
X121805Y77769D01*
X121360Y77133D01*
X120861Y76538D01*
X120312Y75989D01*
X119717Y75490D01*
X119081Y75045D01*
X118409Y74657D01*
X117705Y74329D01*
X116976Y74063D01*
X116226Y73862D01*
X115461Y73728D01*
X114688Y73660D01*
X113912Y73660D01*
M02*
